G04 #@! TF.GenerationSoftware,KiCad,Pcbnew,(6.0.7)*
G04 #@! TF.CreationDate,2023-02-22T13:34:51-04:00*
G04 #@! TF.ProjectId,Twitch Switch,54776974-6368-4205-9377-697463682e6b,1.1*
G04 #@! TF.SameCoordinates,Original*
G04 #@! TF.FileFunction,Copper,L1,Top*
G04 #@! TF.FilePolarity,Positive*
%FSLAX46Y46*%
G04 Gerber Fmt 4.6, Leading zero omitted, Abs format (unit mm)*
G04 Created by KiCad (PCBNEW (6.0.7)) date 2023-02-22 13:34:51*
%MOMM*%
%LPD*%
G01*
G04 APERTURE LIST*
G04 Aperture macros list*
%AMRoundRect*
0 Rectangle with rounded corners*
0 $1 Rounding radius*
0 $2 $3 $4 $5 $6 $7 $8 $9 X,Y pos of 4 corners*
0 Add a 4 corners polygon primitive as box body*
4,1,4,$2,$3,$4,$5,$6,$7,$8,$9,$2,$3,0*
0 Add four circle primitives for the rounded corners*
1,1,$1+$1,$2,$3*
1,1,$1+$1,$4,$5*
1,1,$1+$1,$6,$7*
1,1,$1+$1,$8,$9*
0 Add four rect primitives between the rounded corners*
20,1,$1+$1,$2,$3,$4,$5,0*
20,1,$1+$1,$4,$5,$6,$7,0*
20,1,$1+$1,$6,$7,$8,$9,0*
20,1,$1+$1,$8,$9,$2,$3,0*%
%AMOutline5P*
0 Free polygon, 5 corners , with rotation*
0 The origin of the aperture is its center*
0 number of corners: always 5*
0 $1 to $10 corner X, Y*
0 $11 Rotation angle, in degrees counterclockwise*
0 create outline with 5 corners*
4,1,5,$1,$2,$3,$4,$5,$6,$7,$8,$9,$10,$1,$2,$11*%
%AMOutline6P*
0 Free polygon, 6 corners , with rotation*
0 The origin of the aperture is its center*
0 number of corners: always 6*
0 $1 to $12 corner X, Y*
0 $13 Rotation angle, in degrees counterclockwise*
0 create outline with 6 corners*
4,1,6,$1,$2,$3,$4,$5,$6,$7,$8,$9,$10,$11,$12,$1,$2,$13*%
%AMOutline7P*
0 Free polygon, 7 corners , with rotation*
0 The origin of the aperture is its center*
0 number of corners: always 7*
0 $1 to $14 corner X, Y*
0 $15 Rotation angle, in degrees counterclockwise*
0 create outline with 7 corners*
4,1,7,$1,$2,$3,$4,$5,$6,$7,$8,$9,$10,$11,$12,$13,$14,$1,$2,$15*%
%AMOutline8P*
0 Free polygon, 8 corners , with rotation*
0 The origin of the aperture is its center*
0 number of corners: always 8*
0 $1 to $16 corner X, Y*
0 $17 Rotation angle, in degrees counterclockwise*
0 create outline with 8 corners*
4,1,8,$1,$2,$3,$4,$5,$6,$7,$8,$9,$10,$11,$12,$13,$14,$15,$16,$1,$2,$17*%
%AMFreePoly0*
4,1,22,0.500000,-0.750000,0.000000,-0.750000,0.000000,-0.745033,-0.079941,-0.743568,-0.215256,-0.701293,-0.333266,-0.622738,-0.424486,-0.514219,-0.481581,-0.384460,-0.499164,-0.250000,-0.500000,-0.250000,-0.500000,0.250000,-0.499164,0.250000,-0.499963,0.256109,-0.478152,0.396186,-0.417904,0.524511,-0.324060,0.630769,-0.204165,0.706417,-0.067858,0.745374,0.000000,0.744959,0.000000,0.750000,
0.500000,0.750000,0.500000,-0.750000,0.500000,-0.750000,$1*%
%AMFreePoly1*
4,1,20,0.000000,0.744959,0.073905,0.744508,0.209726,0.703889,0.328688,0.626782,0.421226,0.519385,0.479903,0.390333,0.500000,0.250000,0.500000,-0.250000,0.499851,-0.262216,0.476331,-0.402017,0.414519,-0.529596,0.319384,-0.634700,0.198574,-0.708877,0.061801,-0.746166,0.000000,-0.745033,0.000000,-0.750000,-0.500000,-0.750000,-0.500000,0.750000,0.000000,0.750000,0.000000,0.744959,
0.000000,0.744959,$1*%
%AMFreePoly2*
4,1,14,0.334644,0.085355,0.385355,0.034644,0.400000,-0.000711,0.400000,-0.050000,0.385355,-0.085355,0.350000,-0.100000,-0.350000,-0.100000,-0.385355,-0.085355,-0.400000,-0.050000,-0.400000,0.050000,-0.385355,0.085355,-0.350000,0.100000,0.299289,0.100000,0.334644,0.085355,0.334644,0.085355,$1*%
%AMFreePoly3*
4,1,14,0.385355,0.085355,0.400000,0.050000,0.400000,0.000711,0.385355,-0.034644,0.334644,-0.085355,0.299289,-0.100000,-0.350000,-0.100000,-0.385355,-0.085355,-0.400000,-0.050000,-0.400000,0.050000,-0.385355,0.085355,-0.350000,0.100000,0.350000,0.100000,0.385355,0.085355,0.385355,0.085355,$1*%
%AMFreePoly4*
4,1,14,0.085355,0.385355,0.100000,0.350000,0.100000,-0.350000,0.085355,-0.385355,0.050000,-0.400000,-0.050000,-0.400000,-0.085355,-0.385355,-0.100000,-0.350000,-0.100000,0.299289,-0.085355,0.334644,-0.034644,0.385355,0.000711,0.400000,0.050000,0.400000,0.085355,0.385355,0.085355,0.385355,$1*%
%AMFreePoly5*
4,1,14,0.034644,0.385355,0.085355,0.334644,0.100000,0.299289,0.100000,-0.350000,0.085355,-0.385355,0.050000,-0.400000,-0.050000,-0.400000,-0.085355,-0.385355,-0.100000,-0.350000,-0.100000,0.350000,-0.085355,0.385355,-0.050000,0.400000,-0.000711,0.400000,0.034644,0.385355,0.034644,0.385355,$1*%
%AMFreePoly6*
4,1,14,0.385355,0.085355,0.400000,0.050000,0.400000,-0.050000,0.385355,-0.085355,0.350000,-0.100000,-0.299289,-0.100000,-0.334644,-0.085355,-0.385355,-0.034644,-0.400000,0.000711,-0.400000,0.050000,-0.385355,0.085355,-0.350000,0.100000,0.350000,0.100000,0.385355,0.085355,0.385355,0.085355,$1*%
%AMFreePoly7*
4,1,14,0.385355,0.085355,0.400000,0.050000,0.400000,-0.050000,0.385355,-0.085355,0.350000,-0.100000,-0.350000,-0.100000,-0.385355,-0.085355,-0.400000,-0.050000,-0.400000,-0.000711,-0.385355,0.034644,-0.334644,0.085355,-0.299289,0.100000,0.350000,0.100000,0.385355,0.085355,0.385355,0.085355,$1*%
%AMFreePoly8*
4,1,14,0.085355,0.385355,0.100000,0.350000,0.100000,-0.299289,0.085355,-0.334644,0.034644,-0.385355,-0.000711,-0.400000,-0.050000,-0.400000,-0.085355,-0.385355,-0.100000,-0.350000,-0.100000,0.350000,-0.085355,0.385355,-0.050000,0.400000,0.050000,0.400000,0.085355,0.385355,0.085355,0.385355,$1*%
%AMFreePoly9*
4,1,14,0.085355,0.385355,0.100000,0.350000,0.100000,-0.350000,0.085355,-0.385355,0.050000,-0.400000,0.000711,-0.400000,-0.034644,-0.385355,-0.085355,-0.334644,-0.100000,-0.299289,-0.100000,0.350000,-0.085355,0.385355,-0.050000,0.400000,0.050000,0.400000,0.085355,0.385355,0.085355,0.385355,$1*%
G04 Aperture macros list end*
G04 #@! TA.AperFunction,SMDPad,CuDef*
%ADD10RoundRect,0.135000X-0.135000X-0.185000X0.135000X-0.185000X0.135000X0.185000X-0.135000X0.185000X0*%
G04 #@! TD*
G04 #@! TA.AperFunction,SMDPad,CuDef*
%ADD11RoundRect,0.135000X0.185000X-0.135000X0.185000X0.135000X-0.185000X0.135000X-0.185000X-0.135000X0*%
G04 #@! TD*
G04 #@! TA.AperFunction,SMDPad,CuDef*
%ADD12RoundRect,0.250000X0.250000X-1.000000X0.250000X1.000000X-0.250000X1.000000X-0.250000X-1.000000X0*%
G04 #@! TD*
G04 #@! TA.AperFunction,SMDPad,CuDef*
%ADD13RoundRect,0.140000X0.140000X0.170000X-0.140000X0.170000X-0.140000X-0.170000X0.140000X-0.170000X0*%
G04 #@! TD*
G04 #@! TA.AperFunction,SMDPad,CuDef*
%ADD14RoundRect,0.225000X0.775000X-0.225000X0.775000X0.225000X-0.775000X0.225000X-0.775000X-0.225000X0*%
G04 #@! TD*
G04 #@! TA.AperFunction,SMDPad,CuDef*
%ADD15R,1.000000X1.000000*%
G04 #@! TD*
G04 #@! TA.AperFunction,SMDPad,CuDef*
%ADD16RoundRect,0.140000X0.170000X-0.140000X0.170000X0.140000X-0.170000X0.140000X-0.170000X-0.140000X0*%
G04 #@! TD*
G04 #@! TA.AperFunction,SMDPad,CuDef*
%ADD17FreePoly0,90.000000*%
G04 #@! TD*
G04 #@! TA.AperFunction,SMDPad,CuDef*
%ADD18FreePoly1,90.000000*%
G04 #@! TD*
G04 #@! TA.AperFunction,SMDPad,CuDef*
%ADD19C,0.500000*%
G04 #@! TD*
G04 #@! TA.AperFunction,SMDPad,CuDef*
%ADD20RoundRect,0.150000X-0.587500X-0.150000X0.587500X-0.150000X0.587500X0.150000X-0.587500X0.150000X0*%
G04 #@! TD*
G04 #@! TA.AperFunction,SMDPad,CuDef*
%ADD21RoundRect,0.135000X0.135000X0.185000X-0.135000X0.185000X-0.135000X-0.185000X0.135000X-0.185000X0*%
G04 #@! TD*
G04 #@! TA.AperFunction,SMDPad,CuDef*
%ADD22RoundRect,0.140000X-0.170000X0.140000X-0.170000X-0.140000X0.170000X-0.140000X0.170000X0.140000X0*%
G04 #@! TD*
G04 #@! TA.AperFunction,SMDPad,CuDef*
%ADD23RoundRect,0.243750X0.243750X0.456250X-0.243750X0.456250X-0.243750X-0.456250X0.243750X-0.456250X0*%
G04 #@! TD*
G04 #@! TA.AperFunction,SMDPad,CuDef*
%ADD24RoundRect,0.140000X-0.140000X-0.170000X0.140000X-0.170000X0.140000X0.170000X-0.140000X0.170000X0*%
G04 #@! TD*
G04 #@! TA.AperFunction,SMDPad,CuDef*
%ADD25RoundRect,0.135000X-0.185000X0.135000X-0.185000X-0.135000X0.185000X-0.135000X0.185000X0.135000X0*%
G04 #@! TD*
G04 #@! TA.AperFunction,ComponentPad*
%ADD26R,1.700000X1.700000*%
G04 #@! TD*
G04 #@! TA.AperFunction,ComponentPad*
%ADD27O,1.700000X1.700000*%
G04 #@! TD*
G04 #@! TA.AperFunction,SMDPad,CuDef*
%ADD28Outline5P,-0.237500X0.075000X-0.187500X0.125000X0.237500X0.125000X0.237500X-0.125000X-0.237500X-0.125000X270.000000*%
G04 #@! TD*
G04 #@! TA.AperFunction,SMDPad,CuDef*
%ADD29RoundRect,0.062500X0.062500X-0.175000X0.062500X0.175000X-0.062500X0.175000X-0.062500X-0.175000X0*%
G04 #@! TD*
G04 #@! TA.AperFunction,SMDPad,CuDef*
%ADD30RoundRect,0.062500X0.175000X0.062500X-0.175000X0.062500X-0.175000X-0.062500X0.175000X-0.062500X0*%
G04 #@! TD*
G04 #@! TA.AperFunction,SMDPad,CuDef*
%ADD31RoundRect,0.125000X0.125000X1.025000X-0.125000X1.025000X-0.125000X-1.025000X0.125000X-1.025000X0*%
G04 #@! TD*
G04 #@! TA.AperFunction,SMDPad,CuDef*
%ADD32RoundRect,0.500000X-0.750000X0.500000X-0.750000X-0.500000X0.750000X-0.500000X0.750000X0.500000X0*%
G04 #@! TD*
G04 #@! TA.AperFunction,SMDPad,CuDef*
%ADD33FreePoly2,0.000000*%
G04 #@! TD*
G04 #@! TA.AperFunction,SMDPad,CuDef*
%ADD34RoundRect,0.050000X-0.350000X-0.050000X0.350000X-0.050000X0.350000X0.050000X-0.350000X0.050000X0*%
G04 #@! TD*
G04 #@! TA.AperFunction,SMDPad,CuDef*
%ADD35FreePoly3,0.000000*%
G04 #@! TD*
G04 #@! TA.AperFunction,SMDPad,CuDef*
%ADD36FreePoly4,0.000000*%
G04 #@! TD*
G04 #@! TA.AperFunction,SMDPad,CuDef*
%ADD37RoundRect,0.050000X-0.050000X-0.350000X0.050000X-0.350000X0.050000X0.350000X-0.050000X0.350000X0*%
G04 #@! TD*
G04 #@! TA.AperFunction,SMDPad,CuDef*
%ADD38FreePoly5,0.000000*%
G04 #@! TD*
G04 #@! TA.AperFunction,SMDPad,CuDef*
%ADD39FreePoly6,0.000000*%
G04 #@! TD*
G04 #@! TA.AperFunction,SMDPad,CuDef*
%ADD40FreePoly7,0.000000*%
G04 #@! TD*
G04 #@! TA.AperFunction,SMDPad,CuDef*
%ADD41FreePoly8,0.000000*%
G04 #@! TD*
G04 #@! TA.AperFunction,SMDPad,CuDef*
%ADD42FreePoly9,0.000000*%
G04 #@! TD*
G04 #@! TA.AperFunction,SMDPad,CuDef*
%ADD43R,1.700000X1.700000*%
G04 #@! TD*
G04 #@! TA.AperFunction,SMDPad,CuDef*
%ADD44RoundRect,0.050000X0.200000X0.050000X-0.200000X0.050000X-0.200000X-0.050000X0.200000X-0.050000X0*%
G04 #@! TD*
G04 #@! TA.AperFunction,SMDPad,CuDef*
%ADD45RoundRect,0.225000X0.225000X0.725000X-0.225000X0.725000X-0.225000X-0.725000X0.225000X-0.725000X0*%
G04 #@! TD*
G04 #@! TA.AperFunction,ComponentPad*
%ADD46RoundRect,0.250000X-0.350000X-0.625000X0.350000X-0.625000X0.350000X0.625000X-0.350000X0.625000X0*%
G04 #@! TD*
G04 #@! TA.AperFunction,ComponentPad*
%ADD47O,1.200000X1.750000*%
G04 #@! TD*
G04 #@! TA.AperFunction,ViaPad*
%ADD48C,0.508000*%
G04 #@! TD*
G04 #@! TA.AperFunction,Conductor*
%ADD49C,0.152400*%
G04 #@! TD*
G04 #@! TA.AperFunction,Conductor*
%ADD50C,0.254000*%
G04 #@! TD*
G04 #@! TA.AperFunction,Conductor*
%ADD51C,0.508000*%
G04 #@! TD*
G04 APERTURE END LIST*
D10*
X147318000Y-110109000D03*
X148338000Y-110109000D03*
D11*
X149479000Y-105793000D03*
X149479000Y-104773000D03*
D12*
X155750000Y-111920000D03*
X159750000Y-111920000D03*
X157750000Y-111920000D03*
D13*
X165580000Y-111379000D03*
X164620000Y-111379000D03*
D14*
X139192000Y-113030000D03*
X139192000Y-111760000D03*
X139192000Y-110490000D03*
X139192000Y-109220000D03*
X139192000Y-107950000D03*
X139192000Y-106680000D03*
X139192000Y-105410000D03*
X139192000Y-104140000D03*
D15*
X128056000Y-103085000D03*
D16*
X161036000Y-111986000D03*
X161036000Y-111026000D03*
D17*
X144145000Y-114569000D03*
D18*
X144145000Y-113269000D03*
D17*
X151257000Y-114569000D03*
D18*
X151257000Y-113269000D03*
D19*
X129286000Y-102743000D03*
D20*
X152097500Y-109540000D03*
X152097500Y-111440000D03*
X153972500Y-110490000D03*
D19*
X167132000Y-103632000D03*
D21*
X148338000Y-109093000D03*
X147318000Y-109093000D03*
D22*
X155448000Y-108994000D03*
X155448000Y-109954000D03*
D23*
X153591500Y-107569000D03*
X151716500Y-107569000D03*
D24*
X141252000Y-109347000D03*
X142212000Y-109347000D03*
D21*
X160784000Y-109982000D03*
X159764000Y-109982000D03*
D25*
X149479000Y-102741000D03*
X149479000Y-103761000D03*
D10*
X144651000Y-111760000D03*
X145671000Y-111760000D03*
D26*
X142113000Y-102997000D03*
D27*
X144653000Y-102997000D03*
X147193000Y-102997000D03*
D21*
X167515000Y-110363000D03*
X166495000Y-110363000D03*
D10*
X166495000Y-111379000D03*
X167515000Y-111379000D03*
D28*
X150761000Y-105429500D03*
D29*
X151261000Y-105429500D03*
X151761000Y-105429500D03*
X152261000Y-105429500D03*
D30*
X152423500Y-104767000D03*
X152423500Y-104267000D03*
X152423500Y-103767000D03*
D29*
X152261000Y-103104500D03*
X151761000Y-103104500D03*
X151261000Y-103104500D03*
X150761000Y-103104500D03*
D30*
X150598500Y-103767000D03*
X150598500Y-104267000D03*
X150598500Y-104767000D03*
D22*
X150622000Y-110772000D03*
X150622000Y-111732000D03*
D24*
X141252000Y-108331000D03*
X142212000Y-108331000D03*
D22*
X153543000Y-104775000D03*
X153543000Y-105735000D03*
D31*
X163652000Y-107048000D03*
X162852000Y-107048000D03*
X162052000Y-107048000D03*
X161252000Y-107048000D03*
X160452000Y-107048000D03*
D32*
X166502000Y-107198000D03*
X166502000Y-101698000D03*
X157602000Y-101698000D03*
X157602000Y-107198000D03*
D33*
X143330000Y-107150000D03*
D34*
X143330000Y-107550000D03*
X143330000Y-107950000D03*
X143330000Y-108350000D03*
D35*
X143330000Y-108750000D03*
D36*
X143980000Y-109400000D03*
D37*
X144380000Y-109400000D03*
X144780000Y-109400000D03*
X145180000Y-109400000D03*
D38*
X145580000Y-109400000D03*
D39*
X146230000Y-108750000D03*
D34*
X146230000Y-108350000D03*
X146230000Y-107950000D03*
X146230000Y-107550000D03*
D40*
X146230000Y-107150000D03*
D41*
X145580000Y-106500000D03*
D37*
X145180000Y-106500000D03*
X144780000Y-106500000D03*
X144380000Y-106500000D03*
D42*
X143980000Y-106500000D03*
D43*
X144780000Y-107950000D03*
D16*
X153543000Y-103731000D03*
X153543000Y-102771000D03*
D17*
X147701000Y-114569000D03*
D18*
X147701000Y-113269000D03*
D19*
X128143000Y-114427000D03*
D44*
X163764000Y-111036000D03*
X163764000Y-110636000D03*
X163764000Y-110236000D03*
X163764000Y-109836000D03*
X163764000Y-109436000D03*
X161864000Y-109436000D03*
X161864000Y-109836000D03*
X161864000Y-110236000D03*
X161864000Y-110636000D03*
X161864000Y-111036000D03*
D45*
X162814000Y-110236000D03*
D46*
X164452300Y-114221260D03*
D47*
X166452300Y-114221260D03*
D48*
X144272000Y-108458000D03*
X154813000Y-102616000D03*
X137795000Y-107315000D03*
X136271000Y-106172000D03*
X133858000Y-103759000D03*
X140525500Y-113792000D03*
X129032000Y-103759000D03*
X131445000Y-106172000D03*
X145923000Y-102489000D03*
X137795000Y-109855000D03*
X136271000Y-110998000D03*
X156083000Y-107569000D03*
X159639000Y-108204000D03*
X148710062Y-102731260D03*
X140525500Y-111125000D03*
X147935284Y-105988939D03*
X140525500Y-108585000D03*
X144272000Y-107442000D03*
X137795000Y-113792000D03*
X137795000Y-112395000D03*
X133858000Y-108585000D03*
X154686000Y-106807000D03*
X140525500Y-112395000D03*
X129032000Y-108585000D03*
X156972000Y-113919000D03*
X149225000Y-112395000D03*
X145288000Y-107442000D03*
X157353000Y-109728000D03*
X140525500Y-103505000D03*
X137795000Y-104775000D03*
X164465000Y-107315000D03*
X129032000Y-113411000D03*
X145288000Y-108458000D03*
X140525500Y-104775000D03*
X163703000Y-111633000D03*
X149929036Y-111150473D03*
X133858000Y-113411000D03*
X140525500Y-106045000D03*
X131445000Y-110998000D03*
X149033035Y-110049084D03*
X154432000Y-104267000D03*
X137795000Y-103505000D03*
X142240000Y-106045000D03*
X140525500Y-107315000D03*
X140557883Y-109963787D03*
X137795000Y-108585000D03*
X166145097Y-109702100D03*
X150872922Y-106745038D03*
X156718000Y-112141000D03*
X148863080Y-108009293D03*
X141732000Y-110972100D03*
X155244599Y-107671100D03*
X156655900Y-110923500D03*
X142199897Y-104942103D03*
X141732000Y-110007900D03*
X143897900Y-104088709D03*
X150114000Y-105283000D03*
X152781000Y-102489000D03*
X146074683Y-105300030D03*
X148360903Y-111850900D03*
X147061844Y-112015067D03*
X147218900Y-107067900D03*
X146302724Y-105919276D03*
X147701000Y-111850900D03*
X148904132Y-104263065D03*
X148903969Y-105282766D03*
X140566100Y-109243652D03*
X142897900Y-109347000D03*
X164592000Y-108204000D03*
X164619621Y-112099315D03*
X161662284Y-111546312D03*
X151325274Y-110295835D03*
X158844100Y-111543267D03*
X150280050Y-109259052D03*
X141423799Y-106672593D03*
X142701847Y-106587053D03*
X145160766Y-111184969D03*
X143497900Y-110490000D03*
X145415000Y-105283000D03*
X143897900Y-105435949D03*
X151346350Y-108858734D03*
X146693662Y-110616492D03*
X145758515Y-110187346D03*
X149698877Y-109575100D03*
X150290629Y-108294352D03*
X164719000Y-109691900D03*
X152506670Y-108376634D03*
X163914100Y-108920849D03*
X146447521Y-111737115D03*
X144462100Y-110744000D03*
D49*
X153507000Y-103767000D02*
X153543000Y-103731000D01*
X163764000Y-110236000D02*
X164149548Y-110236000D01*
D50*
X150622000Y-110245473D02*
X150622000Y-110772000D01*
D49*
X152423500Y-104267000D02*
X153035000Y-104267000D01*
X164149548Y-110236000D02*
X164392848Y-110479300D01*
X142504679Y-107792400D02*
X141790600Y-107792400D01*
X162414000Y-109836000D02*
X162814000Y-110236000D01*
D50*
X152097500Y-109540000D02*
X151327473Y-109540000D01*
X154573615Y-109540000D02*
X155119615Y-108994000D01*
D49*
X141252000Y-108331000D02*
X141252000Y-109347000D01*
X142662279Y-107950000D02*
X142504679Y-107792400D01*
X141790600Y-107792400D02*
X141252000Y-108331000D01*
D50*
X155119615Y-108994000D02*
X155448000Y-108994000D01*
D49*
X153035000Y-104267000D02*
X153543000Y-104775000D01*
X164392848Y-110479300D02*
X165045152Y-110479300D01*
X163764000Y-110236000D02*
X162814000Y-110236000D01*
X152423500Y-103767000D02*
X153507000Y-103767000D01*
X161864000Y-109836000D02*
X162414000Y-109836000D01*
D50*
X151327473Y-109540000D02*
X150622000Y-110245473D01*
D49*
X143330000Y-107950000D02*
X144780000Y-107950000D01*
D50*
X152097500Y-109540000D02*
X154573615Y-109540000D01*
D49*
X143330000Y-107950000D02*
X142662279Y-107950000D01*
X149604000Y-105793000D02*
X150114000Y-105283000D01*
X149006140Y-103213860D02*
X149479000Y-102741000D01*
X150749000Y-105918000D02*
X151257000Y-105918000D01*
X143330000Y-108350000D02*
X142231000Y-108350000D01*
X150761000Y-105429500D02*
X150761000Y-105906000D01*
X155244599Y-104141099D02*
X153874500Y-102771000D01*
X155239198Y-105735000D02*
X155244599Y-105740401D01*
X149604000Y-105918000D02*
X150749000Y-105918000D01*
X152900000Y-104767000D02*
X153004400Y-104871400D01*
X151761000Y-105429500D02*
X151761000Y-105795000D01*
X153543000Y-105735000D02*
X155239198Y-105735000D01*
X148293302Y-102997000D02*
X148510162Y-103213860D01*
X152261000Y-103104500D02*
X152261000Y-102628000D01*
X153004400Y-104871400D02*
X153004400Y-105196400D01*
X152423500Y-104767000D02*
X152900000Y-104767000D01*
X153004400Y-105196400D02*
X153543000Y-105735000D01*
X142199897Y-104942103D02*
X143044506Y-104942103D01*
X153874500Y-102771000D02*
X153543000Y-102771000D01*
X150598500Y-103767000D02*
X150249000Y-103767000D01*
X148510162Y-103213860D02*
X149006140Y-103213860D01*
X142231000Y-108350000D02*
X142212000Y-108331000D01*
X149479000Y-105793000D02*
X149604000Y-105793000D01*
X155244599Y-105740401D02*
X155244599Y-104141099D01*
X150249000Y-103767000D02*
X150027600Y-103545600D01*
X153343157Y-111440000D02*
X152097500Y-111440000D01*
X147193000Y-102997000D02*
X148293302Y-102997000D01*
X151761000Y-105795000D02*
X151638000Y-105918000D01*
X149479000Y-105793000D02*
X149604000Y-105918000D01*
X151257000Y-105918000D02*
X151638000Y-105918000D01*
X141732000Y-112141000D02*
X141732000Y-110972100D01*
X142212000Y-109527900D02*
X141732000Y-110007900D01*
X150027600Y-103289600D02*
X149479000Y-102741000D01*
X143044506Y-104942103D02*
X143897900Y-104088709D01*
X150761000Y-105906000D02*
X150749000Y-105918000D01*
X142212000Y-109347000D02*
X142212000Y-109527900D01*
X152400000Y-102489000D02*
X153261000Y-102489000D01*
X151261000Y-105429500D02*
X151261000Y-105914000D01*
X157652400Y-111920000D02*
X156655900Y-110923500D01*
X142212000Y-109347000D02*
X142212000Y-108331000D01*
X140843000Y-113030000D02*
X141732000Y-112141000D01*
X157750000Y-111920000D02*
X157652400Y-111920000D01*
X140843000Y-113030000D02*
X139192000Y-113030000D01*
X155244599Y-107671100D02*
X155244599Y-105740401D01*
X157750000Y-111920000D02*
X156271400Y-113398600D01*
D50*
X150914000Y-111440000D02*
X150622000Y-111732000D01*
D49*
X153261000Y-102489000D02*
X153543000Y-102771000D01*
D50*
X152097500Y-111440000D02*
X150914000Y-111440000D01*
D49*
X150027600Y-103545600D02*
X150027600Y-103289600D01*
X156271400Y-113398600D02*
X155301757Y-113398600D01*
X152261000Y-102628000D02*
X152400000Y-102489000D01*
X155301757Y-113398600D02*
X153343157Y-111440000D01*
X151261000Y-105914000D02*
X151257000Y-105918000D01*
D50*
X146914604Y-111149892D02*
X146281108Y-111149892D01*
X150813450Y-108472050D02*
X150813450Y-109479288D01*
X146281108Y-111149892D02*
X145671000Y-111760000D01*
X147051296Y-111013200D02*
X146914604Y-111149892D01*
X150813450Y-109479288D02*
X149279537Y-111013200D01*
X149279537Y-111013200D02*
X147051296Y-111013200D01*
X151716500Y-107569000D02*
X150813450Y-108472050D01*
D49*
X145614900Y-104800400D02*
X146074683Y-105260183D01*
X146074683Y-105260183D02*
X146074683Y-105300030D01*
X144780000Y-106500000D02*
X144780000Y-105235500D01*
X145215100Y-104800400D02*
X145614900Y-104800400D01*
X150896669Y-113269000D02*
X150062521Y-112434852D01*
X149478569Y-111850900D02*
X148360903Y-111850900D01*
X144780000Y-105235500D02*
X145215100Y-104800400D01*
X151257000Y-113269000D02*
X150896669Y-113269000D01*
X150062521Y-112434852D02*
X149478569Y-111850900D01*
X146230000Y-107150000D02*
X147136800Y-107150000D01*
X145105400Y-112308600D02*
X145686608Y-112308600D01*
X144145000Y-113269000D02*
X145105400Y-112308600D01*
X147136800Y-107150000D02*
X147218900Y-107067900D01*
X146768311Y-112308600D02*
X147061844Y-112015067D01*
X145686608Y-112308600D02*
X146768311Y-112308600D01*
X145669000Y-105918000D02*
X146301448Y-105918000D01*
X145580000Y-106007000D02*
X145669000Y-105918000D01*
X145580000Y-106500000D02*
X145580000Y-106007000D01*
X147701000Y-113269000D02*
X147701000Y-111850900D01*
X143980000Y-109400000D02*
X143980000Y-111089000D01*
X143980000Y-111089000D02*
X144651000Y-111760000D01*
X148904132Y-104263065D02*
X148976935Y-104263065D01*
X149985000Y-104267000D02*
X149479000Y-103761000D01*
X146827200Y-107934800D02*
X147639252Y-107934800D01*
X148976935Y-104263065D02*
X149479000Y-103761000D01*
X150598500Y-104267000D02*
X149985000Y-104267000D01*
X146230000Y-107950000D02*
X146812000Y-107950000D01*
X148726169Y-105460566D02*
X148903969Y-105282766D01*
X147639252Y-107934800D02*
X148726169Y-106847883D01*
X146812000Y-107950000D02*
X146827200Y-107934800D01*
X148726169Y-106847883D02*
X148726169Y-105460566D01*
X140843000Y-105410000D02*
X139192000Y-105410000D01*
X142583000Y-107150000D02*
X140843000Y-105410000D01*
X143330000Y-107150000D02*
X142583000Y-107150000D01*
X140842679Y-107792400D02*
X141359548Y-107792400D01*
X142693331Y-107550000D02*
X143330000Y-107550000D01*
X141359548Y-107792400D02*
X141664348Y-107487600D01*
X141664348Y-107487600D02*
X142630931Y-107487600D01*
X140685079Y-107950000D02*
X139192000Y-107950000D01*
X140685079Y-107950000D02*
X140842679Y-107792400D01*
X142630931Y-107487600D02*
X142693331Y-107550000D01*
X140566100Y-109243652D02*
X139215652Y-109243652D01*
X142720600Y-109169700D02*
X142897900Y-109347000D01*
X142720600Y-108848333D02*
X142720600Y-109169700D01*
X142818933Y-108750000D02*
X143330000Y-108750000D01*
X139215652Y-109243652D02*
X139192000Y-109220000D01*
X142720600Y-108848333D02*
X142818933Y-108750000D01*
X164087444Y-111036000D02*
X164140344Y-111088900D01*
X164140344Y-111088900D02*
X164329900Y-111088900D01*
X163764000Y-111036000D02*
X164087444Y-111036000D01*
D51*
X164592000Y-108204000D02*
X163816085Y-108204000D01*
D49*
X164619621Y-112099315D02*
X164620000Y-112098936D01*
X164329900Y-111088900D02*
X164620000Y-111379000D01*
D51*
X163813884Y-108206201D02*
X163652000Y-108044317D01*
X163652000Y-108044317D02*
X163652000Y-107048000D01*
D49*
X164620000Y-112098936D02*
X164620000Y-111379000D01*
D51*
X163816085Y-108204000D02*
X163813884Y-108206201D01*
D49*
X150598500Y-104767000D02*
X149485000Y-104767000D01*
X148421369Y-106721631D02*
X147593000Y-107550000D01*
X148731235Y-104773000D02*
X148421369Y-105082866D01*
X148421369Y-105082866D02*
X148421369Y-106721631D01*
X149479000Y-104773000D02*
X148731235Y-104773000D01*
X147593000Y-107550000D02*
X146230000Y-107550000D01*
X149485000Y-104767000D02*
X149479000Y-104773000D01*
D50*
X158844100Y-111543267D02*
X158529400Y-111228567D01*
X158219285Y-110390600D02*
X155884600Y-110390600D01*
D49*
X161662284Y-111546312D02*
X161556312Y-111546312D01*
D50*
X158529400Y-111228567D02*
X158529400Y-110700715D01*
D49*
X161556312Y-111546312D02*
X161036000Y-111026000D01*
X161864000Y-111036000D02*
X161046000Y-111036000D01*
X148581800Y-108849200D02*
X148338000Y-109093000D01*
X149870198Y-108849200D02*
X148581800Y-108849200D01*
X151519439Y-110490000D02*
X153972500Y-110490000D01*
D50*
X154912000Y-110490000D02*
X155448000Y-109954000D01*
X158529400Y-110700715D02*
X158219285Y-110390600D01*
D49*
X151325274Y-110295835D02*
X151519439Y-110490000D01*
D50*
X153972500Y-110490000D02*
X154912000Y-110490000D01*
D49*
X161046000Y-111036000D02*
X161036000Y-111026000D01*
D50*
X155884600Y-110390600D02*
X155448000Y-109954000D01*
D49*
X150280050Y-109259052D02*
X149870198Y-108849200D01*
X144380000Y-103270000D02*
X144380000Y-106500000D01*
X144653000Y-102997000D02*
X144380000Y-103270000D01*
X141416392Y-106680000D02*
X139192000Y-106680000D01*
X143980000Y-106007000D02*
X143980000Y-106500000D01*
X143370900Y-105918000D02*
X143891000Y-105918000D01*
X141423799Y-106672593D02*
X141416392Y-106680000D01*
X142701847Y-106587053D02*
X143370900Y-105918000D01*
X143891000Y-105918000D02*
X143980000Y-106007000D01*
X145160766Y-110702442D02*
X145160766Y-111184969D01*
X143497900Y-110490000D02*
X139192000Y-110490000D01*
X144780000Y-110321676D02*
X145160766Y-110702442D01*
X144780000Y-109400000D02*
X144780000Y-110321676D01*
X145180000Y-106500000D02*
X145180000Y-105518000D01*
X140716000Y-104140000D02*
X139192000Y-104140000D01*
X145180000Y-105518000D02*
X145415000Y-105283000D01*
X142011949Y-105435949D02*
X140716000Y-104140000D01*
X143897900Y-105435949D02*
X142011949Y-105435949D01*
X147318000Y-109093000D02*
X147318000Y-110109000D01*
X145180000Y-109400000D02*
X145180000Y-110290624D01*
X145559322Y-110669946D02*
X145958415Y-110669946D01*
X145180000Y-110290624D02*
X145559322Y-110669946D01*
X146519361Y-110109000D02*
X147318000Y-110109000D01*
X145958415Y-110669946D02*
X146519361Y-110109000D01*
X156800597Y-109225649D02*
X160861857Y-109225649D01*
X161508331Y-110236000D02*
X161864000Y-110236000D01*
X161282600Y-110010269D02*
X161508331Y-110236000D01*
X155125321Y-108485400D02*
X156060348Y-108485400D01*
X152689155Y-108858734D02*
X153014821Y-109184400D01*
X149698877Y-109575100D02*
X149698877Y-110090966D01*
X160861857Y-109225649D02*
X161282600Y-109646392D01*
X145580000Y-110008831D02*
X145580000Y-109400000D01*
X154426321Y-109184400D02*
X155125321Y-108485400D01*
X153014821Y-109184400D02*
X154426321Y-109184400D01*
X148353608Y-110657600D02*
X146734770Y-110657600D01*
X149262421Y-110527422D02*
X149132243Y-110657600D01*
X151346350Y-108858734D02*
X152689155Y-108858734D01*
X149698877Y-110090966D02*
X149262421Y-110527422D01*
X161282600Y-109646392D02*
X161282600Y-110010269D01*
X146734770Y-110657600D02*
X146693662Y-110616492D01*
X156060348Y-108485400D02*
X156800597Y-109225649D01*
X149132243Y-110657600D02*
X148353608Y-110657600D01*
X145758515Y-110187346D02*
X145580000Y-110008831D01*
X163764000Y-109436000D02*
X164225792Y-109436000D01*
X156159200Y-108153200D02*
X155026469Y-108153200D01*
X147032392Y-108544400D02*
X146826792Y-108750000D01*
X163914100Y-108920849D02*
X156926849Y-108920849D01*
X150040581Y-108544400D02*
X147032392Y-108544400D01*
X153141073Y-108879600D02*
X152638107Y-108376634D01*
X154300069Y-108879600D02*
X153141073Y-108879600D01*
X164225792Y-109436000D02*
X164481692Y-109691900D01*
X146826792Y-108750000D02*
X146230000Y-108750000D01*
X150290629Y-108294352D02*
X150040581Y-108544400D01*
X152638107Y-108376634D02*
X152506670Y-108376634D01*
X156926849Y-108920849D02*
X156159200Y-108153200D01*
X164481692Y-109691900D02*
X164719000Y-109691900D01*
X155026469Y-108153200D02*
X154300069Y-108879600D01*
X155175505Y-113703400D02*
X156397652Y-113703400D01*
X156702452Y-113398600D02*
X158271400Y-113398600D01*
X150367321Y-112308600D02*
X150876679Y-112308600D01*
X156397652Y-113703400D02*
X156702452Y-113398600D01*
X158271400Y-113398600D02*
X159750000Y-111920000D01*
X144380000Y-109400000D02*
X144380000Y-110661900D01*
X151216679Y-111968600D02*
X153440705Y-111968600D01*
X153440705Y-111968600D02*
X155175505Y-113703400D01*
X146679144Y-111505492D02*
X147061898Y-111505492D01*
X147198590Y-111368800D02*
X149426831Y-111368800D01*
X149426831Y-111368800D02*
X149427176Y-111368455D01*
X146447521Y-111737115D02*
X146679144Y-111505492D01*
X147061898Y-111505492D02*
X147198590Y-111368800D01*
X149427176Y-111368455D02*
X150367321Y-112308600D01*
X150876679Y-112308600D02*
X151216679Y-111968600D01*
X144380000Y-110661900D02*
X144462100Y-110744000D01*
X166495000Y-111379000D02*
X166411279Y-111379000D01*
X164266596Y-110784100D02*
X164118496Y-110636000D01*
X164118496Y-110636000D02*
X163764000Y-110636000D01*
X166411279Y-111379000D02*
X165816379Y-110784100D01*
X165816379Y-110784100D02*
X164266596Y-110784100D01*
X164180600Y-109836000D02*
X164519100Y-110174500D01*
X166372000Y-109220000D02*
X167515000Y-110363000D01*
X164519100Y-110174500D02*
X164918900Y-110174500D01*
X164918900Y-110174500D02*
X165873400Y-109220000D01*
X165873400Y-109220000D02*
X166372000Y-109220000D01*
X163764000Y-109836000D02*
X164180600Y-109836000D01*
X161864000Y-110636000D02*
X161477279Y-110636000D01*
X161477279Y-110636000D02*
X160823279Y-109982000D01*
X160823279Y-109982000D02*
X160784000Y-109982000D01*
X150761000Y-103104500D02*
X150761000Y-102235000D01*
X146795740Y-108350000D02*
X146230000Y-108350000D01*
X149883408Y-106222800D02*
X149814608Y-106291600D01*
X147765504Y-108239600D02*
X146906140Y-108239600D01*
X149713504Y-106291600D02*
X147765504Y-108239600D01*
X152261000Y-105905452D02*
X151943652Y-106222800D01*
X146906140Y-108239600D02*
X146795740Y-108350000D01*
X152261000Y-105429500D02*
X152261000Y-105905452D01*
X151943652Y-106222800D02*
X149883408Y-106222800D01*
X149814608Y-106291600D02*
X149713504Y-106291600D01*
X151761000Y-103104500D02*
X151761000Y-102235000D01*
X151261000Y-103104500D02*
X151261000Y-102235000D01*
G04 #@! TA.AperFunction,Conductor*
G36*
X129224146Y-102118093D02*
G01*
X129249866Y-102162642D01*
X129240933Y-102213300D01*
X129201528Y-102246365D01*
X129196473Y-102248005D01*
X129079529Y-102281428D01*
X128958280Y-102357930D01*
X128954735Y-102361943D01*
X128954736Y-102361943D01*
X128866923Y-102461372D01*
X128866921Y-102461375D01*
X128863377Y-102465388D01*
X128855916Y-102481280D01*
X128834651Y-102526571D01*
X128798182Y-102562849D01*
X128746926Y-102567197D01*
X128704867Y-102537582D01*
X128697104Y-102523387D01*
X128695444Y-102519379D01*
X128669986Y-102481280D01*
X128659720Y-102471014D01*
X128621623Y-102445558D01*
X128608198Y-102439997D01*
X128574637Y-102433321D01*
X128567316Y-102432600D01*
X128145459Y-102432600D01*
X128135302Y-102436297D01*
X128132200Y-102441669D01*
X128132200Y-102995541D01*
X128135897Y-103005698D01*
X128141269Y-103008800D01*
X128695141Y-103008800D01*
X128705298Y-103005103D01*
X128715763Y-102986978D01*
X128755168Y-102953913D01*
X128806608Y-102953913D01*
X128846013Y-102986978D01*
X128849716Y-102994284D01*
X128856720Y-103010203D01*
X128948970Y-103119948D01*
X128953429Y-103122916D01*
X128953430Y-103122917D01*
X129050223Y-103187348D01*
X129068313Y-103199390D01*
X129073425Y-103200987D01*
X129073427Y-103200988D01*
X129143763Y-103222962D01*
X129205157Y-103242142D01*
X129265130Y-103243242D01*
X129343137Y-103244672D01*
X129343139Y-103244672D01*
X129348499Y-103244770D01*
X129353670Y-103243360D01*
X129353672Y-103243360D01*
X129444694Y-103218544D01*
X129486817Y-103207060D01*
X129608991Y-103132045D01*
X129705200Y-103025754D01*
X129712735Y-103010203D01*
X129756050Y-102920800D01*
X129767710Y-102896733D01*
X129780234Y-102822292D01*
X129791014Y-102758222D01*
X129791015Y-102758215D01*
X129791496Y-102755354D01*
X129791647Y-102743000D01*
X129791235Y-102740121D01*
X129772082Y-102606379D01*
X129772081Y-102606376D01*
X129771323Y-102601082D01*
X129769108Y-102596210D01*
X129769107Y-102596207D01*
X129720967Y-102490330D01*
X129711984Y-102470572D01*
X129662219Y-102412817D01*
X129621894Y-102366017D01*
X129621891Y-102366014D01*
X129618400Y-102361963D01*
X129611360Y-102357400D01*
X129502588Y-102286897D01*
X129502587Y-102286896D01*
X129498095Y-102283985D01*
X129376923Y-102247747D01*
X129335653Y-102217041D01*
X129323776Y-102166992D01*
X129346849Y-102121017D01*
X129398470Y-102100500D01*
X141035400Y-102100500D01*
X141083738Y-102118093D01*
X141109458Y-102162642D01*
X141110600Y-102175700D01*
X141110600Y-102907541D01*
X141114297Y-102917698D01*
X141119669Y-102920800D01*
X143102141Y-102920800D01*
X143112298Y-102917103D01*
X143115400Y-102911731D01*
X143115400Y-102175700D01*
X143132993Y-102127362D01*
X143177542Y-102101642D01*
X143190600Y-102100500D01*
X143953877Y-102100500D01*
X144002215Y-102118093D01*
X144027935Y-102162642D01*
X144019002Y-102213300D01*
X144000997Y-102234306D01*
X143950781Y-102274680D01*
X143950774Y-102274687D01*
X143947912Y-102276988D01*
X143821489Y-102427653D01*
X143819718Y-102430875D01*
X143819717Y-102430876D01*
X143760484Y-102538621D01*
X143726739Y-102600004D01*
X143667269Y-102787476D01*
X143645345Y-102982930D01*
X143645653Y-102986598D01*
X143645653Y-102986601D01*
X143660966Y-103168957D01*
X143661803Y-103178919D01*
X143716015Y-103367979D01*
X143805916Y-103542908D01*
X143808201Y-103545791D01*
X143830481Y-103573902D01*
X143846718Y-103622713D01*
X143827781Y-103670540D01*
X143783310Y-103694886D01*
X143770594Y-103696900D01*
X143655749Y-103755417D01*
X143564608Y-103846558D01*
X143561920Y-103851834D01*
X143561919Y-103851835D01*
X143540788Y-103893307D01*
X143506091Y-103961403D01*
X143500605Y-103996039D01*
X143494729Y-104033144D01*
X143485928Y-104088709D01*
X143488423Y-104104460D01*
X143491963Y-104126812D01*
X143482148Y-104177307D01*
X143470863Y-104191750D01*
X142971635Y-104690977D01*
X142925015Y-104712717D01*
X142918461Y-104713003D01*
X142577388Y-104713003D01*
X142529050Y-104695410D01*
X142524214Y-104690977D01*
X142442048Y-104608811D01*
X142432544Y-104603968D01*
X142369605Y-104571899D01*
X142327203Y-104550294D01*
X142199897Y-104530131D01*
X142072591Y-104550294D01*
X142030189Y-104571899D01*
X141967251Y-104603968D01*
X141957746Y-104608811D01*
X141866605Y-104699952D01*
X141863917Y-104705228D01*
X141863916Y-104705229D01*
X141850067Y-104732410D01*
X141827788Y-104776135D01*
X141823587Y-104784379D01*
X141785966Y-104819461D01*
X141734596Y-104822153D01*
X141703409Y-104803413D01*
X141333441Y-104433444D01*
X140883630Y-103983633D01*
X140880920Y-103980778D01*
X140864255Y-103962270D01*
X140853670Y-103950514D01*
X140831053Y-103940444D01*
X140820697Y-103934821D01*
X140819376Y-103933963D01*
X140799936Y-103921339D01*
X140791412Y-103919989D01*
X140772587Y-103914413D01*
X140771920Y-103914116D01*
X140764697Y-103910900D01*
X140739946Y-103910900D01*
X140728182Y-103909974D01*
X140711548Y-103907339D01*
X140711546Y-103907339D01*
X140703742Y-103906103D01*
X140696110Y-103908148D01*
X140696109Y-103908148D01*
X140695401Y-103908338D01*
X140675938Y-103910900D01*
X140414508Y-103910900D01*
X140366170Y-103893307D01*
X140346625Y-103858316D01*
X141110600Y-103858316D01*
X141111321Y-103865637D01*
X141117997Y-103899198D01*
X141123558Y-103912623D01*
X141149014Y-103950720D01*
X141159280Y-103960986D01*
X141197377Y-103986442D01*
X141210802Y-103992003D01*
X141244363Y-103998679D01*
X141251684Y-103999400D01*
X142023541Y-103999400D01*
X142033698Y-103995703D01*
X142036800Y-103990331D01*
X142036800Y-103986141D01*
X142189200Y-103986141D01*
X142192897Y-103996298D01*
X142198269Y-103999400D01*
X142974316Y-103999400D01*
X142981637Y-103998679D01*
X143015198Y-103992003D01*
X143028623Y-103986442D01*
X143066720Y-103960986D01*
X143076986Y-103950720D01*
X143102442Y-103912623D01*
X143108003Y-103899198D01*
X143114679Y-103865637D01*
X143115400Y-103858316D01*
X143115400Y-103086459D01*
X143111703Y-103076302D01*
X143106331Y-103073200D01*
X142202459Y-103073200D01*
X142192302Y-103076897D01*
X142189200Y-103082269D01*
X142189200Y-103986141D01*
X142036800Y-103986141D01*
X142036800Y-103086459D01*
X142033103Y-103076302D01*
X142027731Y-103073200D01*
X141123859Y-103073200D01*
X141113702Y-103076897D01*
X141110600Y-103082269D01*
X141110600Y-103858316D01*
X140346625Y-103858316D01*
X140340111Y-103846653D01*
X140333966Y-103804905D01*
X140318246Y-103772887D01*
X140281257Y-103697550D01*
X140281256Y-103697549D01*
X140278519Y-103691974D01*
X140274124Y-103687586D01*
X140274122Y-103687584D01*
X140214350Y-103627917D01*
X140189482Y-103603092D01*
X140183898Y-103600363D01*
X140183896Y-103600361D01*
X140105446Y-103562014D01*
X140076454Y-103547843D01*
X140037146Y-103542108D01*
X140005518Y-103537494D01*
X140005513Y-103537494D01*
X140002815Y-103537100D01*
X139194812Y-103537100D01*
X138381186Y-103537101D01*
X138306905Y-103548034D01*
X138301661Y-103550609D01*
X138301660Y-103550609D01*
X138199550Y-103600743D01*
X138199549Y-103600744D01*
X138193974Y-103603481D01*
X138189586Y-103607876D01*
X138189584Y-103607878D01*
X138162596Y-103634914D01*
X138105092Y-103692518D01*
X138102363Y-103698102D01*
X138102361Y-103698104D01*
X138070023Y-103764262D01*
X138049843Y-103805546D01*
X138044471Y-103842368D01*
X138039865Y-103873943D01*
X138039100Y-103879185D01*
X138039101Y-104400814D01*
X138050034Y-104475095D01*
X138052609Y-104480339D01*
X138052609Y-104480340D01*
X138102172Y-104581286D01*
X138105481Y-104588026D01*
X138109876Y-104592414D01*
X138109878Y-104592416D01*
X138133782Y-104616278D01*
X138194518Y-104676908D01*
X138252457Y-104705229D01*
X138256964Y-104707432D01*
X138292665Y-104744466D01*
X138296209Y-104795784D01*
X138265937Y-104837373D01*
X138257082Y-104842496D01*
X138199552Y-104870742D01*
X138199551Y-104870743D01*
X138193974Y-104873481D01*
X138189586Y-104877876D01*
X138189584Y-104877878D01*
X138165181Y-104902324D01*
X138105092Y-104962518D01*
X138102363Y-104968102D01*
X138102361Y-104968104D01*
X138064823Y-105044900D01*
X138049843Y-105075546D01*
X138049001Y-105081320D01*
X138039685Y-105145177D01*
X138039100Y-105149185D01*
X138039101Y-105670814D01*
X138050034Y-105745095D01*
X138052609Y-105750339D01*
X138052609Y-105750340D01*
X138102431Y-105851813D01*
X138105481Y-105858026D01*
X138109876Y-105862414D01*
X138109878Y-105862416D01*
X138133063Y-105885560D01*
X138194518Y-105946908D01*
X138243339Y-105970772D01*
X138256964Y-105977432D01*
X138292665Y-106014466D01*
X138296209Y-106065784D01*
X138265937Y-106107373D01*
X138257082Y-106112496D01*
X138199552Y-106140742D01*
X138199551Y-106140743D01*
X138193974Y-106143481D01*
X138189586Y-106147876D01*
X138189584Y-106147878D01*
X138155767Y-106181755D01*
X138105092Y-106232518D01*
X138102363Y-106238102D01*
X138102361Y-106238104D01*
X138081499Y-106280784D01*
X138049843Y-106345546D01*
X138047228Y-106363471D01*
X138039909Y-106413642D01*
X138039100Y-106419185D01*
X138039101Y-106940814D01*
X138050034Y-107015095D01*
X138052609Y-107020339D01*
X138052609Y-107020340D01*
X138084105Y-107084488D01*
X138105481Y-107128026D01*
X138109876Y-107132414D01*
X138109878Y-107132416D01*
X138148958Y-107171427D01*
X138194518Y-107216908D01*
X138256964Y-107247432D01*
X138292665Y-107284466D01*
X138296209Y-107335784D01*
X138265937Y-107377373D01*
X138257082Y-107382496D01*
X138199552Y-107410742D01*
X138199551Y-107410743D01*
X138193974Y-107413481D01*
X138189586Y-107417876D01*
X138189584Y-107417878D01*
X138173265Y-107434226D01*
X138105092Y-107502518D01*
X138102363Y-107508102D01*
X138102361Y-107508104D01*
X138075381Y-107563300D01*
X138049843Y-107615546D01*
X138049001Y-107621320D01*
X138043583Y-107658459D01*
X138039100Y-107689185D01*
X138039101Y-108210814D01*
X138050034Y-108285095D01*
X138052609Y-108290339D01*
X138052609Y-108290340D01*
X138097633Y-108382041D01*
X138105481Y-108398026D01*
X138109876Y-108402414D01*
X138109878Y-108402416D01*
X138148404Y-108440874D01*
X138194518Y-108486908D01*
X138240156Y-108509216D01*
X138256964Y-108517432D01*
X138292665Y-108554466D01*
X138296209Y-108605784D01*
X138265937Y-108647373D01*
X138257082Y-108652496D01*
X138199552Y-108680742D01*
X138199551Y-108680743D01*
X138193974Y-108683481D01*
X138189586Y-108687876D01*
X138189584Y-108687878D01*
X138163009Y-108714500D01*
X138105092Y-108772518D01*
X138102363Y-108778102D01*
X138102361Y-108778104D01*
X138066770Y-108850917D01*
X138049843Y-108885546D01*
X138049001Y-108891320D01*
X138040118Y-108952209D01*
X138039100Y-108959185D01*
X138039101Y-109480814D01*
X138050034Y-109555095D01*
X138052609Y-109560339D01*
X138052609Y-109560340D01*
X138102154Y-109661249D01*
X138105481Y-109668026D01*
X138109876Y-109672414D01*
X138109878Y-109672416D01*
X138147844Y-109710315D01*
X138194518Y-109756908D01*
X138256311Y-109787113D01*
X138256964Y-109787432D01*
X138292665Y-109824466D01*
X138296209Y-109875784D01*
X138265937Y-109917373D01*
X138257082Y-109922496D01*
X138199552Y-109950742D01*
X138199551Y-109950743D01*
X138193974Y-109953481D01*
X138189586Y-109957876D01*
X138189584Y-109957878D01*
X138164176Y-109983331D01*
X138105092Y-110042518D01*
X138102363Y-110048102D01*
X138102361Y-110048104D01*
X138071483Y-110111275D01*
X138049843Y-110155546D01*
X138047405Y-110172256D01*
X138040060Y-110222607D01*
X138039100Y-110229185D01*
X138039101Y-110750814D01*
X138050034Y-110825095D01*
X138052609Y-110830339D01*
X138052609Y-110830340D01*
X138100904Y-110928703D01*
X138105481Y-110938026D01*
X138109876Y-110942414D01*
X138109878Y-110942416D01*
X138133065Y-110965562D01*
X138194518Y-111026908D01*
X138257533Y-111057710D01*
X138293234Y-111094744D01*
X138296778Y-111146061D01*
X138266506Y-111187651D01*
X138257651Y-111192774D01*
X138199845Y-111221155D01*
X138189880Y-111228289D01*
X138109896Y-111308415D01*
X138102775Y-111318397D01*
X138052891Y-111420449D01*
X138049487Y-111431463D01*
X138039994Y-111496530D01*
X138039600Y-111501963D01*
X138039600Y-111670541D01*
X138043297Y-111680698D01*
X138048669Y-111683800D01*
X140331140Y-111683800D01*
X140341297Y-111680103D01*
X140344399Y-111674731D01*
X140344399Y-111501982D01*
X140343998Y-111496512D01*
X140334331Y-111430832D01*
X140330905Y-111419807D01*
X140280845Y-111317845D01*
X140273711Y-111307880D01*
X140193585Y-111227896D01*
X140183603Y-111220775D01*
X140126467Y-111192846D01*
X140090766Y-111155812D01*
X140087223Y-111104494D01*
X140117496Y-111062905D01*
X140126350Y-111057783D01*
X140184448Y-111029258D01*
X140184449Y-111029257D01*
X140190026Y-111026519D01*
X140194414Y-111022124D01*
X140194416Y-111022122D01*
X140250187Y-110966253D01*
X140278908Y-110937482D01*
X140281637Y-110931898D01*
X140281639Y-110931896D01*
X140331595Y-110829695D01*
X140334157Y-110824454D01*
X140339232Y-110789665D01*
X140340140Y-110783444D01*
X140364527Y-110738152D01*
X140414552Y-110719100D01*
X141281520Y-110719100D01*
X141329858Y-110736693D01*
X141355578Y-110781242D01*
X141348523Y-110828441D01*
X141344672Y-110836000D01*
X141340191Y-110844794D01*
X141334182Y-110882735D01*
X141321064Y-110965562D01*
X141320028Y-110972100D01*
X141320954Y-110977947D01*
X141326888Y-111015411D01*
X141340191Y-111099406D01*
X141358750Y-111135830D01*
X141391070Y-111199260D01*
X141398708Y-111214251D01*
X141480874Y-111296417D01*
X141502614Y-111343037D01*
X141502900Y-111349591D01*
X141502900Y-112014956D01*
X141485307Y-112063294D01*
X141480874Y-112068130D01*
X140770129Y-112778874D01*
X140723509Y-112800614D01*
X140716955Y-112800900D01*
X140414508Y-112800900D01*
X140366170Y-112783307D01*
X140340111Y-112736653D01*
X140333966Y-112694905D01*
X140310280Y-112646662D01*
X140281257Y-112587550D01*
X140281256Y-112587549D01*
X140278519Y-112581974D01*
X140274124Y-112577586D01*
X140274122Y-112577584D01*
X140227521Y-112531065D01*
X140189482Y-112493092D01*
X140126467Y-112462290D01*
X140090766Y-112425256D01*
X140087222Y-112373939D01*
X140117494Y-112332349D01*
X140126349Y-112327226D01*
X140184155Y-112298845D01*
X140194120Y-112291711D01*
X140274104Y-112211585D01*
X140281225Y-112201603D01*
X140331109Y-112099551D01*
X140334513Y-112088537D01*
X140344006Y-112023470D01*
X140344400Y-112018037D01*
X140344400Y-111849459D01*
X140340703Y-111839302D01*
X140335331Y-111836200D01*
X138052860Y-111836200D01*
X138042703Y-111839897D01*
X138039601Y-111845269D01*
X138039601Y-112018018D01*
X138040002Y-112023488D01*
X138049669Y-112089168D01*
X138053095Y-112100193D01*
X138103155Y-112202155D01*
X138110289Y-112212120D01*
X138190415Y-112292104D01*
X138200397Y-112299225D01*
X138257533Y-112327154D01*
X138293234Y-112364188D01*
X138296777Y-112415506D01*
X138266504Y-112457095D01*
X138257650Y-112462217D01*
X138199552Y-112490742D01*
X138199551Y-112490743D01*
X138193974Y-112493481D01*
X138189586Y-112497876D01*
X138189584Y-112497878D01*
X138158571Y-112528946D01*
X138105092Y-112582518D01*
X138102363Y-112588102D01*
X138102361Y-112588104D01*
X138075896Y-112642247D01*
X138049843Y-112695546D01*
X138045496Y-112725341D01*
X138040009Y-112762957D01*
X138039100Y-112769185D01*
X138039101Y-113290814D01*
X138050034Y-113365095D01*
X138052609Y-113370339D01*
X138052609Y-113370340D01*
X138095327Y-113457344D01*
X138105481Y-113478026D01*
X138109876Y-113482414D01*
X138109878Y-113482416D01*
X138149839Y-113522306D01*
X138194518Y-113566908D01*
X138200102Y-113569637D01*
X138200104Y-113569639D01*
X138265642Y-113601674D01*
X138307546Y-113622157D01*
X138341449Y-113627103D01*
X138378482Y-113632506D01*
X138378487Y-113632506D01*
X138381185Y-113632900D01*
X139189188Y-113632900D01*
X140002814Y-113632899D01*
X140077095Y-113621966D01*
X140083246Y-113618946D01*
X140184450Y-113569257D01*
X140184451Y-113569256D01*
X140190026Y-113566519D01*
X140194414Y-113562124D01*
X140194416Y-113562122D01*
X140234306Y-113522161D01*
X140278908Y-113477482D01*
X140281637Y-113471898D01*
X140281639Y-113471896D01*
X140331595Y-113369695D01*
X140334157Y-113364454D01*
X140340140Y-113323444D01*
X140364527Y-113278152D01*
X140414552Y-113259100D01*
X140835040Y-113259100D01*
X140838977Y-113259203D01*
X140879639Y-113261334D01*
X140902750Y-113252463D01*
X140914042Y-113249118D01*
X140938265Y-113243969D01*
X140944658Y-113239324D01*
X140944660Y-113239323D01*
X140945252Y-113238893D01*
X140962502Y-113229527D01*
X140963184Y-113229265D01*
X140963185Y-113229264D01*
X140970564Y-113226432D01*
X140988060Y-113208936D01*
X140997032Y-113201272D01*
X141010665Y-113191367D01*
X141017058Y-113186722D01*
X141021376Y-113179243D01*
X141033327Y-113163669D01*
X141459760Y-112737237D01*
X141888367Y-112308630D01*
X141891222Y-112305920D01*
X141898476Y-112299388D01*
X141921486Y-112278670D01*
X141931551Y-112256064D01*
X141937179Y-112245698D01*
X141946359Y-112231562D01*
X141950662Y-112224936D01*
X141951898Y-112217132D01*
X141951899Y-112217129D01*
X141952014Y-112216404D01*
X141957589Y-112197584D01*
X141957883Y-112196923D01*
X141957883Y-112196921D01*
X141961100Y-112189697D01*
X141961100Y-112164946D01*
X141962026Y-112153183D01*
X141964661Y-112136548D01*
X141964661Y-112136546D01*
X141965897Y-112128741D01*
X141963662Y-112120399D01*
X141961100Y-112100937D01*
X141961100Y-111349591D01*
X141978693Y-111301253D01*
X141983126Y-111296417D01*
X142065292Y-111214251D01*
X142072931Y-111199260D01*
X142105250Y-111135830D01*
X142123809Y-111099406D01*
X142137112Y-111015411D01*
X142143046Y-110977947D01*
X142143972Y-110972100D01*
X142142937Y-110965562D01*
X142129818Y-110882735D01*
X142123809Y-110844794D01*
X142119328Y-110836000D01*
X142115477Y-110828441D01*
X142109207Y-110777384D01*
X142137223Y-110734243D01*
X142182480Y-110719100D01*
X143120409Y-110719100D01*
X143168747Y-110736693D01*
X143173583Y-110741126D01*
X143255749Y-110823292D01*
X143261025Y-110825980D01*
X143261026Y-110825981D01*
X143289162Y-110840317D01*
X143370594Y-110881809D01*
X143418213Y-110889351D01*
X143479426Y-110899046D01*
X143497900Y-110901972D01*
X143516375Y-110899046D01*
X143577587Y-110889351D01*
X143625206Y-110881809D01*
X143630480Y-110879121D01*
X143630482Y-110879121D01*
X143641559Y-110873477D01*
X143692616Y-110867207D01*
X143735757Y-110895223D01*
X143750900Y-110940480D01*
X143750900Y-111081040D01*
X143750797Y-111084976D01*
X143748666Y-111125639D01*
X143757537Y-111148750D01*
X143760882Y-111160042D01*
X143766031Y-111184265D01*
X143770676Y-111190658D01*
X143770677Y-111190660D01*
X143771107Y-111191252D01*
X143780473Y-111208502D01*
X143780735Y-111209184D01*
X143783568Y-111216564D01*
X143801064Y-111234060D01*
X143808727Y-111243031D01*
X143823278Y-111263058D01*
X143830123Y-111267010D01*
X143830757Y-111267376D01*
X143846331Y-111279327D01*
X144206074Y-111639070D01*
X144227814Y-111685690D01*
X144228100Y-111692244D01*
X144228100Y-111987772D01*
X144231087Y-112012876D01*
X144274624Y-112110893D01*
X144279535Y-112115795D01*
X144279536Y-112115797D01*
X144343854Y-112180002D01*
X144350529Y-112186665D01*
X144356879Y-112189472D01*
X144356880Y-112189473D01*
X144395687Y-112206629D01*
X144448621Y-112230031D01*
X144454239Y-112230686D01*
X144471066Y-112232648D01*
X144471067Y-112232648D01*
X144473228Y-112232900D01*
X144675555Y-112232900D01*
X144723893Y-112250493D01*
X144749613Y-112295042D01*
X144740680Y-112345700D01*
X144728732Y-112361271D01*
X144500445Y-112589559D01*
X144453826Y-112611298D01*
X144436099Y-112610595D01*
X144436085Y-112610702D01*
X144434878Y-112610547D01*
X144434811Y-112610544D01*
X144434660Y-112610519D01*
X144434644Y-112610517D01*
X144433206Y-112610275D01*
X144409249Y-112608126D01*
X144407787Y-112608108D01*
X144407785Y-112608108D01*
X144403078Y-112608051D01*
X144396907Y-112607975D01*
X144372900Y-112609537D01*
X144360604Y-112611298D01*
X144353293Y-112612345D01*
X144342632Y-112613105D01*
X143956310Y-112613105D01*
X143943834Y-112612063D01*
X143935108Y-112610595D01*
X143933206Y-112610275D01*
X143931757Y-112610145D01*
X143931749Y-112610144D01*
X143921227Y-112609200D01*
X143909249Y-112608126D01*
X143907787Y-112608108D01*
X143907785Y-112608108D01*
X143903078Y-112608051D01*
X143896907Y-112607975D01*
X143895447Y-112608070D01*
X143874357Y-112609442D01*
X143874352Y-112609443D01*
X143872900Y-112609537D01*
X143871478Y-112609741D01*
X143871465Y-112609742D01*
X143733762Y-112629463D01*
X143731123Y-112629841D01*
X143688698Y-112642247D01*
X143686263Y-112643354D01*
X143686258Y-112643356D01*
X143560755Y-112700419D01*
X143560750Y-112700422D01*
X143558319Y-112701527D01*
X143521082Y-112725341D01*
X143487794Y-112754024D01*
X143414608Y-112817084D01*
X143414605Y-112817087D01*
X143412581Y-112818831D01*
X143410825Y-112820844D01*
X143410821Y-112820848D01*
X143385283Y-112850123D01*
X143385280Y-112850127D01*
X143383524Y-112852140D01*
X143305624Y-112972325D01*
X143304505Y-112974747D01*
X143304501Y-112974754D01*
X143298930Y-112986813D01*
X143287084Y-113012450D01*
X143286318Y-113015011D01*
X143286317Y-113015014D01*
X143255129Y-113119304D01*
X143246048Y-113149668D01*
X143239515Y-113193383D01*
X143239401Y-113212097D01*
X143238724Y-113322900D01*
X143238640Y-113336604D01*
X143238965Y-113338979D01*
X143239105Y-113343273D01*
X143239105Y-113769000D01*
X143250972Y-113828658D01*
X143255086Y-113834816D01*
X143255087Y-113834817D01*
X143264819Y-113849381D01*
X143284766Y-113879234D01*
X143290923Y-113883348D01*
X143329183Y-113908913D01*
X143329184Y-113908914D01*
X143335342Y-113913028D01*
X143342606Y-113914473D01*
X143389224Y-113923746D01*
X143395000Y-113924895D01*
X143838164Y-113924895D01*
X143849734Y-113925790D01*
X143864846Y-113928143D01*
X143867514Y-113928176D01*
X143867519Y-113928176D01*
X143892266Y-113928478D01*
X143909042Y-113928683D01*
X143911703Y-113928335D01*
X143911704Y-113928335D01*
X143933155Y-113925530D01*
X143942905Y-113924895D01*
X144338164Y-113924895D01*
X144349734Y-113925790D01*
X144364846Y-113928143D01*
X144367514Y-113928176D01*
X144367519Y-113928176D01*
X144392266Y-113928478D01*
X144409042Y-113928683D01*
X144411703Y-113928335D01*
X144411704Y-113928335D01*
X144433155Y-113925530D01*
X144442905Y-113924895D01*
X144895000Y-113924895D01*
X144900777Y-113923746D01*
X144947394Y-113914473D01*
X144954658Y-113913028D01*
X144960816Y-113908914D01*
X144960817Y-113908913D01*
X144999077Y-113883348D01*
X145005234Y-113879234D01*
X145025181Y-113849381D01*
X145034913Y-113834817D01*
X145034914Y-113834816D01*
X145039028Y-113828658D01*
X145050895Y-113769000D01*
X145050895Y-113277898D01*
X145050908Y-113276520D01*
X145052089Y-113212097D01*
X145052089Y-113212096D01*
X145052138Y-113209421D01*
X145046674Y-113165558D01*
X145009001Y-113027378D01*
X144991447Y-112986813D01*
X144931093Y-112888516D01*
X144920793Y-112838117D01*
X144942003Y-112795994D01*
X145178271Y-112559726D01*
X145224891Y-112537986D01*
X145231445Y-112537700D01*
X146760351Y-112537700D01*
X146764288Y-112537803D01*
X146804950Y-112539934D01*
X146828061Y-112531063D01*
X146839353Y-112527718D01*
X146863576Y-112522569D01*
X146869969Y-112517924D01*
X146869971Y-112517923D01*
X146870563Y-112517493D01*
X146887813Y-112508127D01*
X146888495Y-112507865D01*
X146888496Y-112507864D01*
X146895875Y-112505032D01*
X146913371Y-112487536D01*
X146922343Y-112479872D01*
X146935976Y-112469967D01*
X146942369Y-112465322D01*
X146946687Y-112457843D01*
X146958638Y-112442269D01*
X146958803Y-112442104D01*
X147005423Y-112420364D01*
X147023741Y-112421004D01*
X147061844Y-112427039D01*
X147189150Y-112406876D01*
X147272929Y-112364188D01*
X147298718Y-112351048D01*
X147298719Y-112351047D01*
X147303995Y-112348359D01*
X147343526Y-112308828D01*
X147390146Y-112287088D01*
X147439833Y-112300402D01*
X147469338Y-112342539D01*
X147471900Y-112362002D01*
X147471900Y-112538181D01*
X147454307Y-112586519D01*
X147407361Y-112612622D01*
X147287123Y-112629841D01*
X147244698Y-112642247D01*
X147242263Y-112643354D01*
X147242258Y-112643356D01*
X147116755Y-112700419D01*
X147116750Y-112700422D01*
X147114319Y-112701527D01*
X147077082Y-112725341D01*
X147043794Y-112754024D01*
X146970608Y-112817084D01*
X146970605Y-112817087D01*
X146968581Y-112818831D01*
X146966825Y-112820844D01*
X146966821Y-112820848D01*
X146941283Y-112850123D01*
X146941280Y-112850127D01*
X146939524Y-112852140D01*
X146861624Y-112972325D01*
X146860505Y-112974747D01*
X146860501Y-112974754D01*
X146854930Y-112986813D01*
X146843084Y-113012450D01*
X146842318Y-113015011D01*
X146842317Y-113015014D01*
X146811129Y-113119304D01*
X146802048Y-113149668D01*
X146795515Y-113193383D01*
X146795401Y-113212097D01*
X146794724Y-113322900D01*
X146794640Y-113336604D01*
X146794965Y-113338979D01*
X146795105Y-113343273D01*
X146795105Y-113769000D01*
X146806972Y-113828658D01*
X146811086Y-113834816D01*
X146811087Y-113834817D01*
X146820819Y-113849381D01*
X146840766Y-113879234D01*
X146846923Y-113883348D01*
X146885183Y-113908913D01*
X146885184Y-113908914D01*
X146891342Y-113913028D01*
X146898606Y-113914473D01*
X146945224Y-113923746D01*
X146951000Y-113924895D01*
X147394164Y-113924895D01*
X147405734Y-113925790D01*
X147420846Y-113928143D01*
X147423514Y-113928176D01*
X147423519Y-113928176D01*
X147448266Y-113928478D01*
X147465042Y-113928683D01*
X147467703Y-113928335D01*
X147467704Y-113928335D01*
X147489155Y-113925530D01*
X147498905Y-113924895D01*
X147894164Y-113924895D01*
X147905734Y-113925790D01*
X147920846Y-113928143D01*
X147923514Y-113928176D01*
X147923519Y-113928176D01*
X147948266Y-113928478D01*
X147965042Y-113928683D01*
X147967703Y-113928335D01*
X147967704Y-113928335D01*
X147989155Y-113925530D01*
X147998905Y-113924895D01*
X148451000Y-113924895D01*
X148456777Y-113923746D01*
X148503394Y-113914473D01*
X148510658Y-113913028D01*
X148516816Y-113908914D01*
X148516817Y-113908913D01*
X148555077Y-113883348D01*
X148561234Y-113879234D01*
X148581181Y-113849381D01*
X148590913Y-113834817D01*
X148590914Y-113834816D01*
X148595028Y-113828658D01*
X148606895Y-113769000D01*
X148606895Y-113277898D01*
X148606908Y-113276520D01*
X148608089Y-113212097D01*
X148608089Y-113212096D01*
X148608138Y-113209421D01*
X148602674Y-113165558D01*
X148565001Y-113027378D01*
X148547447Y-112986813D01*
X148472507Y-112864761D01*
X148470802Y-112862708D01*
X148470799Y-112862703D01*
X148445980Y-112832808D01*
X148444274Y-112830753D01*
X148386960Y-112778874D01*
X148340079Y-112736439D01*
X148340076Y-112736437D01*
X148338090Y-112734639D01*
X148301444Y-112709922D01*
X148299040Y-112708757D01*
X148299036Y-112708755D01*
X148230885Y-112675737D01*
X148172552Y-112647475D01*
X148151498Y-112640756D01*
X148132993Y-112634850D01*
X148132987Y-112634849D01*
X148130444Y-112634037D01*
X147992823Y-112610884D01*
X147948075Y-112585515D01*
X147930100Y-112536726D01*
X147930100Y-112228392D01*
X147947693Y-112180054D01*
X147952126Y-112175218D01*
X147977778Y-112149566D01*
X148024398Y-112127826D01*
X148074085Y-112141140D01*
X148084126Y-112149566D01*
X148118752Y-112184192D01*
X148124028Y-112186880D01*
X148124029Y-112186881D01*
X148145824Y-112197986D01*
X148233597Y-112242709D01*
X148239444Y-112243635D01*
X148325205Y-112257218D01*
X148360903Y-112262872D01*
X148396602Y-112257218D01*
X148482362Y-112243635D01*
X148488209Y-112242709D01*
X148575982Y-112197986D01*
X148597777Y-112186881D01*
X148597778Y-112186880D01*
X148603054Y-112184192D01*
X148685220Y-112102026D01*
X148731840Y-112080286D01*
X148738394Y-112080000D01*
X149352525Y-112080000D01*
X149400863Y-112097593D01*
X149405699Y-112102026D01*
X149917549Y-112613877D01*
X149917551Y-112613878D01*
X150348256Y-113044583D01*
X150369996Y-113091203D01*
X150367129Y-113119300D01*
X150358048Y-113149668D01*
X150351515Y-113193383D01*
X150351401Y-113212097D01*
X150350724Y-113322900D01*
X150350640Y-113336604D01*
X150350965Y-113338979D01*
X150351105Y-113343273D01*
X150351105Y-113769000D01*
X150362972Y-113828658D01*
X150367086Y-113834816D01*
X150367087Y-113834817D01*
X150376819Y-113849381D01*
X150396766Y-113879234D01*
X150402923Y-113883348D01*
X150441183Y-113908913D01*
X150441184Y-113908914D01*
X150447342Y-113913028D01*
X150454606Y-113914473D01*
X150501224Y-113923746D01*
X150507000Y-113924895D01*
X150950164Y-113924895D01*
X150961734Y-113925790D01*
X150976846Y-113928143D01*
X150979514Y-113928176D01*
X150979519Y-113928176D01*
X151004266Y-113928478D01*
X151021042Y-113928683D01*
X151023703Y-113928335D01*
X151023704Y-113928335D01*
X151045155Y-113925530D01*
X151054905Y-113924895D01*
X151450164Y-113924895D01*
X151461734Y-113925790D01*
X151476846Y-113928143D01*
X151479514Y-113928176D01*
X151479519Y-113928176D01*
X151504266Y-113928478D01*
X151521042Y-113928683D01*
X151523703Y-113928335D01*
X151523704Y-113928335D01*
X151545155Y-113925530D01*
X151554905Y-113924895D01*
X152007000Y-113924895D01*
X152012777Y-113923746D01*
X152059394Y-113914473D01*
X152066658Y-113913028D01*
X152072816Y-113908914D01*
X152072817Y-113908913D01*
X152111077Y-113883348D01*
X152117234Y-113879234D01*
X152137181Y-113849381D01*
X152146913Y-113834817D01*
X152146914Y-113834816D01*
X152151028Y-113828658D01*
X152162895Y-113769000D01*
X152162895Y-113277898D01*
X152162908Y-113276520D01*
X152164089Y-113212097D01*
X152164089Y-113212096D01*
X152164138Y-113209421D01*
X152158674Y-113165558D01*
X152121001Y-113027378D01*
X152103447Y-112986813D01*
X152028507Y-112864761D01*
X152026802Y-112862708D01*
X152026799Y-112862703D01*
X152001980Y-112832808D01*
X152000274Y-112830753D01*
X151942960Y-112778874D01*
X151896079Y-112736439D01*
X151896076Y-112736437D01*
X151894090Y-112734639D01*
X151857444Y-112709922D01*
X151855040Y-112708757D01*
X151855036Y-112708755D01*
X151786885Y-112675737D01*
X151728552Y-112647475D01*
X151707498Y-112640756D01*
X151688993Y-112634850D01*
X151688987Y-112634849D01*
X151686444Y-112634037D01*
X151545206Y-112610275D01*
X151543757Y-112610145D01*
X151543749Y-112610144D01*
X151533227Y-112609200D01*
X151521249Y-112608126D01*
X151519787Y-112608108D01*
X151519785Y-112608108D01*
X151515078Y-112608051D01*
X151508907Y-112607975D01*
X151484900Y-112609537D01*
X151472604Y-112611298D01*
X151465293Y-112612345D01*
X151454632Y-112613105D01*
X151078774Y-112613105D01*
X151030436Y-112595512D01*
X151004716Y-112550963D01*
X151013649Y-112500305D01*
X151034571Y-112477068D01*
X151044343Y-112469968D01*
X151044344Y-112469967D01*
X151050737Y-112465322D01*
X151055055Y-112457843D01*
X151067006Y-112442269D01*
X151289549Y-112219726D01*
X151336169Y-112197986D01*
X151342723Y-112197700D01*
X153314661Y-112197700D01*
X153362999Y-112215293D01*
X153367835Y-112219726D01*
X154188316Y-113040208D01*
X155007875Y-113859767D01*
X155010585Y-113862622D01*
X155037835Y-113892886D01*
X155045055Y-113896100D01*
X155045054Y-113896100D01*
X155060439Y-113902950D01*
X155070807Y-113908579D01*
X155091569Y-113922062D01*
X155099373Y-113923298D01*
X155099376Y-113923299D01*
X155100101Y-113923414D01*
X155118921Y-113928989D01*
X155119582Y-113929283D01*
X155119584Y-113929283D01*
X155126808Y-113932500D01*
X155151559Y-113932500D01*
X155163322Y-113933426D01*
X155179957Y-113936061D01*
X155179959Y-113936061D01*
X155187764Y-113937297D01*
X155195396Y-113935252D01*
X155195397Y-113935252D01*
X155196105Y-113935062D01*
X155215568Y-113932500D01*
X156389692Y-113932500D01*
X156393629Y-113932603D01*
X156434291Y-113934734D01*
X156457402Y-113925863D01*
X156468694Y-113922518D01*
X156492917Y-113917369D01*
X156499310Y-113912724D01*
X156499312Y-113912723D01*
X156499904Y-113912293D01*
X156517154Y-113902927D01*
X156517836Y-113902665D01*
X156517837Y-113902664D01*
X156525216Y-113899832D01*
X156542712Y-113882336D01*
X156551684Y-113874672D01*
X156565317Y-113864767D01*
X156571710Y-113860122D01*
X156576028Y-113852643D01*
X156587979Y-113837069D01*
X156775322Y-113649726D01*
X156821942Y-113627986D01*
X156828496Y-113627700D01*
X158263440Y-113627700D01*
X158267377Y-113627803D01*
X158308039Y-113629934D01*
X158331150Y-113621063D01*
X158342442Y-113617718D01*
X158366665Y-113612569D01*
X158373058Y-113607924D01*
X158373060Y-113607923D01*
X158373652Y-113607493D01*
X158390902Y-113598127D01*
X158391584Y-113597865D01*
X158391585Y-113597864D01*
X158398964Y-113595032D01*
X158416460Y-113577536D01*
X158425432Y-113569872D01*
X158439065Y-113559967D01*
X158445458Y-113555322D01*
X158449776Y-113547843D01*
X158461727Y-113532269D01*
X158985761Y-113008235D01*
X159032381Y-112986495D01*
X159082068Y-112999809D01*
X159110454Y-113038171D01*
X159111118Y-113040214D01*
X159112043Y-113046055D01*
X159169984Y-113159771D01*
X159260229Y-113250016D01*
X159265505Y-113252704D01*
X159265506Y-113252705D01*
X159281629Y-113260920D01*
X159373945Y-113307957D01*
X159379792Y-113308883D01*
X159465374Y-113322438D01*
X159465376Y-113322438D01*
X159468292Y-113322900D01*
X160031708Y-113322900D01*
X160034624Y-113322438D01*
X160034626Y-113322438D01*
X160120208Y-113308883D01*
X160126055Y-113307957D01*
X160218371Y-113260920D01*
X160234494Y-113252705D01*
X160234495Y-113252704D01*
X160239771Y-113250016D01*
X160330016Y-113159771D01*
X160387957Y-113046055D01*
X160402900Y-112951708D01*
X160402900Y-112167227D01*
X160573601Y-112167227D01*
X160573863Y-112171644D01*
X160575967Y-112189337D01*
X160578923Y-112200092D01*
X160618034Y-112288144D01*
X160625762Y-112299388D01*
X160693028Y-112366537D01*
X160704293Y-112374250D01*
X160792395Y-112413200D01*
X160803186Y-112416142D01*
X160820392Y-112418148D01*
X160824731Y-112418400D01*
X160946541Y-112418400D01*
X160956698Y-112414703D01*
X160959800Y-112409331D01*
X160959800Y-112405140D01*
X161112200Y-112405140D01*
X161115897Y-112415297D01*
X161121269Y-112418399D01*
X161247227Y-112418399D01*
X161251644Y-112418137D01*
X161269337Y-112416033D01*
X161280092Y-112413077D01*
X161368144Y-112373966D01*
X161379388Y-112366238D01*
X161446537Y-112298972D01*
X161454250Y-112287707D01*
X161493200Y-112199605D01*
X161496142Y-112188814D01*
X161498148Y-112171608D01*
X161498400Y-112167269D01*
X161498400Y-112075460D01*
X161490819Y-112054631D01*
X161465266Y-112062200D01*
X161125459Y-112062200D01*
X161115302Y-112065897D01*
X161112200Y-112071269D01*
X161112200Y-112405140D01*
X160959800Y-112405140D01*
X160959800Y-112075459D01*
X160956103Y-112065302D01*
X160950731Y-112062200D01*
X160586860Y-112062200D01*
X160576703Y-112065897D01*
X160573601Y-112071269D01*
X160573601Y-112167227D01*
X160402900Y-112167227D01*
X160402900Y-110888292D01*
X160402258Y-110884235D01*
X160388883Y-110799792D01*
X160387957Y-110793945D01*
X160349311Y-110718098D01*
X160332705Y-110685506D01*
X160332704Y-110685505D01*
X160330016Y-110680229D01*
X160239771Y-110589984D01*
X160229109Y-110584551D01*
X160178005Y-110558513D01*
X160126055Y-110532043D01*
X160117768Y-110530731D01*
X160111648Y-110529761D01*
X160066658Y-110504821D01*
X160048224Y-110456798D01*
X160064973Y-110408161D01*
X160070192Y-110402359D01*
X160135340Y-110337097D01*
X160143052Y-110325834D01*
X160181252Y-110239428D01*
X160184190Y-110228648D01*
X160186148Y-110211858D01*
X160186400Y-110207520D01*
X160186400Y-110071459D01*
X160182703Y-110061302D01*
X160177331Y-110058200D01*
X159354859Y-110058200D01*
X159344702Y-110061897D01*
X159341600Y-110067269D01*
X159341600Y-110207468D01*
X159341863Y-110211910D01*
X159343915Y-110229155D01*
X159346873Y-110239915D01*
X159385227Y-110326263D01*
X159392957Y-110337511D01*
X159453977Y-110398425D01*
X159475757Y-110445026D01*
X159462487Y-110494725D01*
X159420375Y-110524266D01*
X159412616Y-110525918D01*
X159373945Y-110532043D01*
X159321995Y-110558513D01*
X159270892Y-110584551D01*
X159260229Y-110589984D01*
X159169984Y-110680229D01*
X159167296Y-110685505D01*
X159167295Y-110685506D01*
X159150689Y-110718098D01*
X159112043Y-110793945D01*
X159111117Y-110799792D01*
X159097743Y-110884235D01*
X159097100Y-110888292D01*
X159097100Y-111092787D01*
X159079507Y-111141125D01*
X159034958Y-111166845D01*
X158987759Y-111159790D01*
X158976682Y-111154146D01*
X158976680Y-111154146D01*
X158971406Y-111151458D01*
X158954146Y-111148724D01*
X158872736Y-111135830D01*
X158827746Y-111110892D01*
X158809300Y-111061556D01*
X158809300Y-110751280D01*
X158809650Y-110746518D01*
X158811094Y-110742312D01*
X158810792Y-110734243D01*
X158809353Y-110695940D01*
X158809300Y-110693119D01*
X158809300Y-110674684D01*
X158808666Y-110671279D01*
X158808452Y-110668961D01*
X158808187Y-110664872D01*
X158807443Y-110645054D01*
X158807442Y-110645052D01*
X158807182Y-110638114D01*
X158804442Y-110631736D01*
X158804441Y-110631732D01*
X158802202Y-110626521D01*
X158797368Y-110610609D01*
X158796330Y-110605034D01*
X158796327Y-110605027D01*
X158795057Y-110598207D01*
X158791415Y-110592299D01*
X158791414Y-110592296D01*
X158781384Y-110576024D01*
X158776307Y-110566252D01*
X158771649Y-110555411D01*
X158766021Y-110542311D01*
X158762281Y-110537758D01*
X158756813Y-110532290D01*
X158745971Y-110518575D01*
X158745026Y-110517042D01*
X158740343Y-110509444D01*
X158734816Y-110505241D01*
X158734815Y-110505240D01*
X158717783Y-110492289D01*
X158710127Y-110485604D01*
X158452962Y-110228439D01*
X158449839Y-110224821D01*
X158447886Y-110220826D01*
X158438357Y-110211986D01*
X158413851Y-110189254D01*
X158411819Y-110187296D01*
X158398797Y-110174274D01*
X158395941Y-110172314D01*
X158394157Y-110170832D01*
X158391077Y-110168128D01*
X158371441Y-110149913D01*
X158364996Y-110147342D01*
X158364995Y-110147341D01*
X158359723Y-110145238D01*
X158345053Y-110137405D01*
X158340375Y-110134196D01*
X158334649Y-110130268D01*
X158327891Y-110128664D01*
X158327890Y-110128664D01*
X158309300Y-110124253D01*
X158298802Y-110120934D01*
X158274593Y-110111275D01*
X158268729Y-110110700D01*
X158260992Y-110110700D01*
X158243628Y-110108668D01*
X158233195Y-110106192D01*
X158226317Y-110107128D01*
X158226316Y-110107128D01*
X158205119Y-110110013D01*
X158194978Y-110110700D01*
X156031687Y-110110700D01*
X155983349Y-110093107D01*
X155978513Y-110088674D01*
X155932926Y-110043087D01*
X155911186Y-109996467D01*
X155910900Y-109989913D01*
X155910899Y-109772697D01*
X155910899Y-109770480D01*
X155907862Y-109744945D01*
X155863568Y-109645226D01*
X155814184Y-109595928D01*
X155791259Y-109573043D01*
X155791258Y-109573042D01*
X155786345Y-109568138D01*
X155779994Y-109565330D01*
X155728384Y-109542513D01*
X155691288Y-109506877D01*
X155685778Y-109455733D01*
X155714431Y-109413012D01*
X155728265Y-109405010D01*
X155780142Y-109381967D01*
X155791388Y-109374238D01*
X155858537Y-109306972D01*
X155866250Y-109295707D01*
X155905200Y-109207605D01*
X155908142Y-109196814D01*
X155910148Y-109179608D01*
X155910400Y-109175269D01*
X155910400Y-109083459D01*
X155906703Y-109073302D01*
X155901331Y-109070200D01*
X155447000Y-109070200D01*
X155398662Y-109052607D01*
X155372942Y-109008058D01*
X155371800Y-108995000D01*
X155371800Y-108993000D01*
X155389393Y-108944662D01*
X155433942Y-108918942D01*
X155447000Y-108917800D01*
X155897140Y-108917800D01*
X155907297Y-108914103D01*
X155910399Y-108908731D01*
X155910399Y-108840995D01*
X155927992Y-108792657D01*
X155972541Y-108766937D01*
X156023199Y-108775870D01*
X156038773Y-108787821D01*
X156632958Y-109382006D01*
X156635668Y-109384861D01*
X156662927Y-109415135D01*
X156670146Y-109418349D01*
X156685536Y-109425201D01*
X156695907Y-109430833D01*
X156716660Y-109444310D01*
X156725185Y-109445660D01*
X156744011Y-109451236D01*
X156751900Y-109454749D01*
X156776651Y-109454749D01*
X156788415Y-109455675D01*
X156805049Y-109458310D01*
X156805051Y-109458310D01*
X156812855Y-109459546D01*
X156820487Y-109457501D01*
X156820488Y-109457501D01*
X156821196Y-109457311D01*
X156840659Y-109454749D01*
X159383188Y-109454749D01*
X159431526Y-109472342D01*
X159457246Y-109516891D01*
X159448313Y-109567549D01*
X159436409Y-109583077D01*
X159392660Y-109626902D01*
X159384948Y-109638166D01*
X159346748Y-109724572D01*
X159343810Y-109735352D01*
X159341852Y-109752142D01*
X159341600Y-109756480D01*
X159341600Y-109892541D01*
X159345297Y-109902698D01*
X159350669Y-109905800D01*
X160173141Y-109905800D01*
X160183298Y-109902103D01*
X160186400Y-109896731D01*
X160186400Y-109756532D01*
X160186137Y-109752090D01*
X160184085Y-109734845D01*
X160181127Y-109724085D01*
X160142773Y-109637737D01*
X160135045Y-109626493D01*
X160091647Y-109583170D01*
X160069867Y-109536568D01*
X160083137Y-109486870D01*
X160125249Y-109457328D01*
X160144775Y-109454749D01*
X160402481Y-109454749D01*
X160450819Y-109472342D01*
X160476539Y-109516891D01*
X160467606Y-109567549D01*
X160455702Y-109583077D01*
X160413855Y-109624998D01*
X160407335Y-109631529D01*
X160404528Y-109637879D01*
X160404527Y-109637880D01*
X160385929Y-109679948D01*
X160363969Y-109729621D01*
X160361100Y-109754228D01*
X160361100Y-110209772D01*
X160361363Y-110211979D01*
X160361363Y-110211986D01*
X160362329Y-110220101D01*
X160364087Y-110234876D01*
X160407624Y-110332893D01*
X160412535Y-110337795D01*
X160412536Y-110337797D01*
X160471808Y-110396965D01*
X160483529Y-110408665D01*
X160489879Y-110411472D01*
X160489880Y-110411473D01*
X160516273Y-110423141D01*
X160581621Y-110452031D01*
X160587239Y-110452686D01*
X160604066Y-110454648D01*
X160604067Y-110454648D01*
X160606228Y-110454900D01*
X160760369Y-110454900D01*
X160808707Y-110472493D01*
X160834427Y-110517042D01*
X160825494Y-110567700D01*
X160790896Y-110598825D01*
X160697226Y-110640432D01*
X160684261Y-110653420D01*
X160626593Y-110711189D01*
X160620138Y-110717655D01*
X160617331Y-110724005D01*
X160617330Y-110724006D01*
X160610663Y-110739086D01*
X160576018Y-110817451D01*
X160575363Y-110823069D01*
X160574202Y-110833031D01*
X160573100Y-110842479D01*
X160573101Y-111209520D01*
X160576138Y-111235055D01*
X160620432Y-111334774D01*
X160697655Y-111411862D01*
X160704005Y-111414669D01*
X160704006Y-111414670D01*
X160755616Y-111437487D01*
X160792712Y-111473123D01*
X160798222Y-111524267D01*
X160769569Y-111566988D01*
X160755735Y-111574990D01*
X160703858Y-111598033D01*
X160692612Y-111605762D01*
X160625463Y-111673028D01*
X160617750Y-111684293D01*
X160578800Y-111772395D01*
X160575858Y-111783186D01*
X160573852Y-111800392D01*
X160573600Y-111804731D01*
X160573600Y-111896541D01*
X160577297Y-111906698D01*
X160582669Y-111909800D01*
X161461341Y-111909800D01*
X161495483Y-111917997D01*
X161499408Y-111919997D01*
X161528414Y-111951104D01*
X161569210Y-111943543D01*
X161656437Y-111957358D01*
X161662284Y-111958284D01*
X161687357Y-111954313D01*
X161755356Y-111943543D01*
X161789590Y-111938121D01*
X161904435Y-111879604D01*
X161995576Y-111788463D01*
X162008964Y-111762189D01*
X162049937Y-111681775D01*
X162054093Y-111673618D01*
X162074256Y-111546312D01*
X162070765Y-111524267D01*
X162055019Y-111424853D01*
X162054093Y-111419006D01*
X162041753Y-111394787D01*
X162035483Y-111343730D01*
X162063499Y-111300589D01*
X162094085Y-111286891D01*
X162110464Y-111283633D01*
X162143168Y-111277128D01*
X162210283Y-111232283D01*
X162214298Y-111226275D01*
X162260825Y-111204578D01*
X162310512Y-111217892D01*
X162320506Y-111226270D01*
X162362414Y-111268104D01*
X162372397Y-111275225D01*
X162474449Y-111325109D01*
X162485463Y-111328513D01*
X162550530Y-111338006D01*
X162555963Y-111338400D01*
X162724541Y-111338400D01*
X162734698Y-111334703D01*
X162737800Y-111329331D01*
X162737800Y-110235000D01*
X162755393Y-110186662D01*
X162799942Y-110160942D01*
X162813000Y-110159800D01*
X163765000Y-110159800D01*
X163813338Y-110177393D01*
X163839058Y-110221942D01*
X163840200Y-110235000D01*
X163840200Y-110237000D01*
X163822607Y-110285338D01*
X163778058Y-110311058D01*
X163765000Y-110312200D01*
X162903459Y-110312200D01*
X162893302Y-110315897D01*
X162890200Y-110321269D01*
X162890200Y-111325140D01*
X162893897Y-111335297D01*
X162899269Y-111338399D01*
X163072018Y-111338399D01*
X163077488Y-111337998D01*
X163143168Y-111328331D01*
X163154193Y-111324905D01*
X163256155Y-111274845D01*
X163266120Y-111267711D01*
X163307397Y-111226361D01*
X163353998Y-111204581D01*
X163403697Y-111217851D01*
X163413649Y-111226195D01*
X163417717Y-111232283D01*
X163484832Y-111277128D01*
X163492096Y-111278573D01*
X163492099Y-111278574D01*
X163540389Y-111288179D01*
X163540393Y-111288179D01*
X163544016Y-111288900D01*
X163983984Y-111288900D01*
X163987611Y-111288179D01*
X163991282Y-111287817D01*
X163991381Y-111288820D01*
X164038279Y-111296036D01*
X164043054Y-111298890D01*
X164056408Y-111307562D01*
X164064212Y-111308798D01*
X164064214Y-111308799D01*
X164064937Y-111308913D01*
X164083756Y-111314487D01*
X164091647Y-111318000D01*
X164111900Y-111318000D01*
X164160238Y-111335593D01*
X164185958Y-111380142D01*
X164187100Y-111393200D01*
X164187101Y-111496512D01*
X164187101Y-111592520D01*
X164190138Y-111618055D01*
X164234432Y-111717774D01*
X164271354Y-111754631D01*
X164278380Y-111761645D01*
X164300160Y-111808246D01*
X164286728Y-111856765D01*
X164286329Y-111857164D01*
X164283642Y-111862437D01*
X164283641Y-111862439D01*
X164274895Y-111879604D01*
X164227812Y-111972009D01*
X164219659Y-112023488D01*
X164212228Y-112070407D01*
X164207649Y-112099315D01*
X164227812Y-112226621D01*
X164236481Y-112243635D01*
X164281684Y-112332349D01*
X164286329Y-112341466D01*
X164377470Y-112432607D01*
X164382746Y-112435295D01*
X164382747Y-112435296D01*
X164425530Y-112457095D01*
X164492315Y-112491124D01*
X164619621Y-112511287D01*
X164746927Y-112491124D01*
X164813712Y-112457095D01*
X164856495Y-112435296D01*
X164856496Y-112435295D01*
X164861772Y-112432607D01*
X164952913Y-112341466D01*
X164957559Y-112332349D01*
X165002761Y-112243635D01*
X165011430Y-112226621D01*
X165031593Y-112099315D01*
X165027015Y-112070407D01*
X165019583Y-112023488D01*
X165011430Y-111972009D01*
X164972977Y-111896541D01*
X164955600Y-111862437D01*
X164955599Y-111862436D01*
X164952913Y-111857164D01*
X164952762Y-111857013D01*
X164939300Y-111810075D01*
X164961096Y-111762189D01*
X165000957Y-111722259D01*
X165000958Y-111722258D01*
X165005862Y-111717345D01*
X165017109Y-111691905D01*
X165031487Y-111659384D01*
X165067123Y-111622288D01*
X165118267Y-111616778D01*
X165160988Y-111645431D01*
X165168990Y-111659265D01*
X165192033Y-111711142D01*
X165199762Y-111722388D01*
X165267028Y-111789537D01*
X165278293Y-111797250D01*
X165366395Y-111836200D01*
X165377186Y-111839142D01*
X165394392Y-111841148D01*
X165398731Y-111841400D01*
X165490541Y-111841400D01*
X165500698Y-111837703D01*
X165503800Y-111832331D01*
X165503800Y-111378000D01*
X165521393Y-111329662D01*
X165565942Y-111303942D01*
X165579000Y-111302800D01*
X165581000Y-111302800D01*
X165629338Y-111320393D01*
X165655058Y-111364942D01*
X165656200Y-111378000D01*
X165656200Y-111828140D01*
X165659897Y-111838297D01*
X165665269Y-111841399D01*
X165761227Y-111841399D01*
X165765644Y-111841137D01*
X165783337Y-111839033D01*
X165794092Y-111836077D01*
X165882144Y-111796966D01*
X165893388Y-111789238D01*
X165960537Y-111721972D01*
X165968247Y-111710711D01*
X165970392Y-111705859D01*
X166006029Y-111668763D01*
X166057172Y-111663252D01*
X166099893Y-111691905D01*
X166107892Y-111705731D01*
X166118624Y-111729893D01*
X166123535Y-111734795D01*
X166123536Y-111734797D01*
X166189615Y-111800760D01*
X166194529Y-111805665D01*
X166200879Y-111808472D01*
X166200880Y-111808473D01*
X166245366Y-111828140D01*
X166292621Y-111849031D01*
X166298239Y-111849686D01*
X166315066Y-111851648D01*
X166315067Y-111851648D01*
X166317228Y-111851900D01*
X166672772Y-111851900D01*
X166674979Y-111851637D01*
X166674986Y-111851637D01*
X166692270Y-111849580D01*
X166697876Y-111848913D01*
X166795893Y-111805376D01*
X166800795Y-111800465D01*
X166800797Y-111800464D01*
X166866760Y-111734385D01*
X166866761Y-111734384D01*
X166871665Y-111729471D01*
X166874797Y-111722388D01*
X166902703Y-111659265D01*
X166915031Y-111631379D01*
X166916148Y-111621800D01*
X166917648Y-111608934D01*
X166917648Y-111608933D01*
X166917900Y-111606772D01*
X166917900Y-111604468D01*
X167092600Y-111604468D01*
X167092863Y-111608910D01*
X167094915Y-111626155D01*
X167097873Y-111636915D01*
X167136227Y-111723263D01*
X167143955Y-111734507D01*
X167209902Y-111800340D01*
X167221166Y-111808052D01*
X167307572Y-111846252D01*
X167318352Y-111849190D01*
X167335142Y-111851148D01*
X167339480Y-111851400D01*
X167425541Y-111851400D01*
X167435698Y-111847703D01*
X167438800Y-111842331D01*
X167438800Y-111468459D01*
X167435103Y-111458302D01*
X167429731Y-111455200D01*
X167105859Y-111455200D01*
X167095702Y-111458897D01*
X167092600Y-111464269D01*
X167092600Y-111604468D01*
X166917900Y-111604468D01*
X166917900Y-111151228D01*
X166917605Y-111148744D01*
X166915580Y-111131730D01*
X166914913Y-111126124D01*
X166871376Y-111028107D01*
X166866465Y-111023205D01*
X166866464Y-111023203D01*
X166800385Y-110957240D01*
X166800384Y-110957239D01*
X166795471Y-110952335D01*
X166766401Y-110939483D01*
X166729306Y-110903849D01*
X166723795Y-110852705D01*
X166752448Y-110809984D01*
X166766282Y-110801981D01*
X166789263Y-110791773D01*
X166800507Y-110784045D01*
X166866340Y-110718098D01*
X166874052Y-110706834D01*
X166912252Y-110620428D01*
X166915190Y-110609648D01*
X166917148Y-110592858D01*
X166917400Y-110588520D01*
X166917400Y-110452459D01*
X166913703Y-110442302D01*
X166908331Y-110439200D01*
X166085859Y-110439200D01*
X166075702Y-110442897D01*
X166072600Y-110448269D01*
X166072600Y-110535190D01*
X166055007Y-110583528D01*
X166010458Y-110609248D01*
X165959800Y-110600315D01*
X165958312Y-110599349D01*
X165954049Y-110594614D01*
X165931432Y-110584544D01*
X165921076Y-110578921D01*
X165916615Y-110576024D01*
X165900315Y-110565439D01*
X165891791Y-110564089D01*
X165872966Y-110558513D01*
X165872299Y-110558216D01*
X165865076Y-110555000D01*
X165840325Y-110555000D01*
X165828561Y-110554074D01*
X165811927Y-110551439D01*
X165811925Y-110551439D01*
X165804121Y-110550203D01*
X165796489Y-110552248D01*
X165796488Y-110552248D01*
X165795780Y-110552438D01*
X165776317Y-110555000D01*
X164958744Y-110555000D01*
X164950383Y-110551957D01*
X164930022Y-110555000D01*
X164555430Y-110555000D01*
X164529327Y-110545500D01*
X164515814Y-110553619D01*
X164501467Y-110555000D01*
X164392641Y-110555000D01*
X164344303Y-110537407D01*
X164339467Y-110532974D01*
X164286127Y-110479634D01*
X164283419Y-110476781D01*
X164277791Y-110470531D01*
X164258519Y-110422838D01*
X164274413Y-110373915D01*
X164318035Y-110346654D01*
X164368974Y-110353811D01*
X164376505Y-110358516D01*
X164381430Y-110363986D01*
X164388649Y-110367200D01*
X164404039Y-110374052D01*
X164414410Y-110379684D01*
X164435163Y-110393161D01*
X164443688Y-110394511D01*
X164462514Y-110400087D01*
X164470403Y-110403600D01*
X164495154Y-110403600D01*
X164506916Y-110404526D01*
X164513232Y-110405526D01*
X164525745Y-110412462D01*
X164529710Y-110409135D01*
X164535967Y-110407162D01*
X164539699Y-110406162D01*
X164559162Y-110403600D01*
X164910940Y-110403600D01*
X164914875Y-110403703D01*
X164933957Y-110404703D01*
X164940092Y-110407307D01*
X164946981Y-110405526D01*
X164947648Y-110405420D01*
X164955539Y-110405834D01*
X164978650Y-110396963D01*
X164989942Y-110393618D01*
X165014165Y-110388469D01*
X165020558Y-110383824D01*
X165020560Y-110383823D01*
X165021152Y-110383393D01*
X165038402Y-110374027D01*
X165039084Y-110373765D01*
X165039085Y-110373764D01*
X165046464Y-110370932D01*
X165063960Y-110353436D01*
X165072932Y-110345772D01*
X165086565Y-110335867D01*
X165092958Y-110331222D01*
X165097276Y-110323743D01*
X165109227Y-110308169D01*
X165143855Y-110273541D01*
X166072600Y-110273541D01*
X166076297Y-110283698D01*
X166081669Y-110286800D01*
X166405541Y-110286800D01*
X166415698Y-110283103D01*
X166418800Y-110277731D01*
X166418800Y-109903859D01*
X166415103Y-109893702D01*
X166409731Y-109890600D01*
X166319532Y-109890600D01*
X166315090Y-109890863D01*
X166297845Y-109892915D01*
X166287085Y-109895873D01*
X166200737Y-109934227D01*
X166189493Y-109941955D01*
X166123662Y-110007900D01*
X166115948Y-110019166D01*
X166077748Y-110105572D01*
X166074810Y-110116352D01*
X166072852Y-110133142D01*
X166072600Y-110137480D01*
X166072600Y-110273541D01*
X165143855Y-110273541D01*
X165946271Y-109471126D01*
X165992891Y-109449386D01*
X165999445Y-109449100D01*
X166245956Y-109449100D01*
X166294294Y-109466693D01*
X166299130Y-109471126D01*
X166599341Y-109771337D01*
X166621081Y-109817957D01*
X166607767Y-109867644D01*
X166575312Y-109892547D01*
X166571200Y-109899669D01*
X166571200Y-110273541D01*
X166574897Y-110283698D01*
X166580269Y-110286800D01*
X166904141Y-110286800D01*
X166914298Y-110283103D01*
X166917400Y-110277731D01*
X166917400Y-110270945D01*
X166934993Y-110222607D01*
X166979542Y-110196887D01*
X167030200Y-110205820D01*
X167045774Y-110217771D01*
X167070074Y-110242071D01*
X167091814Y-110288691D01*
X167092100Y-110295245D01*
X167092100Y-110590772D01*
X167092363Y-110592979D01*
X167092363Y-110592986D01*
X167093058Y-110598825D01*
X167095087Y-110615876D01*
X167138624Y-110713893D01*
X167143535Y-110718795D01*
X167143536Y-110718797D01*
X167202226Y-110777384D01*
X167214529Y-110789665D01*
X167243599Y-110802517D01*
X167280694Y-110838151D01*
X167286205Y-110889295D01*
X167257552Y-110932016D01*
X167243718Y-110940019D01*
X167220737Y-110950227D01*
X167209493Y-110957955D01*
X167143660Y-111023902D01*
X167135948Y-111035166D01*
X167097748Y-111121572D01*
X167094810Y-111132352D01*
X167092852Y-111149142D01*
X167092600Y-111153480D01*
X167092600Y-111289541D01*
X167096297Y-111299698D01*
X167101669Y-111302800D01*
X167516000Y-111302800D01*
X167564338Y-111320393D01*
X167590058Y-111364942D01*
X167591200Y-111378000D01*
X167591200Y-111838141D01*
X167594897Y-111848298D01*
X167600269Y-111851400D01*
X167690468Y-111851400D01*
X167694910Y-111851137D01*
X167712155Y-111849085D01*
X167722915Y-111846127D01*
X167795773Y-111813765D01*
X167847091Y-111810221D01*
X167888680Y-111840493D01*
X167901500Y-111882490D01*
X167901500Y-114994300D01*
X167883907Y-115042638D01*
X167839358Y-115068358D01*
X167826300Y-115069500D01*
X167115159Y-115069500D01*
X167066821Y-115051907D01*
X167041101Y-115007358D01*
X167050034Y-114956700D01*
X167057849Y-114945611D01*
X167079695Y-114919897D01*
X167084512Y-114912674D01*
X167160327Y-114764199D01*
X167163349Y-114756071D01*
X167203218Y-114593139D01*
X167204220Y-114586555D01*
X167204629Y-114579970D01*
X167204700Y-114577658D01*
X167204700Y-114310719D01*
X167201003Y-114300562D01*
X167195631Y-114297460D01*
X165713159Y-114297460D01*
X165703002Y-114301157D01*
X165699900Y-114306529D01*
X165699900Y-114538016D01*
X165700152Y-114542354D01*
X165714590Y-114666186D01*
X165716588Y-114674639D01*
X165773467Y-114831340D01*
X165777352Y-114839098D01*
X165852074Y-114953068D01*
X165863864Y-115003139D01*
X165840711Y-115049073D01*
X165789185Y-115069500D01*
X165261210Y-115069500D01*
X165212872Y-115051907D01*
X165187152Y-115007358D01*
X165189499Y-114973802D01*
X165190257Y-114972315D01*
X165202903Y-114892469D01*
X165204738Y-114880886D01*
X165204738Y-114880884D01*
X165205200Y-114877968D01*
X165205200Y-114131801D01*
X165699900Y-114131801D01*
X165703597Y-114141958D01*
X165708969Y-114145060D01*
X166362841Y-114145060D01*
X166372998Y-114141363D01*
X166376100Y-114135991D01*
X166376100Y-114131801D01*
X166528500Y-114131801D01*
X166532197Y-114141958D01*
X166537569Y-114145060D01*
X167191441Y-114145060D01*
X167201598Y-114141363D01*
X167204700Y-114135991D01*
X167204700Y-113904504D01*
X167204448Y-113900166D01*
X167190010Y-113776334D01*
X167188012Y-113767881D01*
X167131133Y-113611180D01*
X167127248Y-113603422D01*
X167035838Y-113463999D01*
X167030273Y-113457344D01*
X166909242Y-113342689D01*
X166902302Y-113337497D01*
X166758136Y-113253760D01*
X166750179Y-113250300D01*
X166590630Y-113201977D01*
X166582085Y-113200439D01*
X166541735Y-113197936D01*
X166531368Y-113200997D01*
X166528500Y-113205321D01*
X166528500Y-114131801D01*
X166376100Y-114131801D01*
X166376100Y-113209160D01*
X166372403Y-113199003D01*
X166369111Y-113197102D01*
X166242727Y-113218819D01*
X166234397Y-113221271D01*
X166081002Y-113286541D01*
X166073459Y-113290844D01*
X165939190Y-113389653D01*
X165932843Y-113395572D01*
X165824906Y-113522622D01*
X165820088Y-113529846D01*
X165744273Y-113678321D01*
X165741251Y-113686449D01*
X165701382Y-113849381D01*
X165700380Y-113855965D01*
X165699971Y-113862550D01*
X165699900Y-113864862D01*
X165699900Y-114131801D01*
X165205200Y-114131801D01*
X165205200Y-113564552D01*
X165190257Y-113470205D01*
X165149214Y-113389653D01*
X165135005Y-113361766D01*
X165135004Y-113361765D01*
X165132316Y-113356489D01*
X165042071Y-113266244D01*
X165028253Y-113259203D01*
X164976971Y-113233074D01*
X164928355Y-113208303D01*
X164883963Y-113201272D01*
X164836926Y-113193822D01*
X164836924Y-113193822D01*
X164834008Y-113193360D01*
X164070592Y-113193360D01*
X164067676Y-113193822D01*
X164067674Y-113193822D01*
X164020637Y-113201272D01*
X163976245Y-113208303D01*
X163927629Y-113233074D01*
X163876348Y-113259203D01*
X163862529Y-113266244D01*
X163772284Y-113356489D01*
X163769596Y-113361765D01*
X163769595Y-113361766D01*
X163755386Y-113389653D01*
X163714343Y-113470205D01*
X163699400Y-113564552D01*
X163699400Y-114877968D01*
X163699862Y-114880884D01*
X163699862Y-114880886D01*
X163701697Y-114892469D01*
X163714343Y-114972315D01*
X163714832Y-114973274D01*
X163713114Y-115022470D01*
X163678694Y-115060698D01*
X163643390Y-115069500D01*
X128251035Y-115069500D01*
X128202697Y-115051907D01*
X128176977Y-115007358D01*
X128185910Y-114956700D01*
X128225315Y-114923635D01*
X128231255Y-114921748D01*
X128343817Y-114891060D01*
X128465991Y-114816045D01*
X128562200Y-114709754D01*
X128569735Y-114694203D01*
X128622374Y-114585554D01*
X128624710Y-114580733D01*
X128641542Y-114480688D01*
X128648014Y-114442222D01*
X128648015Y-114442215D01*
X128648496Y-114439354D01*
X128648647Y-114427000D01*
X128648235Y-114424121D01*
X128629082Y-114290379D01*
X128629081Y-114290376D01*
X128628323Y-114285082D01*
X128626108Y-114280210D01*
X128626107Y-114280207D01*
X128571203Y-114159453D01*
X128568984Y-114154572D01*
X128527118Y-114105984D01*
X128478894Y-114050017D01*
X128478891Y-114050014D01*
X128475400Y-114045963D01*
X128355095Y-113967985D01*
X128308094Y-113953929D01*
X128222873Y-113928442D01*
X128222870Y-113928442D01*
X128217739Y-113926907D01*
X128212384Y-113926874D01*
X128212382Y-113926874D01*
X128148259Y-113926482D01*
X128074376Y-113926031D01*
X127936529Y-113965428D01*
X127815280Y-114041930D01*
X127811735Y-114045943D01*
X127811736Y-114045943D01*
X127723923Y-114145372D01*
X127723921Y-114145375D01*
X127720377Y-114149388D01*
X127659447Y-114279163D01*
X127658624Y-114284451D01*
X127658623Y-114284453D01*
X127650005Y-114339807D01*
X127625184Y-114384862D01*
X127577210Y-114403423D01*
X127528529Y-114386803D01*
X127501920Y-114342781D01*
X127500500Y-114328238D01*
X127500500Y-103812600D01*
X127518093Y-103764262D01*
X127562642Y-103738542D01*
X127575700Y-103737400D01*
X127966541Y-103737400D01*
X127976698Y-103733703D01*
X127979800Y-103728331D01*
X127979800Y-103724141D01*
X128132200Y-103724141D01*
X128135897Y-103734298D01*
X128141269Y-103737400D01*
X128567316Y-103737400D01*
X128574637Y-103736679D01*
X128608198Y-103730003D01*
X128621623Y-103724442D01*
X128659720Y-103698986D01*
X128669986Y-103688720D01*
X128695442Y-103650623D01*
X128701003Y-103637198D01*
X128707679Y-103603637D01*
X128708400Y-103596316D01*
X128708400Y-103174459D01*
X128704703Y-103164302D01*
X128699331Y-103161200D01*
X128145459Y-103161200D01*
X128135302Y-103164897D01*
X128132200Y-103170269D01*
X128132200Y-103724141D01*
X127979800Y-103724141D01*
X127979800Y-102445859D01*
X127976103Y-102435702D01*
X127970731Y-102432600D01*
X127575700Y-102432600D01*
X127527362Y-102415007D01*
X127501642Y-102370458D01*
X127500500Y-102357400D01*
X127500500Y-102175700D01*
X127518093Y-102127362D01*
X127562642Y-102101642D01*
X127575700Y-102100500D01*
X129175808Y-102100500D01*
X129224146Y-102118093D01*
G37*
G04 #@! TD.AperFunction*
G04 #@! TA.AperFunction,Conductor*
G36*
X151163524Y-109573682D02*
G01*
X151200246Y-109609704D01*
X151207600Y-109642139D01*
X151207600Y-109732700D01*
X151207863Y-109737142D01*
X151210070Y-109755689D01*
X151213028Y-109766451D01*
X151231136Y-109807217D01*
X151234680Y-109858535D01*
X151204408Y-109900124D01*
X151196551Y-109904748D01*
X151088587Y-109959759D01*
X151083123Y-109962543D01*
X150991982Y-110053684D01*
X150989294Y-110058960D01*
X150989293Y-110058961D01*
X150974038Y-110088900D01*
X150933465Y-110168529D01*
X150932539Y-110174376D01*
X150916356Y-110276550D01*
X150891418Y-110321540D01*
X150843394Y-110339975D01*
X150837716Y-110339859D01*
X150833263Y-110339600D01*
X150711459Y-110339600D01*
X150701302Y-110343297D01*
X150698200Y-110348669D01*
X150698200Y-110682541D01*
X150701897Y-110692698D01*
X150707269Y-110695800D01*
X151071140Y-110695800D01*
X151094777Y-110687197D01*
X151113533Y-110671460D01*
X151164972Y-110671461D01*
X151173392Y-110675122D01*
X151192692Y-110684956D01*
X151192694Y-110684956D01*
X151197968Y-110687644D01*
X151249464Y-110695800D01*
X151319131Y-110706834D01*
X151325274Y-110707807D01*
X151331120Y-110706881D01*
X151331121Y-110706881D01*
X151385073Y-110698336D01*
X151423785Y-110702404D01*
X151428876Y-110704358D01*
X151435503Y-110708662D01*
X151443306Y-110709898D01*
X151443312Y-110709900D01*
X151444035Y-110710014D01*
X151462855Y-110715589D01*
X151463516Y-110715883D01*
X151463518Y-110715883D01*
X151470742Y-110719100D01*
X151495493Y-110719100D01*
X151507256Y-110720026D01*
X151523891Y-110722661D01*
X151523893Y-110722661D01*
X151531698Y-110723897D01*
X151539330Y-110721852D01*
X151539331Y-110721852D01*
X151540039Y-110721662D01*
X151559502Y-110719100D01*
X153039775Y-110719100D01*
X153088113Y-110736693D01*
X153108500Y-110763773D01*
X153131048Y-110814536D01*
X153154704Y-110838151D01*
X153205683Y-110889041D01*
X153210907Y-110894256D01*
X153217257Y-110897063D01*
X153217258Y-110897064D01*
X153239353Y-110906832D01*
X153314111Y-110939882D01*
X153319729Y-110940537D01*
X153337834Y-110942648D01*
X153337835Y-110942648D01*
X153339996Y-110942900D01*
X154605004Y-110942900D01*
X154607211Y-110942637D01*
X154607218Y-110942637D01*
X154625809Y-110940425D01*
X154625811Y-110940424D01*
X154631412Y-110939758D01*
X154734536Y-110893952D01*
X154814256Y-110814093D01*
X154817063Y-110807744D01*
X154819600Y-110804039D01*
X154861426Y-110774095D01*
X154878826Y-110771378D01*
X154910106Y-110770203D01*
X154916777Y-110769953D01*
X154919596Y-110769900D01*
X154938031Y-110769900D01*
X154941436Y-110769266D01*
X154943754Y-110769052D01*
X154947843Y-110768787D01*
X154967661Y-110768043D01*
X154967663Y-110768042D01*
X154974601Y-110767782D01*
X154980979Y-110765042D01*
X154980983Y-110765041D01*
X154986194Y-110762802D01*
X155002106Y-110757968D01*
X155014507Y-110755658D01*
X155014979Y-110758191D01*
X155055286Y-110757417D01*
X155095319Y-110789718D01*
X155105203Y-110840327D01*
X155098062Y-110885412D01*
X155097600Y-110891284D01*
X155097600Y-111830541D01*
X155101297Y-111840698D01*
X155106669Y-111843800D01*
X156389141Y-111843800D01*
X156399298Y-111840103D01*
X156402400Y-111834731D01*
X156402400Y-111373725D01*
X156419993Y-111325387D01*
X156464542Y-111299667D01*
X156511741Y-111306722D01*
X156528594Y-111315309D01*
X156534441Y-111316235D01*
X156619217Y-111329662D01*
X156655900Y-111335472D01*
X156694002Y-111329437D01*
X156744496Y-111339252D01*
X156758941Y-111350537D01*
X157075075Y-111666672D01*
X157096814Y-111713292D01*
X157097100Y-111719846D01*
X157097100Y-112217756D01*
X157079507Y-112266094D01*
X157075074Y-112270930D01*
X156530774Y-112815229D01*
X156484154Y-112836969D01*
X156434467Y-112823655D01*
X156404962Y-112781518D01*
X156402400Y-112762055D01*
X156402400Y-112009459D01*
X156398703Y-111999302D01*
X156393331Y-111996200D01*
X155110859Y-111996200D01*
X155100702Y-111999897D01*
X155097600Y-112005269D01*
X155097600Y-112688899D01*
X155080007Y-112737237D01*
X155035458Y-112762957D01*
X154984800Y-112754024D01*
X154969226Y-112742073D01*
X154452100Y-112224946D01*
X153510787Y-111283633D01*
X153508077Y-111280778D01*
X153480827Y-111250514D01*
X153458210Y-111240444D01*
X153447854Y-111234821D01*
X153427093Y-111221339D01*
X153418569Y-111219989D01*
X153399744Y-111214413D01*
X153399077Y-111214116D01*
X153391854Y-111210900D01*
X153367103Y-111210900D01*
X153355339Y-111209974D01*
X153338705Y-111207339D01*
X153338703Y-111207339D01*
X153330899Y-111206103D01*
X153323267Y-111208148D01*
X153323266Y-111208148D01*
X153322558Y-111208338D01*
X153303095Y-111210900D01*
X153030225Y-111210900D01*
X152981887Y-111193307D01*
X152961500Y-111166227D01*
X152958779Y-111160100D01*
X152938952Y-111115464D01*
X152897560Y-111074144D01*
X152864007Y-111040649D01*
X152864006Y-111040648D01*
X152859093Y-111035744D01*
X152852743Y-111032937D01*
X152852742Y-111032936D01*
X152776991Y-110999447D01*
X152755889Y-110990118D01*
X152732260Y-110987363D01*
X152732166Y-110987352D01*
X152732165Y-110987352D01*
X152730004Y-110987100D01*
X151464996Y-110987100D01*
X151462789Y-110987363D01*
X151462782Y-110987363D01*
X151444191Y-110989575D01*
X151444189Y-110989576D01*
X151438588Y-110990242D01*
X151335464Y-111036048D01*
X151308654Y-111062905D01*
X151261080Y-111110562D01*
X151255744Y-111115907D01*
X151252937Y-111122256D01*
X151249426Y-111127384D01*
X151207601Y-111157329D01*
X151187377Y-111160100D01*
X151117522Y-111160100D01*
X151069184Y-111142507D01*
X151043464Y-111097958D01*
X151048744Y-111054493D01*
X151079200Y-110985605D01*
X151082142Y-110974814D01*
X151084148Y-110957608D01*
X151084400Y-110953269D01*
X151084400Y-110861459D01*
X151080703Y-110851302D01*
X151075331Y-110848200D01*
X150172860Y-110848200D01*
X150162703Y-110851897D01*
X150159601Y-110857269D01*
X150159601Y-110953227D01*
X150159863Y-110957644D01*
X150161967Y-110975337D01*
X150164923Y-110986092D01*
X150204034Y-111074144D01*
X150211762Y-111085388D01*
X150279028Y-111152537D01*
X150290293Y-111160250D01*
X150341616Y-111182940D01*
X150378712Y-111218576D01*
X150384222Y-111269720D01*
X150355569Y-111312441D01*
X150341735Y-111320443D01*
X150283226Y-111346432D01*
X150255981Y-111373725D01*
X150216046Y-111413730D01*
X150206138Y-111423655D01*
X150162018Y-111523451D01*
X150159100Y-111548479D01*
X150159100Y-111594834D01*
X150141507Y-111643172D01*
X150096958Y-111668892D01*
X150046300Y-111659959D01*
X150030726Y-111648008D01*
X149600451Y-111217733D01*
X149595183Y-111211883D01*
X149592998Y-111209184D01*
X149584775Y-111199030D01*
X149568028Y-111150393D01*
X149590043Y-111098532D01*
X150035155Y-110653420D01*
X150081775Y-110631680D01*
X150131462Y-110644994D01*
X150158994Y-110680876D01*
X150163297Y-110692698D01*
X150168669Y-110695800D01*
X150532541Y-110695800D01*
X150542698Y-110692103D01*
X150545800Y-110686731D01*
X150545800Y-110352860D01*
X150542103Y-110342703D01*
X150536731Y-110339601D01*
X150530523Y-110339601D01*
X150482185Y-110322008D01*
X150456465Y-110277459D01*
X150465398Y-110226801D01*
X150477349Y-110211227D01*
X150975611Y-109712965D01*
X150979229Y-109709842D01*
X150983224Y-109707889D01*
X150988311Y-109702406D01*
X151014796Y-109673854D01*
X151016754Y-109671822D01*
X151029776Y-109658800D01*
X151031736Y-109655944D01*
X151033218Y-109654160D01*
X151035922Y-109651080D01*
X151036125Y-109650861D01*
X151054137Y-109631444D01*
X151058813Y-109619725D01*
X151066646Y-109605055D01*
X151070388Y-109599600D01*
X151112239Y-109569692D01*
X151163524Y-109573682D01*
G37*
G04 #@! TD.AperFunction*
G04 #@! TA.AperFunction,Conductor*
G36*
X147889656Y-108791093D02*
G01*
X147915376Y-108835642D01*
X147916012Y-108857407D01*
X147915100Y-108865228D01*
X147915100Y-109320772D01*
X147915363Y-109322979D01*
X147915363Y-109322986D01*
X147916050Y-109328759D01*
X147918087Y-109345876D01*
X147961624Y-109443893D01*
X147966535Y-109448795D01*
X147966536Y-109448797D01*
X148032615Y-109514760D01*
X148037529Y-109519665D01*
X148066599Y-109532517D01*
X148103694Y-109568151D01*
X148109205Y-109619295D01*
X148080552Y-109662016D01*
X148066718Y-109670019D01*
X148043737Y-109680227D01*
X148032493Y-109687955D01*
X147966660Y-109753902D01*
X147958948Y-109765166D01*
X147920748Y-109851572D01*
X147917810Y-109862352D01*
X147915852Y-109879142D01*
X147915600Y-109883480D01*
X147915600Y-110019541D01*
X147919297Y-110029698D01*
X147924669Y-110032800D01*
X148747141Y-110032800D01*
X148757298Y-110029103D01*
X148760400Y-110023731D01*
X148760400Y-109883532D01*
X148760137Y-109879090D01*
X148758085Y-109861845D01*
X148755127Y-109851085D01*
X148716773Y-109764737D01*
X148709045Y-109753493D01*
X148643098Y-109687660D01*
X148631834Y-109679948D01*
X148609404Y-109670032D01*
X148572308Y-109634396D01*
X148566796Y-109583253D01*
X148595449Y-109540532D01*
X148609283Y-109532528D01*
X148638893Y-109519376D01*
X148643795Y-109514465D01*
X148643797Y-109514464D01*
X148709760Y-109448385D01*
X148709761Y-109448384D01*
X148714665Y-109443471D01*
X148725874Y-109418118D01*
X148751944Y-109359147D01*
X148758031Y-109345379D01*
X148760900Y-109320772D01*
X148760900Y-109153500D01*
X148778493Y-109105162D01*
X148823042Y-109079442D01*
X148836100Y-109078300D01*
X149464397Y-109078300D01*
X149512735Y-109095893D01*
X149538455Y-109140442D01*
X149529522Y-109191100D01*
X149498537Y-109220504D01*
X149467240Y-109236451D01*
X149456726Y-109241808D01*
X149365585Y-109332949D01*
X149362897Y-109338225D01*
X149362896Y-109338226D01*
X149356615Y-109350554D01*
X149307068Y-109447794D01*
X149305207Y-109459546D01*
X149288817Y-109563031D01*
X149286905Y-109575100D01*
X149287831Y-109580947D01*
X149293905Y-109619295D01*
X149307068Y-109702406D01*
X149327616Y-109742734D01*
X149361985Y-109810185D01*
X149365585Y-109817251D01*
X149447751Y-109899417D01*
X149469491Y-109946037D01*
X149469777Y-109952591D01*
X149469777Y-109964921D01*
X149452184Y-110013259D01*
X149447752Y-110018095D01*
X149289123Y-110176723D01*
X149059371Y-110406475D01*
X149012751Y-110428214D01*
X149006197Y-110428500D01*
X148834173Y-110428500D01*
X148785835Y-110410907D01*
X148760115Y-110366358D01*
X148759479Y-110344588D01*
X148760148Y-110338849D01*
X148760400Y-110334520D01*
X148760400Y-110198459D01*
X148756703Y-110188302D01*
X148751331Y-110185200D01*
X147928859Y-110185200D01*
X147918702Y-110188897D01*
X147915600Y-110194269D01*
X147915600Y-110334468D01*
X147915863Y-110338904D01*
X147916519Y-110344419D01*
X147904757Y-110394496D01*
X147863558Y-110425297D01*
X147841845Y-110428500D01*
X147814682Y-110428500D01*
X147766344Y-110410907D01*
X147740624Y-110366358D01*
X147739988Y-110344593D01*
X147740900Y-110336772D01*
X147740900Y-109881228D01*
X147740526Y-109878080D01*
X147738580Y-109861730D01*
X147737913Y-109856124D01*
X147694376Y-109758107D01*
X147689465Y-109753205D01*
X147689464Y-109753203D01*
X147623385Y-109687240D01*
X147623384Y-109687239D01*
X147618471Y-109682335D01*
X147612121Y-109679528D01*
X147612120Y-109679527D01*
X147591893Y-109670585D01*
X147554797Y-109634949D01*
X147547100Y-109601807D01*
X147547100Y-109600147D01*
X147564693Y-109551809D01*
X147591773Y-109531422D01*
X147597829Y-109528732D01*
X147618893Y-109519376D01*
X147623795Y-109514465D01*
X147623797Y-109514464D01*
X147689760Y-109448385D01*
X147689761Y-109448384D01*
X147694665Y-109443471D01*
X147705874Y-109418118D01*
X147731944Y-109359147D01*
X147738031Y-109345379D01*
X147740900Y-109320772D01*
X147740900Y-108865228D01*
X147739990Y-108857581D01*
X147751752Y-108807504D01*
X147792951Y-108776703D01*
X147814664Y-108773500D01*
X147841318Y-108773500D01*
X147889656Y-108791093D01*
G37*
G04 #@! TD.AperFunction*
G04 #@! TA.AperFunction,Conductor*
G36*
X154953534Y-109069064D02*
G01*
X154983039Y-109111201D01*
X154985601Y-109130664D01*
X154985601Y-109175227D01*
X154985863Y-109179644D01*
X154987967Y-109197337D01*
X154990923Y-109208092D01*
X155030034Y-109296144D01*
X155037762Y-109307388D01*
X155105028Y-109374537D01*
X155116293Y-109382250D01*
X155167616Y-109404940D01*
X155204712Y-109440576D01*
X155210222Y-109491720D01*
X155181569Y-109534441D01*
X155167735Y-109542443D01*
X155116210Y-109565330D01*
X155109226Y-109568432D01*
X155077521Y-109600193D01*
X155037460Y-109640324D01*
X155032138Y-109645655D01*
X155029331Y-109652005D01*
X155029330Y-109652006D01*
X155020544Y-109671880D01*
X154988018Y-109745451D01*
X154985100Y-109770479D01*
X154985101Y-109895257D01*
X154985101Y-109989913D01*
X154967508Y-110038250D01*
X154963075Y-110043087D01*
X154880465Y-110125697D01*
X154833845Y-110147437D01*
X154784158Y-110134123D01*
X154774163Y-110125744D01*
X154739007Y-110090649D01*
X154739006Y-110090648D01*
X154734093Y-110085744D01*
X154727743Y-110082937D01*
X154727742Y-110082936D01*
X154647700Y-110047550D01*
X154630889Y-110040118D01*
X154621804Y-110039059D01*
X154607166Y-110037352D01*
X154607165Y-110037352D01*
X154605004Y-110037100D01*
X153339996Y-110037100D01*
X153337789Y-110037363D01*
X153337782Y-110037363D01*
X153319191Y-110039575D01*
X153319189Y-110039576D01*
X153313588Y-110040242D01*
X153210464Y-110086048D01*
X153170884Y-110125697D01*
X153135959Y-110160683D01*
X153130744Y-110165907D01*
X153108551Y-110216107D01*
X153072916Y-110253203D01*
X153039773Y-110260900D01*
X151795940Y-110260900D01*
X151747602Y-110243307D01*
X151721666Y-110197464D01*
X151718009Y-110174376D01*
X151717083Y-110168529D01*
X151683052Y-110101740D01*
X151676783Y-110050684D01*
X151704799Y-110007543D01*
X151750056Y-109992400D01*
X152008041Y-109992400D01*
X152018198Y-109988703D01*
X152021300Y-109983331D01*
X152021300Y-109979141D01*
X152173700Y-109979141D01*
X152177397Y-109989298D01*
X152182769Y-109992400D01*
X152727700Y-109992400D01*
X152732142Y-109992137D01*
X152750689Y-109989930D01*
X152761454Y-109986971D01*
X152852903Y-109946351D01*
X152864152Y-109938621D01*
X152933931Y-109868719D01*
X152941644Y-109857454D01*
X152982100Y-109765945D01*
X152985042Y-109755154D01*
X152987148Y-109737091D01*
X152987400Y-109732752D01*
X152987400Y-109629459D01*
X152983703Y-109619302D01*
X152978331Y-109616200D01*
X152186959Y-109616200D01*
X152176802Y-109619897D01*
X152173700Y-109625269D01*
X152173700Y-109979141D01*
X152021300Y-109979141D01*
X152021300Y-109539000D01*
X152038893Y-109490662D01*
X152083442Y-109464942D01*
X152096500Y-109463800D01*
X152974141Y-109463800D01*
X152984297Y-109460104D01*
X152989447Y-109451184D01*
X153028852Y-109418118D01*
X153035124Y-109416142D01*
X153035434Y-109416059D01*
X153054883Y-109413500D01*
X154418361Y-109413500D01*
X154422298Y-109413603D01*
X154462960Y-109415734D01*
X154486071Y-109406863D01*
X154497363Y-109403518D01*
X154521586Y-109398369D01*
X154527979Y-109393724D01*
X154527981Y-109393723D01*
X154528573Y-109393293D01*
X154545823Y-109383927D01*
X154546505Y-109383665D01*
X154546506Y-109383664D01*
X154553885Y-109380832D01*
X154571381Y-109363336D01*
X154580353Y-109355672D01*
X154593986Y-109345767D01*
X154600379Y-109341122D01*
X154604697Y-109333643D01*
X154616648Y-109318069D01*
X154857227Y-109077490D01*
X154903847Y-109055750D01*
X154953534Y-109069064D01*
G37*
G04 #@! TD.AperFunction*
G04 #@! TA.AperFunction,Conductor*
G36*
X141301338Y-109288393D02*
G01*
X141327058Y-109332942D01*
X141328200Y-109346000D01*
X141328200Y-109796139D01*
X141340692Y-109830461D01*
X141341521Y-109877984D01*
X141340191Y-109880594D01*
X141339265Y-109886437D01*
X141339265Y-109886439D01*
X141327212Y-109962543D01*
X141320028Y-110007900D01*
X141340191Y-110135206D01*
X141342879Y-110140480D01*
X141342879Y-110140482D01*
X141348523Y-110151559D01*
X141354793Y-110202616D01*
X141326777Y-110245757D01*
X141281520Y-110260900D01*
X140414508Y-110260900D01*
X140366170Y-110243307D01*
X140340111Y-110196653D01*
X140333966Y-110154905D01*
X140331391Y-110149660D01*
X140281257Y-110047550D01*
X140281256Y-110047549D01*
X140278519Y-110041974D01*
X140274124Y-110037586D01*
X140274122Y-110037584D01*
X140230277Y-109993816D01*
X140189482Y-109953092D01*
X140127036Y-109922568D01*
X140091335Y-109885534D01*
X140087791Y-109834216D01*
X140118063Y-109792627D01*
X140126918Y-109787504D01*
X140184448Y-109759258D01*
X140184449Y-109759257D01*
X140190026Y-109756519D01*
X140194414Y-109752124D01*
X140194416Y-109752122D01*
X140238781Y-109707679D01*
X140278908Y-109667482D01*
X140289744Y-109645314D01*
X140326777Y-109609614D01*
X140378095Y-109606070D01*
X140391444Y-109611335D01*
X140408248Y-109619897D01*
X140438794Y-109635461D01*
X140455873Y-109638166D01*
X140556857Y-109654160D01*
X140566100Y-109655624D01*
X140575344Y-109654160D01*
X140676327Y-109638166D01*
X140693406Y-109635461D01*
X140725133Y-109619295D01*
X140746053Y-109608636D01*
X140797109Y-109602367D01*
X140840250Y-109630383D01*
X140848918Y-109645113D01*
X140864034Y-109679144D01*
X140871762Y-109690388D01*
X140939028Y-109757537D01*
X140950293Y-109765250D01*
X141038395Y-109804200D01*
X141049186Y-109807142D01*
X141066392Y-109809148D01*
X141070731Y-109809400D01*
X141162541Y-109809400D01*
X141172698Y-109805703D01*
X141175800Y-109800331D01*
X141175800Y-109346000D01*
X141193393Y-109297662D01*
X141237942Y-109271942D01*
X141251000Y-109270800D01*
X141253000Y-109270800D01*
X141301338Y-109288393D01*
G37*
G04 #@! TD.AperFunction*
G04 #@! TA.AperFunction,Conductor*
G36*
X165202995Y-100721093D02*
G01*
X165228715Y-100765642D01*
X165219385Y-100816980D01*
X165150906Y-100932770D01*
X165147178Y-100941387D01*
X165103582Y-101091444D01*
X165102210Y-101098959D01*
X165099716Y-101130641D01*
X165099600Y-101133599D01*
X165099600Y-101608541D01*
X165103297Y-101618698D01*
X165108669Y-101621800D01*
X166503000Y-101621800D01*
X166551338Y-101639393D01*
X166577058Y-101683942D01*
X166578200Y-101697000D01*
X166578200Y-102837140D01*
X166581897Y-102847297D01*
X166587269Y-102850399D01*
X167316399Y-102850399D01*
X167319361Y-102850282D01*
X167351034Y-102847791D01*
X167358562Y-102846416D01*
X167508613Y-102802822D01*
X167517231Y-102799093D01*
X167650965Y-102720003D01*
X167658387Y-102714245D01*
X167771594Y-102601038D01*
X167772907Y-102602351D01*
X167810409Y-102578735D01*
X167861373Y-102585717D01*
X167895926Y-102623824D01*
X167901500Y-102652237D01*
X167901500Y-106243763D01*
X167883907Y-106292101D01*
X167839358Y-106317821D01*
X167788700Y-106308888D01*
X167772126Y-106294430D01*
X167771594Y-106294962D01*
X167658387Y-106181755D01*
X167650965Y-106175997D01*
X167517231Y-106096907D01*
X167508613Y-106093178D01*
X167358556Y-106049582D01*
X167351041Y-106048210D01*
X167319359Y-106045716D01*
X167316401Y-106045600D01*
X166591459Y-106045600D01*
X166581302Y-106049297D01*
X166578200Y-106054669D01*
X166578200Y-108337140D01*
X166581897Y-108347297D01*
X166587269Y-108350399D01*
X167316399Y-108350399D01*
X167319361Y-108350282D01*
X167351034Y-108347791D01*
X167358562Y-108346416D01*
X167508613Y-108302822D01*
X167517231Y-108299093D01*
X167650965Y-108220003D01*
X167658387Y-108214245D01*
X167771594Y-108101038D01*
X167772907Y-108102351D01*
X167810409Y-108078735D01*
X167861373Y-108085717D01*
X167895926Y-108123824D01*
X167901500Y-108152237D01*
X167901500Y-109858902D01*
X167883907Y-109907240D01*
X167839358Y-109932960D01*
X167795894Y-109927680D01*
X167717379Y-109892969D01*
X167708375Y-109891919D01*
X167694934Y-109890352D01*
X167694933Y-109890352D01*
X167692772Y-109890100D01*
X167397244Y-109890100D01*
X167348906Y-109872507D01*
X167344070Y-109868074D01*
X166950303Y-109474306D01*
X166539630Y-109063633D01*
X166536920Y-109060778D01*
X166514958Y-109036387D01*
X166509670Y-109030514D01*
X166487053Y-109020444D01*
X166476697Y-109014821D01*
X166471241Y-109011278D01*
X166455936Y-109001339D01*
X166447412Y-108999989D01*
X166428587Y-108994413D01*
X166427920Y-108994116D01*
X166420697Y-108990900D01*
X166395946Y-108990900D01*
X166384182Y-108989974D01*
X166367548Y-108987339D01*
X166367546Y-108987339D01*
X166359742Y-108986103D01*
X166352110Y-108988148D01*
X166352109Y-108988148D01*
X166351401Y-108988338D01*
X166331938Y-108990900D01*
X165881367Y-108990900D01*
X165877432Y-108990797D01*
X165844652Y-108989079D01*
X165844650Y-108989079D01*
X165836761Y-108988666D01*
X165813650Y-108997537D01*
X165802358Y-109000882D01*
X165778135Y-109006031D01*
X165771742Y-109010676D01*
X165771740Y-109010677D01*
X165771148Y-109011107D01*
X165753898Y-109020473D01*
X165753216Y-109020735D01*
X165753215Y-109020736D01*
X165745836Y-109023568D01*
X165728340Y-109041064D01*
X165719368Y-109048728D01*
X165699342Y-109063278D01*
X165695390Y-109070123D01*
X165695024Y-109070757D01*
X165683073Y-109086331D01*
X165215726Y-109553677D01*
X165169106Y-109575417D01*
X165119419Y-109562103D01*
X165095548Y-109534643D01*
X165054981Y-109455026D01*
X165054980Y-109455025D01*
X165052292Y-109449749D01*
X164961151Y-109358608D01*
X164946291Y-109351036D01*
X164902570Y-109328759D01*
X164846306Y-109300091D01*
X164719000Y-109279928D01*
X164591694Y-109300091D01*
X164586421Y-109302778D01*
X164586418Y-109302779D01*
X164522581Y-109335306D01*
X164471524Y-109341576D01*
X164435266Y-109321477D01*
X164393423Y-109279634D01*
X164390713Y-109276779D01*
X164368750Y-109252387D01*
X164363462Y-109246514D01*
X164340845Y-109236444D01*
X164330489Y-109230821D01*
X164309728Y-109217339D01*
X164308568Y-109217155D01*
X164272833Y-109186095D01*
X164264783Y-109135289D01*
X164271599Y-109115492D01*
X164303221Y-109053431D01*
X164303221Y-109053429D01*
X164305909Y-109048155D01*
X164324396Y-108931432D01*
X164325146Y-108926696D01*
X164326072Y-108920849D01*
X164322421Y-108897794D01*
X164306835Y-108799390D01*
X164305909Y-108793543D01*
X164278180Y-108739122D01*
X164268559Y-108720240D01*
X164262290Y-108669184D01*
X164290306Y-108626043D01*
X164335563Y-108610900D01*
X164554059Y-108610900D01*
X164565822Y-108611826D01*
X164592000Y-108615972D01*
X164618178Y-108611826D01*
X164677591Y-108602416D01*
X164713459Y-108596735D01*
X164719306Y-108595809D01*
X164793947Y-108557777D01*
X164828874Y-108539981D01*
X164828875Y-108539980D01*
X164834151Y-108537292D01*
X164925292Y-108446151D01*
X164937904Y-108421400D01*
X164961037Y-108375998D01*
X164983809Y-108331306D01*
X164996391Y-108251864D01*
X165003046Y-108209847D01*
X165003972Y-108204000D01*
X164994366Y-108143346D01*
X164984735Y-108082541D01*
X164983809Y-108076694D01*
X164944149Y-107998858D01*
X164927981Y-107967126D01*
X164927980Y-107967125D01*
X164925292Y-107961849D01*
X164834151Y-107870708D01*
X164816979Y-107861958D01*
X164765223Y-107835587D01*
X164719306Y-107812191D01*
X164624024Y-107797100D01*
X164592000Y-107792028D01*
X164586153Y-107792954D01*
X164565823Y-107796174D01*
X164554059Y-107797100D01*
X164134100Y-107797100D01*
X164085762Y-107779507D01*
X164075885Y-107762399D01*
X165099601Y-107762399D01*
X165099718Y-107765361D01*
X165102209Y-107797034D01*
X165103584Y-107804562D01*
X165147178Y-107954613D01*
X165150907Y-107963231D01*
X165229997Y-108096965D01*
X165235755Y-108104387D01*
X165345613Y-108214245D01*
X165353035Y-108220003D01*
X165486769Y-108299093D01*
X165495387Y-108302822D01*
X165645444Y-108346418D01*
X165652959Y-108347790D01*
X165684641Y-108350284D01*
X165687599Y-108350400D01*
X166412541Y-108350400D01*
X166422698Y-108346703D01*
X166425800Y-108341331D01*
X166425800Y-107287459D01*
X166422103Y-107277302D01*
X166416731Y-107274200D01*
X165112860Y-107274200D01*
X165102703Y-107277897D01*
X165099601Y-107283269D01*
X165099601Y-107762399D01*
X164075885Y-107762399D01*
X164060042Y-107734958D01*
X164058900Y-107721900D01*
X164058900Y-107108541D01*
X165099600Y-107108541D01*
X165103297Y-107118698D01*
X165108669Y-107121800D01*
X166412541Y-107121800D01*
X166422698Y-107118103D01*
X166425800Y-107112731D01*
X166425800Y-106058860D01*
X166422103Y-106048703D01*
X166416731Y-106045601D01*
X165687602Y-106045601D01*
X165684639Y-106045718D01*
X165652966Y-106048209D01*
X165645438Y-106049584D01*
X165495387Y-106093178D01*
X165486769Y-106096907D01*
X165353035Y-106175997D01*
X165345613Y-106181755D01*
X165235755Y-106291613D01*
X165229997Y-106299035D01*
X165150907Y-106432769D01*
X165147178Y-106441387D01*
X165103582Y-106591444D01*
X165102210Y-106598959D01*
X165099716Y-106630641D01*
X165099600Y-106633599D01*
X165099600Y-107108541D01*
X164058900Y-107108541D01*
X164058900Y-107015976D01*
X164055825Y-106996563D01*
X164054899Y-106984798D01*
X164054899Y-105981712D01*
X164054399Y-105977504D01*
X164053663Y-105971323D01*
X164052017Y-105957482D01*
X164009992Y-105862869D01*
X164005081Y-105857967D01*
X164005080Y-105857965D01*
X163941638Y-105794634D01*
X163941637Y-105794633D01*
X163936724Y-105789729D01*
X163842038Y-105747869D01*
X163836427Y-105747215D01*
X163836424Y-105747214D01*
X163820451Y-105745352D01*
X163820450Y-105745352D01*
X163818289Y-105745100D01*
X163653552Y-105745100D01*
X163485712Y-105745101D01*
X163483521Y-105745362D01*
X163483514Y-105745362D01*
X163475323Y-105746337D01*
X163461482Y-105747983D01*
X163366869Y-105790008D01*
X163361967Y-105794919D01*
X163361965Y-105794920D01*
X163305265Y-105851720D01*
X163258664Y-105873500D01*
X163208965Y-105860230D01*
X163198920Y-105851816D01*
X163136724Y-105789729D01*
X163042038Y-105747869D01*
X163036427Y-105747215D01*
X163036424Y-105747214D01*
X163020451Y-105745352D01*
X163020450Y-105745352D01*
X163018289Y-105745100D01*
X162853552Y-105745100D01*
X162685712Y-105745101D01*
X162683521Y-105745362D01*
X162683514Y-105745362D01*
X162675323Y-105746337D01*
X162661482Y-105747983D01*
X162566869Y-105790008D01*
X162561967Y-105794919D01*
X162561965Y-105794920D01*
X162505265Y-105851720D01*
X162458664Y-105873500D01*
X162408965Y-105860230D01*
X162398920Y-105851816D01*
X162336724Y-105789729D01*
X162242038Y-105747869D01*
X162236427Y-105747215D01*
X162236424Y-105747214D01*
X162220451Y-105745352D01*
X162220450Y-105745352D01*
X162218289Y-105745100D01*
X162053552Y-105745100D01*
X161885712Y-105745101D01*
X161883521Y-105745362D01*
X161883514Y-105745362D01*
X161875323Y-105746337D01*
X161861482Y-105747983D01*
X161766869Y-105790008D01*
X161761967Y-105794919D01*
X161761965Y-105794920D01*
X161705265Y-105851720D01*
X161658664Y-105873500D01*
X161608965Y-105860230D01*
X161598920Y-105851816D01*
X161536724Y-105789729D01*
X161442038Y-105747869D01*
X161436427Y-105747215D01*
X161436424Y-105747214D01*
X161420451Y-105745352D01*
X161420450Y-105745352D01*
X161418289Y-105745100D01*
X161253552Y-105745100D01*
X161085712Y-105745101D01*
X161083521Y-105745362D01*
X161083514Y-105745362D01*
X161075323Y-105746337D01*
X161061482Y-105747983D01*
X160966869Y-105790008D01*
X160961967Y-105794919D01*
X160961965Y-105794920D01*
X160904912Y-105852073D01*
X160858310Y-105873853D01*
X160808612Y-105860583D01*
X160798563Y-105852166D01*
X160741351Y-105795054D01*
X160730086Y-105787341D01*
X160647096Y-105750652D01*
X160636303Y-105747709D01*
X160620376Y-105745852D01*
X160616038Y-105745600D01*
X160541459Y-105745600D01*
X160531302Y-105749297D01*
X160528200Y-105754669D01*
X160528200Y-108337141D01*
X160531897Y-108347298D01*
X160537269Y-108350400D01*
X160615988Y-108350400D01*
X160620426Y-108350137D01*
X160636796Y-108348189D01*
X160647556Y-108345232D01*
X160730500Y-108308391D01*
X160741747Y-108300660D01*
X160798381Y-108243927D01*
X160844982Y-108222147D01*
X160894681Y-108235417D01*
X160904728Y-108243833D01*
X160912774Y-108251864D01*
X160961942Y-108300946D01*
X160967276Y-108306271D01*
X161061962Y-108348131D01*
X161067573Y-108348785D01*
X161067576Y-108348786D01*
X161083549Y-108350648D01*
X161083550Y-108350648D01*
X161085711Y-108350900D01*
X161250448Y-108350900D01*
X161418288Y-108350899D01*
X161420479Y-108350638D01*
X161420486Y-108350638D01*
X161428677Y-108349663D01*
X161442518Y-108348017D01*
X161537131Y-108305992D01*
X161542033Y-108301081D01*
X161542035Y-108301080D01*
X161598735Y-108244280D01*
X161645336Y-108222500D01*
X161695035Y-108235770D01*
X161705080Y-108244184D01*
X161767276Y-108306271D01*
X161861962Y-108348131D01*
X161867573Y-108348785D01*
X161867576Y-108348786D01*
X161883549Y-108350648D01*
X161883550Y-108350648D01*
X161885711Y-108350900D01*
X162050448Y-108350900D01*
X162218288Y-108350899D01*
X162220479Y-108350638D01*
X162220486Y-108350638D01*
X162228677Y-108349663D01*
X162242518Y-108348017D01*
X162337131Y-108305992D01*
X162342033Y-108301081D01*
X162342035Y-108301080D01*
X162398735Y-108244280D01*
X162445336Y-108222500D01*
X162495035Y-108235770D01*
X162505080Y-108244184D01*
X162567276Y-108306271D01*
X162661962Y-108348131D01*
X162667573Y-108348785D01*
X162667576Y-108348786D01*
X162683549Y-108350648D01*
X162683550Y-108350648D01*
X162685711Y-108350900D01*
X162850448Y-108350900D01*
X163018288Y-108350899D01*
X163020479Y-108350638D01*
X163020486Y-108350638D01*
X163028677Y-108349663D01*
X163042518Y-108348017D01*
X163137131Y-108305992D01*
X163142033Y-108301081D01*
X163142035Y-108301080D01*
X163187308Y-108255727D01*
X163190742Y-108252287D01*
X163237343Y-108230507D01*
X163287042Y-108243777D01*
X163310967Y-108271276D01*
X163316018Y-108281189D01*
X163318708Y-108286468D01*
X163499328Y-108467088D01*
X163506992Y-108476060D01*
X163522576Y-108497509D01*
X163527359Y-108500984D01*
X163560123Y-108524789D01*
X163569095Y-108532453D01*
X163573934Y-108537292D01*
X163579206Y-108539978D01*
X163579211Y-108539982D01*
X163579948Y-108540357D01*
X163580410Y-108540852D01*
X163583996Y-108543458D01*
X163583489Y-108544155D01*
X163615026Y-108577981D01*
X163617713Y-108629351D01*
X163598975Y-108660531D01*
X163589783Y-108669723D01*
X163543163Y-108691463D01*
X163536609Y-108691749D01*
X157052893Y-108691749D01*
X157004555Y-108674156D01*
X156999719Y-108669723D01*
X156808770Y-108478774D01*
X156787030Y-108432154D01*
X156800344Y-108382467D01*
X156842481Y-108352962D01*
X156861944Y-108350400D01*
X157512541Y-108350400D01*
X157522698Y-108346703D01*
X157525800Y-108341331D01*
X157525800Y-108337140D01*
X157678200Y-108337140D01*
X157681897Y-108347297D01*
X157687269Y-108350399D01*
X158416399Y-108350399D01*
X158419361Y-108350282D01*
X158451034Y-108347791D01*
X158458562Y-108346416D01*
X158608613Y-108302822D01*
X158617231Y-108299093D01*
X158750965Y-108220003D01*
X158758387Y-108214245D01*
X158860644Y-108111988D01*
X160049600Y-108111988D01*
X160049863Y-108116426D01*
X160051811Y-108132796D01*
X160054768Y-108143556D01*
X160091609Y-108226500D01*
X160099340Y-108237747D01*
X160162649Y-108300946D01*
X160173914Y-108308659D01*
X160256904Y-108345348D01*
X160267697Y-108348291D01*
X160283624Y-108350148D01*
X160287962Y-108350400D01*
X160362541Y-108350400D01*
X160372698Y-108346703D01*
X160375800Y-108341331D01*
X160375800Y-107137459D01*
X160372103Y-107127302D01*
X160366731Y-107124200D01*
X160062859Y-107124200D01*
X160052702Y-107127897D01*
X160049600Y-107133269D01*
X160049600Y-108111988D01*
X158860644Y-108111988D01*
X158868245Y-108104387D01*
X158874003Y-108096965D01*
X158953093Y-107963231D01*
X158956822Y-107954613D01*
X159000418Y-107804556D01*
X159001790Y-107797041D01*
X159004284Y-107765359D01*
X159004400Y-107762401D01*
X159004400Y-107287459D01*
X159000703Y-107277302D01*
X158995331Y-107274200D01*
X157691459Y-107274200D01*
X157681302Y-107277897D01*
X157678200Y-107283269D01*
X157678200Y-108337140D01*
X157525800Y-108337140D01*
X157525800Y-107287459D01*
X157522103Y-107277302D01*
X157516731Y-107274200D01*
X156212860Y-107274200D01*
X156202703Y-107277897D01*
X156199601Y-107283269D01*
X156199601Y-107762399D01*
X156199718Y-107765361D01*
X156202209Y-107797034D01*
X156203585Y-107804566D01*
X156209570Y-107825169D01*
X156206160Y-107876496D01*
X156170556Y-107913622D01*
X156148062Y-107919480D01*
X156146942Y-107919303D01*
X156138601Y-107921538D01*
X156119138Y-107924100D01*
X155695079Y-107924100D01*
X155646741Y-107906507D01*
X155621021Y-107861958D01*
X155628076Y-107814759D01*
X155633720Y-107803682D01*
X155633720Y-107803680D01*
X155636408Y-107798406D01*
X155656571Y-107671100D01*
X155636408Y-107543794D01*
X155577891Y-107428949D01*
X155495725Y-107346783D01*
X155473985Y-107300163D01*
X155473699Y-107293609D01*
X155473699Y-107108541D01*
X156199600Y-107108541D01*
X156203297Y-107118698D01*
X156208669Y-107121800D01*
X157512541Y-107121800D01*
X157522698Y-107118103D01*
X157525800Y-107112731D01*
X157525800Y-107108541D01*
X157678200Y-107108541D01*
X157681897Y-107118698D01*
X157687269Y-107121800D01*
X158991140Y-107121800D01*
X159001297Y-107118103D01*
X159004399Y-107112731D01*
X159004399Y-106958541D01*
X160049600Y-106958541D01*
X160053297Y-106968698D01*
X160058669Y-106971800D01*
X160362541Y-106971800D01*
X160372698Y-106968103D01*
X160375800Y-106962731D01*
X160375800Y-105758859D01*
X160372103Y-105748702D01*
X160366731Y-105745600D01*
X160288012Y-105745600D01*
X160283574Y-105745863D01*
X160267204Y-105747811D01*
X160256444Y-105750768D01*
X160173500Y-105787609D01*
X160162253Y-105795340D01*
X160099054Y-105858649D01*
X160091341Y-105869914D01*
X160054652Y-105952904D01*
X160051709Y-105963697D01*
X160049852Y-105979624D01*
X160049600Y-105983962D01*
X160049600Y-106958541D01*
X159004399Y-106958541D01*
X159004399Y-106633602D01*
X159004282Y-106630639D01*
X159001791Y-106598966D01*
X159000416Y-106591438D01*
X158956822Y-106441387D01*
X158953093Y-106432769D01*
X158874003Y-106299035D01*
X158868245Y-106291613D01*
X158758387Y-106181755D01*
X158750965Y-106175997D01*
X158617231Y-106096907D01*
X158608613Y-106093178D01*
X158458556Y-106049582D01*
X158451041Y-106048210D01*
X158419359Y-106045716D01*
X158416401Y-106045600D01*
X157691459Y-106045600D01*
X157681302Y-106049297D01*
X157678200Y-106054669D01*
X157678200Y-107108541D01*
X157525800Y-107108541D01*
X157525800Y-106058860D01*
X157522103Y-106048703D01*
X157516731Y-106045601D01*
X156787602Y-106045601D01*
X156784639Y-106045718D01*
X156752966Y-106048209D01*
X156745438Y-106049584D01*
X156595387Y-106093178D01*
X156586769Y-106096907D01*
X156453035Y-106175997D01*
X156445613Y-106181755D01*
X156335755Y-106291613D01*
X156329997Y-106299035D01*
X156250907Y-106432769D01*
X156247178Y-106441387D01*
X156203582Y-106591444D01*
X156202210Y-106598959D01*
X156199716Y-106630641D01*
X156199600Y-106633599D01*
X156199600Y-107108541D01*
X155473699Y-107108541D01*
X155473699Y-105748361D01*
X155473802Y-105744426D01*
X155475520Y-105711652D01*
X155475520Y-105711649D01*
X155475933Y-105703761D01*
X155474065Y-105698896D01*
X155473699Y-105694241D01*
X155473699Y-104729568D01*
X159147029Y-104729568D01*
X159186835Y-104895373D01*
X159265042Y-105046896D01*
X159268021Y-105050310D01*
X159268023Y-105050314D01*
X159350368Y-105144707D01*
X159377135Y-105175391D01*
X159405951Y-105195643D01*
X159494737Y-105258042D01*
X159516643Y-105273438D01*
X159675511Y-105335378D01*
X159680002Y-105335969D01*
X159680005Y-105335970D01*
X159803131Y-105352180D01*
X159803136Y-105352180D01*
X159805564Y-105352500D01*
X159894756Y-105352500D01*
X159985987Y-105341460D01*
X160016779Y-105337734D01*
X160016781Y-105337734D01*
X160021281Y-105337189D01*
X160025522Y-105335587D01*
X160025524Y-105335586D01*
X160176545Y-105278520D01*
X160176547Y-105278519D01*
X160180789Y-105276916D01*
X160184527Y-105274347D01*
X160317580Y-105182902D01*
X160317582Y-105182901D01*
X160321316Y-105180334D01*
X160329452Y-105171203D01*
X160393938Y-105098825D01*
X160434748Y-105053021D01*
X160514538Y-104902324D01*
X160541299Y-104795784D01*
X160554973Y-104741347D01*
X160554973Y-104741343D01*
X160556078Y-104736946D01*
X160556117Y-104729568D01*
X163547029Y-104729568D01*
X163586835Y-104895373D01*
X163665042Y-105046896D01*
X163668021Y-105050310D01*
X163668023Y-105050314D01*
X163750368Y-105144707D01*
X163777135Y-105175391D01*
X163805951Y-105195643D01*
X163894737Y-105258042D01*
X163916643Y-105273438D01*
X164075511Y-105335378D01*
X164080002Y-105335969D01*
X164080005Y-105335970D01*
X164203131Y-105352180D01*
X164203136Y-105352180D01*
X164205564Y-105352500D01*
X164294756Y-105352500D01*
X164385987Y-105341460D01*
X164416779Y-105337734D01*
X164416781Y-105337734D01*
X164421281Y-105337189D01*
X164425522Y-105335587D01*
X164425524Y-105335586D01*
X164576545Y-105278520D01*
X164576547Y-105278519D01*
X164580789Y-105276916D01*
X164584527Y-105274347D01*
X164717580Y-105182902D01*
X164717582Y-105182901D01*
X164721316Y-105180334D01*
X164729452Y-105171203D01*
X164793938Y-105098825D01*
X164834748Y-105053021D01*
X164914538Y-104902324D01*
X164941299Y-104795784D01*
X164954973Y-104741347D01*
X164954973Y-104741343D01*
X164956078Y-104736946D01*
X164956141Y-104725030D01*
X164956749Y-104608811D01*
X164956971Y-104566432D01*
X164917165Y-104400627D01*
X164838958Y-104249104D01*
X164835979Y-104245690D01*
X164835977Y-104245686D01*
X164729844Y-104124024D01*
X164726865Y-104120609D01*
X164611368Y-104039437D01*
X164591071Y-104025172D01*
X164591070Y-104025171D01*
X164587357Y-104022562D01*
X164428489Y-103960622D01*
X164423998Y-103960031D01*
X164423995Y-103960030D01*
X164300869Y-103943820D01*
X164300864Y-103943820D01*
X164298436Y-103943500D01*
X164209244Y-103943500D01*
X164121446Y-103954125D01*
X164087221Y-103958266D01*
X164087219Y-103958266D01*
X164082719Y-103958811D01*
X164078478Y-103960413D01*
X164078476Y-103960414D01*
X163927455Y-104017480D01*
X163927453Y-104017481D01*
X163923211Y-104019084D01*
X163919473Y-104021653D01*
X163788692Y-104111537D01*
X163782684Y-104115666D01*
X163779668Y-104119051D01*
X163779667Y-104119052D01*
X163743448Y-104159703D01*
X163669252Y-104242979D01*
X163589462Y-104393676D01*
X163579473Y-104433444D01*
X163550924Y-104547103D01*
X163547922Y-104559054D01*
X163547898Y-104563588D01*
X163547898Y-104563590D01*
X163547650Y-104610914D01*
X163547029Y-104729568D01*
X160556117Y-104729568D01*
X160556141Y-104725030D01*
X160556749Y-104608811D01*
X160556971Y-104566432D01*
X160517165Y-104400627D01*
X160438958Y-104249104D01*
X160435979Y-104245690D01*
X160435977Y-104245686D01*
X160329844Y-104124024D01*
X160326865Y-104120609D01*
X160211368Y-104039437D01*
X160191071Y-104025172D01*
X160191070Y-104025171D01*
X160187357Y-104022562D01*
X160028489Y-103960622D01*
X160023998Y-103960031D01*
X160023995Y-103960030D01*
X159900869Y-103943820D01*
X159900864Y-103943820D01*
X159898436Y-103943500D01*
X159809244Y-103943500D01*
X159721446Y-103954125D01*
X159687221Y-103958266D01*
X159687219Y-103958266D01*
X159682719Y-103958811D01*
X159678478Y-103960413D01*
X159678476Y-103960414D01*
X159527455Y-104017480D01*
X159527453Y-104017481D01*
X159523211Y-104019084D01*
X159519473Y-104021653D01*
X159388692Y-104111537D01*
X159382684Y-104115666D01*
X159379668Y-104119051D01*
X159379667Y-104119052D01*
X159343448Y-104159703D01*
X159269252Y-104242979D01*
X159189462Y-104393676D01*
X159179473Y-104433444D01*
X159150924Y-104547103D01*
X159147922Y-104559054D01*
X159147898Y-104563588D01*
X159147898Y-104563590D01*
X159147650Y-104610914D01*
X159147029Y-104729568D01*
X155473699Y-104729568D01*
X155473699Y-104149079D01*
X155473802Y-104145144D01*
X155475521Y-104112351D01*
X155475521Y-104112348D01*
X155475934Y-104104460D01*
X155472132Y-104094555D01*
X155467066Y-104081356D01*
X155463714Y-104070043D01*
X155458568Y-104045834D01*
X155453859Y-104039353D01*
X155453492Y-104038847D01*
X155444126Y-104021597D01*
X155443864Y-104020914D01*
X155443862Y-104020912D01*
X155441031Y-104013535D01*
X155423535Y-103996039D01*
X155415871Y-103987067D01*
X155405966Y-103973434D01*
X155401321Y-103967041D01*
X155393842Y-103962723D01*
X155378268Y-103950772D01*
X155053319Y-103625823D01*
X166626391Y-103625823D01*
X166627085Y-103631130D01*
X166627085Y-103631133D01*
X166630180Y-103654800D01*
X166644980Y-103767979D01*
X166702720Y-103899203D01*
X166794970Y-104008948D01*
X166799429Y-104011916D01*
X166799430Y-104011917D01*
X166895583Y-104075922D01*
X166914313Y-104088390D01*
X166919425Y-104089987D01*
X166919427Y-104089988D01*
X166965751Y-104104460D01*
X167051157Y-104131142D01*
X167111130Y-104132242D01*
X167189137Y-104133672D01*
X167189139Y-104133672D01*
X167194499Y-104133770D01*
X167199670Y-104132360D01*
X167199672Y-104132360D01*
X167302006Y-104104460D01*
X167332817Y-104096060D01*
X167454991Y-104021045D01*
X167551200Y-103914754D01*
X167555392Y-103906103D01*
X167611374Y-103790554D01*
X167613710Y-103785733D01*
X167624096Y-103724001D01*
X167637014Y-103647222D01*
X167637015Y-103647215D01*
X167637496Y-103644354D01*
X167637647Y-103632000D01*
X167637235Y-103629121D01*
X167618082Y-103495379D01*
X167618081Y-103495376D01*
X167617323Y-103490082D01*
X167615108Y-103485210D01*
X167615107Y-103485207D01*
X167563460Y-103371616D01*
X167557984Y-103359572D01*
X167507269Y-103300715D01*
X167467894Y-103255017D01*
X167467891Y-103255014D01*
X167464400Y-103250963D01*
X167456098Y-103245582D01*
X167348588Y-103175897D01*
X167348587Y-103175896D01*
X167344095Y-103172985D01*
X167273782Y-103151957D01*
X167211873Y-103133442D01*
X167211870Y-103133442D01*
X167206739Y-103131907D01*
X167201384Y-103131874D01*
X167201382Y-103131874D01*
X167137259Y-103131482D01*
X167063376Y-103131031D01*
X166925529Y-103170428D01*
X166884334Y-103196420D01*
X166811869Y-103242142D01*
X166804280Y-103246930D01*
X166800735Y-103250943D01*
X166800736Y-103250943D01*
X166712923Y-103350372D01*
X166712921Y-103350375D01*
X166709377Y-103354388D01*
X166703013Y-103367943D01*
X166651124Y-103478462D01*
X166648447Y-103484163D01*
X166647623Y-103489453D01*
X166647623Y-103489454D01*
X166643349Y-103516908D01*
X166626391Y-103625823D01*
X155053319Y-103625823D01*
X154711921Y-103284424D01*
X154042130Y-102614633D01*
X154039420Y-102611778D01*
X154029789Y-102601082D01*
X154017167Y-102587063D01*
X154003314Y-102561744D01*
X154002862Y-102561945D01*
X153964443Y-102475453D01*
X153958568Y-102462226D01*
X153911266Y-102415007D01*
X153886259Y-102390043D01*
X153886258Y-102390042D01*
X153881345Y-102385138D01*
X153781549Y-102341018D01*
X153775931Y-102340363D01*
X153758683Y-102338352D01*
X153758682Y-102338352D01*
X153756521Y-102338100D01*
X153736460Y-102338100D01*
X153466895Y-102338101D01*
X153418558Y-102320508D01*
X153411011Y-102313220D01*
X153403958Y-102305387D01*
X153398670Y-102299514D01*
X153376053Y-102289444D01*
X153365697Y-102283821D01*
X153344936Y-102270339D01*
X153336412Y-102268989D01*
X153317587Y-102263413D01*
X153316920Y-102263116D01*
X153315310Y-102262399D01*
X156199601Y-102262399D01*
X156199718Y-102265361D01*
X156202209Y-102297034D01*
X156203584Y-102304562D01*
X156247178Y-102454613D01*
X156250907Y-102463231D01*
X156329997Y-102596965D01*
X156335755Y-102604387D01*
X156445613Y-102714245D01*
X156453035Y-102720003D01*
X156586769Y-102799093D01*
X156595387Y-102802822D01*
X156745444Y-102846418D01*
X156752959Y-102847790D01*
X156784641Y-102850284D01*
X156787599Y-102850400D01*
X157512541Y-102850400D01*
X157522698Y-102846703D01*
X157525800Y-102841331D01*
X157525800Y-102837140D01*
X157678200Y-102837140D01*
X157681897Y-102847297D01*
X157687269Y-102850399D01*
X158416399Y-102850399D01*
X158419361Y-102850282D01*
X158451034Y-102847791D01*
X158458562Y-102846416D01*
X158608613Y-102802822D01*
X158617231Y-102799093D01*
X158750965Y-102720003D01*
X158758387Y-102714245D01*
X158868245Y-102604387D01*
X158874003Y-102596965D01*
X158953093Y-102463231D01*
X158956822Y-102454613D01*
X159000418Y-102304556D01*
X159001790Y-102297041D01*
X159004284Y-102265359D01*
X159004400Y-102262401D01*
X159004400Y-102262399D01*
X165099601Y-102262399D01*
X165099718Y-102265361D01*
X165102209Y-102297034D01*
X165103584Y-102304562D01*
X165147178Y-102454613D01*
X165150907Y-102463231D01*
X165229997Y-102596965D01*
X165235755Y-102604387D01*
X165345613Y-102714245D01*
X165353035Y-102720003D01*
X165486769Y-102799093D01*
X165495387Y-102802822D01*
X165645444Y-102846418D01*
X165652959Y-102847790D01*
X165684641Y-102850284D01*
X165687599Y-102850400D01*
X166412541Y-102850400D01*
X166422698Y-102846703D01*
X166425800Y-102841331D01*
X166425800Y-101787459D01*
X166422103Y-101777302D01*
X166416731Y-101774200D01*
X165112860Y-101774200D01*
X165102703Y-101777897D01*
X165099601Y-101783269D01*
X165099601Y-102262399D01*
X159004400Y-102262399D01*
X159004400Y-101787459D01*
X159000703Y-101777302D01*
X158995331Y-101774200D01*
X157691459Y-101774200D01*
X157681302Y-101777897D01*
X157678200Y-101783269D01*
X157678200Y-102837140D01*
X157525800Y-102837140D01*
X157525800Y-101787459D01*
X157522103Y-101777302D01*
X157516731Y-101774200D01*
X156212860Y-101774200D01*
X156202703Y-101777897D01*
X156199601Y-101783269D01*
X156199601Y-102262399D01*
X153315310Y-102262399D01*
X153309697Y-102259900D01*
X153284946Y-102259900D01*
X153273182Y-102258974D01*
X153256548Y-102256339D01*
X153256546Y-102256339D01*
X153248742Y-102255103D01*
X153241110Y-102257148D01*
X153241109Y-102257148D01*
X153240401Y-102257338D01*
X153220938Y-102259900D01*
X153158491Y-102259900D01*
X153110153Y-102242307D01*
X153105317Y-102237874D01*
X153096317Y-102228874D01*
X153074577Y-102182254D01*
X153087891Y-102132567D01*
X153130028Y-102103062D01*
X153149491Y-102100500D01*
X154891667Y-102100500D01*
X154904143Y-102101542D01*
X154917050Y-102103713D01*
X154927646Y-102105496D01*
X154930553Y-102105532D01*
X154930558Y-102105532D01*
X154933684Y-102105570D01*
X154940000Y-102105647D01*
X154943010Y-102105216D01*
X154945355Y-102104880D01*
X154956904Y-102103226D01*
X154961653Y-102102699D01*
X155046704Y-102096006D01*
X155135163Y-102089044D01*
X155135165Y-102089044D01*
X155138109Y-102088812D01*
X155152980Y-102085242D01*
X155328459Y-102043114D01*
X155328463Y-102043113D01*
X155331340Y-102042422D01*
X155334069Y-102041292D01*
X155334074Y-102041290D01*
X155512212Y-101967502D01*
X155512213Y-101967502D01*
X155514935Y-101966374D01*
X155684374Y-101862542D01*
X155835483Y-101733483D01*
X155964542Y-101582374D01*
X155966084Y-101579858D01*
X156060281Y-101426142D01*
X156100539Y-101394120D01*
X156151961Y-101395467D01*
X156190487Y-101429552D01*
X156199600Y-101465434D01*
X156199600Y-101608541D01*
X156203297Y-101618698D01*
X156208669Y-101621800D01*
X158991140Y-101621800D01*
X159001297Y-101618103D01*
X159004399Y-101612731D01*
X159004399Y-101133602D01*
X159004282Y-101130639D01*
X159001791Y-101098966D01*
X159000416Y-101091438D01*
X158956822Y-100941387D01*
X158953094Y-100932770D01*
X158884615Y-100816980D01*
X158875153Y-100766418D01*
X158900404Y-100721603D01*
X158949343Y-100703500D01*
X165154657Y-100703500D01*
X165202995Y-100721093D01*
G37*
G04 #@! TD.AperFunction*
G04 #@! TA.AperFunction,Conductor*
G36*
X140783131Y-108187756D02*
G01*
X140815503Y-108227732D01*
X140816294Y-108232457D01*
X140823297Y-108251698D01*
X140828669Y-108254800D01*
X141253000Y-108254800D01*
X141301338Y-108272393D01*
X141327058Y-108316942D01*
X141328200Y-108330000D01*
X141328200Y-108332000D01*
X141310607Y-108380338D01*
X141266058Y-108406058D01*
X141253000Y-108407200D01*
X140832860Y-108407200D01*
X140822703Y-108410897D01*
X140819601Y-108416269D01*
X140819601Y-108542227D01*
X140819863Y-108546644D01*
X140821967Y-108564337D01*
X140824923Y-108575092D01*
X140864034Y-108663144D01*
X140871762Y-108674388D01*
X140939028Y-108741537D01*
X140950293Y-108749250D01*
X140997720Y-108770217D01*
X141034816Y-108805853D01*
X141040327Y-108856996D01*
X141011674Y-108899717D01*
X140997840Y-108907720D01*
X140949856Y-108929034D01*
X140932886Y-108940697D01*
X140931886Y-108939242D01*
X140893257Y-108957300D01*
X140843557Y-108944033D01*
X140833457Y-108935566D01*
X140808251Y-108910360D01*
X140780273Y-108896104D01*
X140728903Y-108869930D01*
X140693406Y-108851843D01*
X140619414Y-108840124D01*
X140571947Y-108832606D01*
X140566100Y-108831680D01*
X140560253Y-108832606D01*
X140512786Y-108840124D01*
X140438794Y-108851843D01*
X140433519Y-108854531D01*
X140433518Y-108854531D01*
X140409965Y-108866532D01*
X140358908Y-108872802D01*
X140315767Y-108844786D01*
X140308322Y-108832672D01*
X140281260Y-108777555D01*
X140281257Y-108777551D01*
X140278519Y-108771974D01*
X140274124Y-108767586D01*
X140274122Y-108767584D01*
X140234161Y-108727694D01*
X140189482Y-108683092D01*
X140127036Y-108652568D01*
X140091335Y-108615534D01*
X140087791Y-108564216D01*
X140118063Y-108522627D01*
X140126918Y-108517504D01*
X140184448Y-108489258D01*
X140184449Y-108489257D01*
X140190026Y-108486519D01*
X140194414Y-108482124D01*
X140194416Y-108482122D01*
X140251975Y-108424462D01*
X140278908Y-108397482D01*
X140281637Y-108391898D01*
X140281639Y-108391896D01*
X140326030Y-108301080D01*
X140334157Y-108284454D01*
X140338850Y-108252287D01*
X140340140Y-108243444D01*
X140364527Y-108198152D01*
X140414552Y-108179100D01*
X140677119Y-108179100D01*
X140681056Y-108179203D01*
X140721718Y-108181334D01*
X140729098Y-108178501D01*
X140732636Y-108177941D01*
X140783131Y-108187756D01*
G37*
G04 #@! TD.AperFunction*
G04 #@! TA.AperFunction,Conductor*
G36*
X152683057Y-105034974D02*
G01*
X152722713Y-105033243D01*
X152763523Y-105064557D01*
X152775300Y-105104962D01*
X152775300Y-105188440D01*
X152775197Y-105192376D01*
X152773066Y-105233039D01*
X152781937Y-105256150D01*
X152785282Y-105267442D01*
X152790431Y-105291665D01*
X152795076Y-105298058D01*
X152795077Y-105298060D01*
X152795507Y-105298652D01*
X152804873Y-105315902D01*
X152807968Y-105323964D01*
X152825464Y-105341460D01*
X152833128Y-105350432D01*
X152834631Y-105352500D01*
X152847678Y-105370458D01*
X152854523Y-105374410D01*
X152855157Y-105374776D01*
X152870731Y-105386727D01*
X153058074Y-105574070D01*
X153079814Y-105620690D01*
X153080100Y-105627244D01*
X153080101Y-105777328D01*
X153080101Y-105918520D01*
X153083138Y-105944055D01*
X153127432Y-106043774D01*
X153149481Y-106065784D01*
X153199441Y-106115657D01*
X153204655Y-106120862D01*
X153211005Y-106123669D01*
X153211006Y-106123670D01*
X153235005Y-106134280D01*
X153304451Y-106164982D01*
X153310069Y-106165637D01*
X153327317Y-106167648D01*
X153327318Y-106167648D01*
X153329479Y-106167900D01*
X153541007Y-106167900D01*
X153756520Y-106167899D01*
X153782055Y-106164862D01*
X153881774Y-106120568D01*
X153952636Y-106049582D01*
X153953957Y-106048259D01*
X153953958Y-106048258D01*
X153958862Y-106043345D01*
X153974094Y-106008891D01*
X154009729Y-105971797D01*
X154042871Y-105964100D01*
X154940299Y-105964100D01*
X154988637Y-105981693D01*
X155014357Y-106026242D01*
X155015499Y-106039300D01*
X155015499Y-107293609D01*
X154997906Y-107341947D01*
X154993473Y-107346783D01*
X154911307Y-107428949D01*
X154852790Y-107543794D01*
X154832627Y-107671100D01*
X154852790Y-107798406D01*
X154855478Y-107803680D01*
X154855478Y-107803682D01*
X154897005Y-107885182D01*
X154903275Y-107936239D01*
X154883176Y-107972497D01*
X154881409Y-107974264D01*
X154872437Y-107981928D01*
X154852411Y-107996478D01*
X154848459Y-108003323D01*
X154848093Y-108003957D01*
X154836142Y-108019531D01*
X154227198Y-108628474D01*
X154180578Y-108650214D01*
X154174024Y-108650500D01*
X153267118Y-108650500D01*
X153218780Y-108632907D01*
X153213943Y-108628474D01*
X153087280Y-108501810D01*
X153065541Y-108455190D01*
X153078855Y-108405503D01*
X153120992Y-108375998D01*
X153174595Y-108381632D01*
X153218534Y-108404020D01*
X153229654Y-108407633D01*
X153313655Y-108420938D01*
X153319527Y-108421400D01*
X153502041Y-108421400D01*
X153512198Y-108417703D01*
X153515300Y-108412331D01*
X153515300Y-108408140D01*
X153667700Y-108408140D01*
X153671397Y-108418297D01*
X153676769Y-108421399D01*
X153863471Y-108421399D01*
X153869346Y-108420936D01*
X153953347Y-108407633D01*
X153964465Y-108404021D01*
X154065727Y-108352426D01*
X154075194Y-108345547D01*
X154155547Y-108265194D01*
X154162426Y-108255727D01*
X154214020Y-108154467D01*
X154217633Y-108143346D01*
X154230938Y-108059345D01*
X154231400Y-108053473D01*
X154231400Y-107658459D01*
X154227703Y-107648302D01*
X154222331Y-107645200D01*
X153680959Y-107645200D01*
X153670802Y-107648897D01*
X153667700Y-107654269D01*
X153667700Y-108408140D01*
X153515300Y-108408140D01*
X153515300Y-107658459D01*
X153511603Y-107648302D01*
X153506231Y-107645200D01*
X152964860Y-107645200D01*
X152954703Y-107648897D01*
X152951601Y-107654269D01*
X152951601Y-108053474D01*
X152952065Y-108059370D01*
X152938318Y-108108939D01*
X152895925Y-108138075D01*
X152844722Y-108133144D01*
X152823923Y-108118444D01*
X152748821Y-108043342D01*
X152742355Y-108040047D01*
X152695756Y-108016304D01*
X152633976Y-107984825D01*
X152522360Y-107967147D01*
X152512517Y-107965588D01*
X152506670Y-107964662D01*
X152500823Y-107965588D01*
X152500822Y-107965588D01*
X152443863Y-107974609D01*
X152393369Y-107964794D01*
X152360997Y-107924817D01*
X152356900Y-107900335D01*
X152356900Y-107479541D01*
X152951600Y-107479541D01*
X152955297Y-107489698D01*
X152960669Y-107492800D01*
X153502041Y-107492800D01*
X153512198Y-107489103D01*
X153515300Y-107483731D01*
X153515300Y-107479541D01*
X153667700Y-107479541D01*
X153671397Y-107489698D01*
X153676769Y-107492800D01*
X154218140Y-107492800D01*
X154228297Y-107489103D01*
X154231399Y-107483731D01*
X154231399Y-107084529D01*
X154230936Y-107078654D01*
X154217633Y-106994653D01*
X154214021Y-106983535D01*
X154162426Y-106882273D01*
X154155547Y-106872806D01*
X154075194Y-106792453D01*
X154065727Y-106785574D01*
X153964467Y-106733980D01*
X153953346Y-106730367D01*
X153869345Y-106717062D01*
X153863473Y-106716600D01*
X153680959Y-106716600D01*
X153670802Y-106720297D01*
X153667700Y-106725669D01*
X153667700Y-107479541D01*
X153515300Y-107479541D01*
X153515300Y-106729860D01*
X153511603Y-106719703D01*
X153506231Y-106716601D01*
X153319529Y-106716601D01*
X153313654Y-106717064D01*
X153229653Y-106730367D01*
X153218535Y-106733979D01*
X153117273Y-106785574D01*
X153107806Y-106792453D01*
X153027453Y-106872806D01*
X153020574Y-106882273D01*
X152968980Y-106983533D01*
X152965367Y-106994654D01*
X152952062Y-107078655D01*
X152951600Y-107084527D01*
X152951600Y-107479541D01*
X152356900Y-107479541D01*
X152356900Y-107081534D01*
X152353922Y-107062728D01*
X152343115Y-106994498D01*
X152342189Y-106988651D01*
X152292652Y-106891430D01*
X152287835Y-106881976D01*
X152287834Y-106881975D01*
X152285146Y-106876699D01*
X152196301Y-106787854D01*
X152084349Y-106730811D01*
X152051883Y-106725669D01*
X151994384Y-106716562D01*
X151994382Y-106716562D01*
X151991466Y-106716100D01*
X151441534Y-106716100D01*
X151438618Y-106716562D01*
X151438616Y-106716562D01*
X151381117Y-106725669D01*
X151348651Y-106730811D01*
X151236699Y-106787854D01*
X151147854Y-106876699D01*
X151145166Y-106881975D01*
X151145165Y-106881976D01*
X151140348Y-106891430D01*
X151090811Y-106988651D01*
X151089885Y-106994498D01*
X151079079Y-107062728D01*
X151076100Y-107081534D01*
X151076100Y-107782413D01*
X151058507Y-107830751D01*
X151054074Y-107835587D01*
X150769188Y-108120473D01*
X150722568Y-108142213D01*
X150672881Y-108128899D01*
X150649011Y-108101440D01*
X150626612Y-108057481D01*
X150626610Y-108057478D01*
X150623921Y-108052201D01*
X150532780Y-107961060D01*
X150526106Y-107957659D01*
X150461650Y-107924817D01*
X150417935Y-107902543D01*
X150347536Y-107891393D01*
X150296476Y-107883306D01*
X150290629Y-107882380D01*
X150284782Y-107883306D01*
X150233722Y-107891393D01*
X150163323Y-107902543D01*
X150119608Y-107924817D01*
X150055153Y-107957659D01*
X150048478Y-107961060D01*
X149957337Y-108052201D01*
X149954649Y-108057477D01*
X149954648Y-108057478D01*
X149939243Y-108087712D01*
X149898820Y-108167046D01*
X149897894Y-108172893D01*
X149885386Y-108251864D01*
X149860448Y-108296854D01*
X149811112Y-108315300D01*
X148195348Y-108315300D01*
X148147010Y-108297707D01*
X148121290Y-108253158D01*
X148130223Y-108202500D01*
X148142174Y-108186926D01*
X148911223Y-107417878D01*
X149784737Y-106544364D01*
X149831357Y-106522624D01*
X149841842Y-106522441D01*
X149851247Y-106522934D01*
X149874358Y-106514063D01*
X149885650Y-106510718D01*
X149909873Y-106505569D01*
X149916266Y-106500924D01*
X149916268Y-106500923D01*
X149916860Y-106500493D01*
X149934110Y-106491127D01*
X149934792Y-106490865D01*
X149934793Y-106490864D01*
X149942172Y-106488032D01*
X149956278Y-106473926D01*
X150002898Y-106452186D01*
X150009452Y-106451900D01*
X151935692Y-106451900D01*
X151939629Y-106452003D01*
X151980291Y-106454134D01*
X152003402Y-106445263D01*
X152014694Y-106441918D01*
X152038917Y-106436769D01*
X152045310Y-106432124D01*
X152045312Y-106432123D01*
X152045904Y-106431693D01*
X152063154Y-106422327D01*
X152063836Y-106422065D01*
X152063837Y-106422064D01*
X152071216Y-106419232D01*
X152088712Y-106401736D01*
X152097684Y-106394072D01*
X152111317Y-106384167D01*
X152117710Y-106379522D01*
X152122029Y-106372042D01*
X152133978Y-106356470D01*
X152274549Y-106215900D01*
X152417376Y-106073073D01*
X152420231Y-106070364D01*
X152443309Y-106049584D01*
X152450486Y-106043122D01*
X152460551Y-106020516D01*
X152466179Y-106010150D01*
X152475359Y-105996014D01*
X152479662Y-105989388D01*
X152480898Y-105981584D01*
X152480899Y-105981581D01*
X152481014Y-105980856D01*
X152486589Y-105962036D01*
X152486883Y-105961375D01*
X152486883Y-105961373D01*
X152490100Y-105954149D01*
X152490100Y-105929398D01*
X152491026Y-105917635D01*
X152493661Y-105901000D01*
X152493661Y-105900998D01*
X152494897Y-105893193D01*
X152492662Y-105884851D01*
X152490100Y-105865389D01*
X152490100Y-105765687D01*
X152502773Y-105723909D01*
X152511000Y-105711596D01*
X152526402Y-105688545D01*
X152538900Y-105625715D01*
X152538899Y-105233286D01*
X152537281Y-105225148D01*
X152527847Y-105177720D01*
X152526402Y-105170455D01*
X152520672Y-105161879D01*
X152519785Y-105158256D01*
X152519453Y-105157454D01*
X152519576Y-105157403D01*
X152508444Y-105111914D01*
X152531194Y-105065779D01*
X152583197Y-105044899D01*
X152619714Y-105044899D01*
X152623337Y-105044178D01*
X152623341Y-105044178D01*
X152682545Y-105032402D01*
X152683057Y-105034974D01*
G37*
G04 #@! TD.AperFunction*
G04 #@! TA.AperFunction,Conductor*
G36*
X142546862Y-107731062D02*
G01*
X142550372Y-107733612D01*
X142555661Y-107739486D01*
X142562881Y-107742700D01*
X142562880Y-107742700D01*
X142578265Y-107749550D01*
X142588633Y-107755179D01*
X142599751Y-107762399D01*
X142609395Y-107768662D01*
X142617199Y-107769898D01*
X142617201Y-107769899D01*
X142617924Y-107770013D01*
X142636743Y-107775587D01*
X142644634Y-107779100D01*
X142669384Y-107779100D01*
X142681147Y-107780026D01*
X142705589Y-107783897D01*
X142705884Y-107783818D01*
X142750658Y-107797506D01*
X142778675Y-107840646D01*
X142778785Y-107847787D01*
X142779417Y-107847690D01*
X142783078Y-107871479D01*
X142785694Y-107873772D01*
X142785842Y-107873800D01*
X144781000Y-107873800D01*
X144829338Y-107891393D01*
X144855058Y-107935942D01*
X144856200Y-107949000D01*
X144856200Y-107951000D01*
X144838607Y-107999338D01*
X144794058Y-108025058D01*
X144781000Y-108026200D01*
X142792107Y-108026200D01*
X142781950Y-108029897D01*
X142780211Y-108032909D01*
X142780289Y-108040047D01*
X142778418Y-108040067D01*
X142771984Y-108081870D01*
X142733310Y-108115787D01*
X142706054Y-108120900D01*
X142703605Y-108120900D01*
X142655267Y-108103307D01*
X142634880Y-108076227D01*
X142627393Y-108059370D01*
X142597568Y-107992226D01*
X142544480Y-107939231D01*
X142525259Y-107920043D01*
X142525258Y-107920042D01*
X142520345Y-107915138D01*
X142500823Y-107906507D01*
X142486862Y-107900335D01*
X142420549Y-107871018D01*
X142397777Y-107868363D01*
X142397683Y-107868352D01*
X142397682Y-107868352D01*
X142395521Y-107868100D01*
X142213713Y-107868100D01*
X142028480Y-107868101D01*
X142002945Y-107871138D01*
X141903226Y-107915432D01*
X141880533Y-107938165D01*
X141831460Y-107987324D01*
X141826138Y-107992655D01*
X141823331Y-107999005D01*
X141823330Y-107999006D01*
X141800513Y-108050616D01*
X141764877Y-108087712D01*
X141713733Y-108093222D01*
X141671012Y-108064569D01*
X141663010Y-108050735D01*
X141639967Y-107998858D01*
X141632238Y-107987612D01*
X141613490Y-107968897D01*
X141591709Y-107922296D01*
X141604978Y-107872597D01*
X141613443Y-107862501D01*
X141737218Y-107738726D01*
X141783838Y-107716986D01*
X141790392Y-107716700D01*
X142502661Y-107716700D01*
X142546862Y-107731062D01*
G37*
G04 #@! TD.AperFunction*
G04 #@! TA.AperFunction,Conductor*
G36*
X141920287Y-106811283D02*
G01*
X142239130Y-107130126D01*
X142260870Y-107176746D01*
X142247556Y-107226433D01*
X142205419Y-107255938D01*
X142185956Y-107258500D01*
X141672308Y-107258500D01*
X141668373Y-107258397D01*
X141662732Y-107258101D01*
X141627708Y-107256266D01*
X141620328Y-107259099D01*
X141604609Y-107265133D01*
X141593295Y-107268485D01*
X141569083Y-107273631D01*
X141562690Y-107278276D01*
X141562688Y-107278277D01*
X141562096Y-107278707D01*
X141544846Y-107288073D01*
X141544164Y-107288335D01*
X141544163Y-107288336D01*
X141536784Y-107291168D01*
X141519288Y-107308664D01*
X141510316Y-107316328D01*
X141490290Y-107330878D01*
X141486340Y-107337720D01*
X141486339Y-107337721D01*
X141485973Y-107338356D01*
X141474022Y-107353930D01*
X141286676Y-107541275D01*
X141240056Y-107563014D01*
X141233502Y-107563300D01*
X140850639Y-107563300D01*
X140846703Y-107563197D01*
X140845297Y-107563123D01*
X140806040Y-107561066D01*
X140782929Y-107569937D01*
X140771637Y-107573282D01*
X140747414Y-107578431D01*
X140741021Y-107583076D01*
X140741019Y-107583077D01*
X140740427Y-107583507D01*
X140723177Y-107592873D01*
X140722496Y-107593134D01*
X140722493Y-107593136D01*
X140715115Y-107595968D01*
X140709527Y-107601556D01*
X140709525Y-107601557D01*
X140697612Y-107613470D01*
X140688642Y-107621131D01*
X140668621Y-107635678D01*
X140664670Y-107642522D01*
X140664306Y-107643152D01*
X140652354Y-107658729D01*
X140612207Y-107698875D01*
X140565586Y-107720614D01*
X140559033Y-107720900D01*
X140414508Y-107720900D01*
X140366170Y-107703307D01*
X140340111Y-107656653D01*
X140333966Y-107614905D01*
X140331391Y-107609660D01*
X140281257Y-107507550D01*
X140281256Y-107507549D01*
X140278519Y-107501974D01*
X140274124Y-107497586D01*
X140274122Y-107497584D01*
X140234161Y-107457694D01*
X140189482Y-107413092D01*
X140127036Y-107382568D01*
X140091335Y-107345534D01*
X140087791Y-107294216D01*
X140118063Y-107252627D01*
X140126918Y-107247504D01*
X140184448Y-107219258D01*
X140184449Y-107219257D01*
X140190026Y-107216519D01*
X140194414Y-107212124D01*
X140194416Y-107212122D01*
X140234306Y-107172161D01*
X140278908Y-107127482D01*
X140281637Y-107121898D01*
X140281639Y-107121896D01*
X140331595Y-107019695D01*
X140334157Y-107014454D01*
X140340140Y-106973444D01*
X140364527Y-106928152D01*
X140414552Y-106909100D01*
X141053715Y-106909100D01*
X141102053Y-106926693D01*
X141106889Y-106931126D01*
X141181648Y-107005885D01*
X141186924Y-107008573D01*
X141186925Y-107008574D01*
X141207248Y-107018929D01*
X141296493Y-107064402D01*
X141302340Y-107065328D01*
X141404662Y-107081534D01*
X141423799Y-107084565D01*
X141442937Y-107081534D01*
X141545258Y-107065328D01*
X141551105Y-107064402D01*
X141640350Y-107018929D01*
X141660673Y-107008574D01*
X141660674Y-107008573D01*
X141665950Y-107005885D01*
X141757091Y-106914744D01*
X141763661Y-106901851D01*
X141800109Y-106830317D01*
X141837730Y-106795235D01*
X141889100Y-106792543D01*
X141920287Y-106811283D01*
G37*
G04 #@! TD.AperFunction*
G04 #@! TA.AperFunction,Conductor*
G36*
X146542215Y-102118093D02*
G01*
X146567935Y-102162642D01*
X146559002Y-102213300D01*
X146540997Y-102234306D01*
X146490781Y-102274680D01*
X146490774Y-102274687D01*
X146487912Y-102276988D01*
X146361489Y-102427653D01*
X146359718Y-102430875D01*
X146359717Y-102430876D01*
X146300484Y-102538621D01*
X146266739Y-102600004D01*
X146207269Y-102787476D01*
X146185345Y-102982930D01*
X146185653Y-102986598D01*
X146185653Y-102986601D01*
X146200966Y-103168957D01*
X146201803Y-103178919D01*
X146256015Y-103367979D01*
X146345916Y-103542908D01*
X146348201Y-103545791D01*
X146356073Y-103555723D01*
X146468083Y-103697044D01*
X146470877Y-103699422D01*
X146470878Y-103699423D01*
X146511157Y-103733703D01*
X146617862Y-103824516D01*
X146621063Y-103826305D01*
X146621066Y-103826307D01*
X146671353Y-103854411D01*
X146789547Y-103920467D01*
X146793044Y-103921603D01*
X146793048Y-103921605D01*
X146885615Y-103951681D01*
X146976600Y-103981244D01*
X147065543Y-103991850D01*
X147168237Y-104004096D01*
X147168239Y-104004096D01*
X147171895Y-104004532D01*
X147367994Y-103989443D01*
X147518926Y-103947302D01*
X147553883Y-103937542D01*
X147553885Y-103937541D01*
X147557428Y-103936552D01*
X147681373Y-103873943D01*
X147729697Y-103849533D01*
X147729698Y-103849532D01*
X147732981Y-103847874D01*
X147887966Y-103726786D01*
X148016480Y-103577901D01*
X148039430Y-103537502D01*
X148111810Y-103410091D01*
X148111812Y-103410088D01*
X148113628Y-103406890D01*
X148141486Y-103323146D01*
X148173437Y-103282833D01*
X148223827Y-103272490D01*
X148266015Y-103293709D01*
X148342523Y-103370217D01*
X148345233Y-103373072D01*
X148372492Y-103403346D01*
X148379711Y-103406560D01*
X148395101Y-103413412D01*
X148405472Y-103419044D01*
X148426225Y-103432521D01*
X148434750Y-103433871D01*
X148453576Y-103439447D01*
X148461465Y-103442960D01*
X148486216Y-103442960D01*
X148497980Y-103443886D01*
X148514614Y-103446521D01*
X148514616Y-103446521D01*
X148522420Y-103447757D01*
X148530052Y-103445712D01*
X148530053Y-103445712D01*
X148530761Y-103445522D01*
X148550224Y-103442960D01*
X148944636Y-103442960D01*
X148992974Y-103460553D01*
X149018694Y-103505102D01*
X149013414Y-103548566D01*
X149008969Y-103558621D01*
X149006100Y-103583228D01*
X149006100Y-103779195D01*
X148988507Y-103827533D01*
X148943958Y-103853253D01*
X148919138Y-103853469D01*
X148909982Y-103852019D01*
X148909979Y-103852019D01*
X148904132Y-103851093D01*
X148898285Y-103852019D01*
X148858527Y-103858316D01*
X148776826Y-103871256D01*
X148761265Y-103879185D01*
X148670087Y-103925643D01*
X148661981Y-103929773D01*
X148570840Y-104020914D01*
X148568152Y-104026190D01*
X148568151Y-104026191D01*
X148554203Y-104053565D01*
X148512323Y-104135759D01*
X148511397Y-104141606D01*
X148494913Y-104245686D01*
X148492160Y-104263065D01*
X148512323Y-104390371D01*
X148570840Y-104505216D01*
X148575026Y-104509402D01*
X148575480Y-104510027D01*
X148589659Y-104559474D01*
X148568737Y-104606467D01*
X148566366Y-104608528D01*
X148563570Y-104611633D01*
X148557177Y-104616278D01*
X148553227Y-104623120D01*
X148553226Y-104623121D01*
X148552860Y-104623756D01*
X148540909Y-104639330D01*
X148395859Y-104784379D01*
X148264993Y-104915245D01*
X148262138Y-104917954D01*
X148231883Y-104945196D01*
X148221813Y-104967813D01*
X148216191Y-104978167D01*
X148202708Y-104998930D01*
X148201472Y-105006737D01*
X148201358Y-105007454D01*
X148195782Y-105026279D01*
X148192269Y-105034169D01*
X148192269Y-105058920D01*
X148191343Y-105070684D01*
X148187472Y-105095124D01*
X148189517Y-105102756D01*
X148189517Y-105102757D01*
X148189707Y-105103465D01*
X148192269Y-105122928D01*
X148192269Y-106595587D01*
X148174676Y-106643925D01*
X148170243Y-106648761D01*
X147751671Y-107067332D01*
X147705051Y-107089072D01*
X147655364Y-107075758D01*
X147625859Y-107033621D01*
X147624223Y-107025921D01*
X147622509Y-107015095D01*
X147610709Y-106940594D01*
X147576018Y-106872509D01*
X147554881Y-106831026D01*
X147554880Y-106831025D01*
X147552192Y-106825749D01*
X147461051Y-106734608D01*
X147443508Y-106725669D01*
X147351479Y-106678778D01*
X147351480Y-106678778D01*
X147346206Y-106676091D01*
X147218900Y-106655928D01*
X147091594Y-106676091D01*
X147086320Y-106678778D01*
X147086321Y-106678778D01*
X146994293Y-106725669D01*
X146976749Y-106734608D01*
X146885608Y-106825749D01*
X146882920Y-106831025D01*
X146882919Y-106831026D01*
X146858047Y-106879840D01*
X146820426Y-106914922D01*
X146791043Y-106920900D01*
X146700604Y-106920900D01*
X146671827Y-106915176D01*
X146649603Y-106905971D01*
X146639656Y-106901851D01*
X146636036Y-106901131D01*
X146636033Y-106901130D01*
X146587266Y-106891430D01*
X146580002Y-106889985D01*
X146572737Y-106891430D01*
X146566553Y-106892660D01*
X146551883Y-106894105D01*
X145958832Y-106894105D01*
X145944160Y-106892660D01*
X145937977Y-106891430D01*
X145930713Y-106889985D01*
X145923448Y-106891430D01*
X145916043Y-106891430D01*
X145916043Y-106888731D01*
X145877023Y-106882718D01*
X145843113Y-106844037D01*
X145840486Y-106813956D01*
X145838570Y-106813956D01*
X145838570Y-106806551D01*
X145840015Y-106799286D01*
X145837340Y-106785839D01*
X145835895Y-106771167D01*
X145835895Y-106222300D01*
X145853488Y-106173962D01*
X145898037Y-106148242D01*
X145911095Y-106147100D01*
X145923957Y-106147100D01*
X145972295Y-106164693D01*
X145977130Y-106169125D01*
X146060573Y-106252568D01*
X146065849Y-106255256D01*
X146065850Y-106255257D01*
X146099519Y-106272412D01*
X146175418Y-106311085D01*
X146302724Y-106331248D01*
X146430030Y-106311085D01*
X146505929Y-106272412D01*
X146539598Y-106255257D01*
X146539599Y-106255256D01*
X146544875Y-106252568D01*
X146636016Y-106161427D01*
X146641838Y-106150002D01*
X146691846Y-106051855D01*
X146694533Y-106046582D01*
X146714696Y-105919276D01*
X146694533Y-105791970D01*
X146650731Y-105706004D01*
X146638705Y-105682402D01*
X146638704Y-105682401D01*
X146636016Y-105677125D01*
X146544875Y-105585984D01*
X146485475Y-105555718D01*
X146450394Y-105518098D01*
X146447702Y-105466729D01*
X146452613Y-105454574D01*
X146463805Y-105432610D01*
X146463806Y-105432608D01*
X146466492Y-105427336D01*
X146475501Y-105370458D01*
X146485729Y-105305877D01*
X146486655Y-105300030D01*
X146484107Y-105283939D01*
X146471576Y-105204821D01*
X146466492Y-105172724D01*
X146428838Y-105098825D01*
X146410664Y-105063156D01*
X146410663Y-105063155D01*
X146407975Y-105057879D01*
X146316834Y-104966738D01*
X146308429Y-104962455D01*
X146207262Y-104910908D01*
X146207263Y-104910908D01*
X146201989Y-104908221D01*
X146116228Y-104894638D01*
X146080530Y-104888984D01*
X146074683Y-104888058D01*
X146068836Y-104888984D01*
X146062920Y-104888984D01*
X146062920Y-104887077D01*
X146020491Y-104878833D01*
X146006042Y-104867545D01*
X145782531Y-104644034D01*
X145779821Y-104641179D01*
X145757858Y-104616787D01*
X145752570Y-104610914D01*
X145729953Y-104600844D01*
X145719597Y-104595221D01*
X145698836Y-104581739D01*
X145690312Y-104580389D01*
X145671487Y-104574813D01*
X145670820Y-104574516D01*
X145663597Y-104571300D01*
X145638846Y-104571300D01*
X145627082Y-104570374D01*
X145610448Y-104567739D01*
X145610446Y-104567739D01*
X145602642Y-104566503D01*
X145595010Y-104568548D01*
X145595009Y-104568548D01*
X145594301Y-104568738D01*
X145574838Y-104571300D01*
X145223060Y-104571300D01*
X145219125Y-104571197D01*
X145213484Y-104570901D01*
X145178460Y-104569066D01*
X145155361Y-104577933D01*
X145144047Y-104581285D01*
X145119835Y-104586431D01*
X145113442Y-104591076D01*
X145113440Y-104591077D01*
X145112848Y-104591507D01*
X145095598Y-104600873D01*
X145094916Y-104601135D01*
X145094915Y-104601136D01*
X145087536Y-104603968D01*
X145070040Y-104621464D01*
X145061068Y-104629128D01*
X145041042Y-104643678D01*
X145037090Y-104650523D01*
X145036724Y-104651157D01*
X145024776Y-104666728D01*
X144737473Y-104954031D01*
X144690854Y-104975769D01*
X144641167Y-104962455D01*
X144611662Y-104920318D01*
X144609100Y-104900855D01*
X144609100Y-104075922D01*
X144626693Y-104027584D01*
X144671242Y-104001864D01*
X144678531Y-104000944D01*
X144773668Y-103993623D01*
X144827994Y-103989443D01*
X144978926Y-103947302D01*
X145013883Y-103937542D01*
X145013885Y-103937541D01*
X145017428Y-103936552D01*
X145141373Y-103873943D01*
X145189697Y-103849533D01*
X145189698Y-103849532D01*
X145192981Y-103847874D01*
X145347966Y-103726786D01*
X145476480Y-103577901D01*
X145499430Y-103537502D01*
X145571810Y-103410091D01*
X145571812Y-103410088D01*
X145573628Y-103406890D01*
X145609991Y-103297580D01*
X145634548Y-103223760D01*
X145634549Y-103223757D01*
X145635710Y-103220266D01*
X145660360Y-103025138D01*
X145660753Y-102997000D01*
X145660488Y-102994293D01*
X145641921Y-102804927D01*
X145641920Y-102804922D01*
X145641561Y-102801260D01*
X145584714Y-102612975D01*
X145492379Y-102439318D01*
X145368072Y-102286903D01*
X145365235Y-102284556D01*
X145365229Y-102284550D01*
X145303692Y-102233642D01*
X145277661Y-102189275D01*
X145286240Y-102138555D01*
X145325414Y-102105216D01*
X145351626Y-102100500D01*
X146493877Y-102100500D01*
X146542215Y-102118093D01*
G37*
G04 #@! TD.AperFunction*
G04 #@! TA.AperFunction,Conductor*
G36*
X140638294Y-104386693D02*
G01*
X140643130Y-104391126D01*
X141844310Y-105592306D01*
X141847020Y-105595161D01*
X141874279Y-105625435D01*
X141881498Y-105628649D01*
X141896886Y-105635500D01*
X141907257Y-105641132D01*
X141928013Y-105654611D01*
X141935821Y-105655847D01*
X141935825Y-105655849D01*
X141936545Y-105655963D01*
X141955365Y-105661538D01*
X141956026Y-105661832D01*
X141956028Y-105661832D01*
X141963252Y-105665049D01*
X141988003Y-105665049D01*
X141999766Y-105665975D01*
X142016401Y-105668610D01*
X142016403Y-105668610D01*
X142024208Y-105669846D01*
X142031840Y-105667801D01*
X142031841Y-105667801D01*
X142032549Y-105667611D01*
X142052012Y-105665049D01*
X143118307Y-105665049D01*
X143166645Y-105682642D01*
X143192365Y-105727191D01*
X143183432Y-105777849D01*
X143171481Y-105793423D01*
X142804888Y-106160016D01*
X142758268Y-106181756D01*
X142739950Y-106181116D01*
X142707693Y-106176007D01*
X142701847Y-106175081D01*
X142696000Y-106176007D01*
X142663743Y-106181116D01*
X142574541Y-106195244D01*
X142538347Y-106213686D01*
X142470261Y-106248378D01*
X142459696Y-106253761D01*
X142368555Y-106344902D01*
X142365867Y-106350178D01*
X142365866Y-106350179D01*
X142325537Y-106429329D01*
X142287916Y-106464411D01*
X142236546Y-106467103D01*
X142205359Y-106448363D01*
X141650190Y-105893193D01*
X141010630Y-105253633D01*
X141007920Y-105250778D01*
X140985958Y-105226387D01*
X140980670Y-105220514D01*
X140958053Y-105210444D01*
X140947697Y-105204821D01*
X140926936Y-105191339D01*
X140918412Y-105189989D01*
X140899587Y-105184413D01*
X140898920Y-105184116D01*
X140891697Y-105180900D01*
X140866946Y-105180900D01*
X140855182Y-105179974D01*
X140838548Y-105177339D01*
X140838546Y-105177339D01*
X140830742Y-105176103D01*
X140823110Y-105178148D01*
X140823109Y-105178148D01*
X140822401Y-105178338D01*
X140802938Y-105180900D01*
X140414508Y-105180900D01*
X140366170Y-105163307D01*
X140340111Y-105116653D01*
X140333966Y-105074905D01*
X140331391Y-105069660D01*
X140281257Y-104967550D01*
X140281256Y-104967549D01*
X140278519Y-104961974D01*
X140274124Y-104957586D01*
X140274122Y-104957584D01*
X140233100Y-104916634D01*
X140189482Y-104873092D01*
X140127036Y-104842568D01*
X140091335Y-104805534D01*
X140087791Y-104754216D01*
X140118063Y-104712627D01*
X140126918Y-104707504D01*
X140184448Y-104679258D01*
X140184449Y-104679257D01*
X140190026Y-104676519D01*
X140194414Y-104672124D01*
X140194416Y-104672122D01*
X140253433Y-104613001D01*
X140278908Y-104587482D01*
X140281637Y-104581898D01*
X140281639Y-104581896D01*
X140331595Y-104479695D01*
X140334157Y-104474454D01*
X140340140Y-104433444D01*
X140364527Y-104388152D01*
X140414552Y-104369100D01*
X140589956Y-104369100D01*
X140638294Y-104386693D01*
G37*
G04 #@! TD.AperFunction*
G04 #@! TA.AperFunction,Conductor*
G36*
X140765294Y-105656693D02*
G01*
X140770130Y-105661126D01*
X141285109Y-106176105D01*
X141306849Y-106222725D01*
X141293535Y-106272412D01*
X141266075Y-106296283D01*
X141197453Y-106331248D01*
X141181648Y-106339301D01*
X141092075Y-106428874D01*
X141045455Y-106450614D01*
X141038901Y-106450900D01*
X140414508Y-106450900D01*
X140366170Y-106433307D01*
X140340111Y-106386653D01*
X140333966Y-106344905D01*
X140317361Y-106311085D01*
X140281257Y-106237550D01*
X140281256Y-106237549D01*
X140278519Y-106231974D01*
X140274124Y-106227586D01*
X140274122Y-106227584D01*
X140224484Y-106178033D01*
X140189482Y-106143092D01*
X140127036Y-106112568D01*
X140091335Y-106075534D01*
X140087791Y-106024216D01*
X140118063Y-105982627D01*
X140126918Y-105977504D01*
X140184448Y-105949258D01*
X140184449Y-105949257D01*
X140190026Y-105946519D01*
X140194414Y-105942124D01*
X140194416Y-105942122D01*
X140250879Y-105885560D01*
X140278908Y-105857482D01*
X140281637Y-105851898D01*
X140281639Y-105851896D01*
X140331280Y-105750340D01*
X140334157Y-105744454D01*
X140340140Y-105703444D01*
X140364527Y-105658152D01*
X140414552Y-105639100D01*
X140716956Y-105639100D01*
X140765294Y-105656693D01*
G37*
G04 #@! TD.AperFunction*
G04 #@! TA.AperFunction,Conductor*
G36*
X153064958Y-102870733D02*
G01*
X153080101Y-102915989D01*
X153080101Y-102954520D01*
X153083138Y-102980055D01*
X153127432Y-103079774D01*
X153158937Y-103111224D01*
X153183324Y-103135568D01*
X153204655Y-103156862D01*
X153211005Y-103159669D01*
X153211006Y-103159670D01*
X153262616Y-103182487D01*
X153299712Y-103218123D01*
X153305222Y-103269267D01*
X153276569Y-103311988D01*
X153262735Y-103319990D01*
X153210858Y-103343033D01*
X153199612Y-103350762D01*
X153132463Y-103418028D01*
X153124750Y-103429293D01*
X153085800Y-103517395D01*
X153082858Y-103528186D01*
X153080852Y-103545392D01*
X153080600Y-103549731D01*
X153080600Y-103641541D01*
X153084297Y-103651698D01*
X153089669Y-103654800D01*
X153992140Y-103654800D01*
X154002297Y-103651103D01*
X154005399Y-103645731D01*
X154005399Y-103549773D01*
X154005137Y-103545356D01*
X154003033Y-103527663D01*
X154000077Y-103516908D01*
X153960966Y-103428856D01*
X153953238Y-103417612D01*
X153885972Y-103350463D01*
X153874707Y-103342750D01*
X153823384Y-103320060D01*
X153786288Y-103284424D01*
X153780778Y-103233280D01*
X153809431Y-103190559D01*
X153823261Y-103182559D01*
X153872184Y-103160828D01*
X153923499Y-103157284D01*
X153955883Y-103176379D01*
X154993473Y-104213969D01*
X155015213Y-104260589D01*
X155015499Y-104267143D01*
X155015499Y-105430700D01*
X154997906Y-105479038D01*
X154953357Y-105504758D01*
X154940299Y-105505900D01*
X154042840Y-105505900D01*
X153994502Y-105488307D01*
X153974115Y-105461227D01*
X153961385Y-105432568D01*
X153958568Y-105426226D01*
X153906661Y-105374410D01*
X153886259Y-105354043D01*
X153886258Y-105354042D01*
X153881345Y-105349138D01*
X153874994Y-105346330D01*
X153823384Y-105323513D01*
X153786288Y-105287877D01*
X153780778Y-105236733D01*
X153809431Y-105194012D01*
X153823265Y-105186010D01*
X153875142Y-105162967D01*
X153886388Y-105155238D01*
X153953537Y-105087972D01*
X153961250Y-105076707D01*
X154000200Y-104988605D01*
X154003142Y-104977814D01*
X154005148Y-104960608D01*
X154005400Y-104956269D01*
X154005400Y-104864459D01*
X154001703Y-104854302D01*
X153996331Y-104851200D01*
X153542000Y-104851200D01*
X153493662Y-104833607D01*
X153467942Y-104789058D01*
X153466800Y-104776000D01*
X153466800Y-104685541D01*
X153619200Y-104685541D01*
X153622897Y-104695698D01*
X153628269Y-104698800D01*
X153992140Y-104698800D01*
X154002297Y-104695103D01*
X154005399Y-104689731D01*
X154005399Y-104593773D01*
X154005137Y-104589356D01*
X154003033Y-104571663D01*
X154000077Y-104560908D01*
X153960966Y-104472856D01*
X153953238Y-104461612D01*
X153885972Y-104394463D01*
X153874707Y-104386750D01*
X153786605Y-104347800D01*
X153775814Y-104344858D01*
X153758608Y-104342852D01*
X153754269Y-104342600D01*
X153632459Y-104342600D01*
X153622302Y-104346297D01*
X153619200Y-104351669D01*
X153619200Y-104685541D01*
X153466800Y-104685541D01*
X153466800Y-104355860D01*
X153463103Y-104345703D01*
X153457731Y-104342601D01*
X153331773Y-104342601D01*
X153327356Y-104342863D01*
X153309663Y-104344967D01*
X153298908Y-104347923D01*
X153210856Y-104387034D01*
X153199612Y-104394762D01*
X153132463Y-104462028D01*
X153124750Y-104473293D01*
X153103259Y-104521904D01*
X153067623Y-104559000D01*
X153016479Y-104564510D01*
X152993525Y-104554566D01*
X152991084Y-104552981D01*
X152983936Y-104548339D01*
X152975412Y-104546989D01*
X152956587Y-104541413D01*
X152955920Y-104541116D01*
X152948697Y-104537900D01*
X152923946Y-104537900D01*
X152912182Y-104536974D01*
X152895548Y-104534339D01*
X152895546Y-104534339D01*
X152887742Y-104533103D01*
X152880110Y-104535148D01*
X152880109Y-104535148D01*
X152879401Y-104535338D01*
X152859938Y-104537900D01*
X152858398Y-104537900D01*
X152810060Y-104520307D01*
X152784340Y-104475758D01*
X152794670Y-104426635D01*
X152793982Y-104426350D01*
X152795502Y-104422682D01*
X152795872Y-104420920D01*
X152796817Y-104419505D01*
X152802376Y-104406086D01*
X152812655Y-104354411D01*
X152809703Y-104346302D01*
X152804331Y-104343200D01*
X152572200Y-104343200D01*
X152523862Y-104325607D01*
X152498142Y-104281058D01*
X152497000Y-104268000D01*
X152497000Y-104266000D01*
X152514593Y-104217662D01*
X152559142Y-104191942D01*
X152572200Y-104190800D01*
X152800140Y-104190800D01*
X152810297Y-104187103D01*
X152812953Y-104182503D01*
X152812678Y-104179709D01*
X152802376Y-104127917D01*
X152796814Y-104114489D01*
X152759590Y-104058779D01*
X152747363Y-104008813D01*
X152759590Y-103975221D01*
X152796816Y-103919509D01*
X152799832Y-103912227D01*
X153080601Y-103912227D01*
X153080863Y-103916644D01*
X153082967Y-103934337D01*
X153085923Y-103945092D01*
X153125034Y-104033144D01*
X153132762Y-104044388D01*
X153200028Y-104111537D01*
X153211293Y-104119250D01*
X153299395Y-104158200D01*
X153310186Y-104161142D01*
X153327392Y-104163148D01*
X153331731Y-104163400D01*
X153453541Y-104163400D01*
X153463698Y-104159703D01*
X153466800Y-104154331D01*
X153466800Y-104150140D01*
X153619200Y-104150140D01*
X153622897Y-104160297D01*
X153628269Y-104163399D01*
X153754227Y-104163399D01*
X153758644Y-104163137D01*
X153776337Y-104161033D01*
X153787092Y-104158077D01*
X153875144Y-104118966D01*
X153886388Y-104111238D01*
X153953537Y-104043972D01*
X153961250Y-104032707D01*
X154000200Y-103944605D01*
X154003142Y-103933814D01*
X154005148Y-103916608D01*
X154005400Y-103912269D01*
X154005400Y-103820459D01*
X154001703Y-103810302D01*
X153996331Y-103807200D01*
X153632459Y-103807200D01*
X153622302Y-103810897D01*
X153619200Y-103816269D01*
X153619200Y-104150140D01*
X153466800Y-104150140D01*
X153466800Y-103820459D01*
X153463103Y-103810302D01*
X153457731Y-103807200D01*
X153093860Y-103807200D01*
X153083703Y-103810897D01*
X153080601Y-103816269D01*
X153080601Y-103912227D01*
X152799832Y-103912227D01*
X152802376Y-103906086D01*
X152812655Y-103854411D01*
X152809703Y-103846302D01*
X152804331Y-103843200D01*
X152572200Y-103843200D01*
X152523862Y-103825607D01*
X152498142Y-103781058D01*
X152497000Y-103768000D01*
X152497000Y-103766000D01*
X152514593Y-103717662D01*
X152559142Y-103691942D01*
X152572200Y-103690800D01*
X152800140Y-103690800D01*
X152810297Y-103687103D01*
X152812953Y-103682503D01*
X152812678Y-103679709D01*
X152802376Y-103627917D01*
X152796814Y-103614489D01*
X152757548Y-103555723D01*
X152747277Y-103545452D01*
X152688509Y-103506184D01*
X152675086Y-103500624D01*
X152623290Y-103490321D01*
X152615969Y-103489600D01*
X152582864Y-103489600D01*
X152534526Y-103472007D01*
X152508806Y-103427458D01*
X152519507Y-103376567D01*
X152519453Y-103376545D01*
X152519573Y-103376256D01*
X152520337Y-103372623D01*
X152526402Y-103363545D01*
X152538900Y-103300715D01*
X152538899Y-102945034D01*
X152556492Y-102896697D01*
X152601040Y-102870976D01*
X152642505Y-102877172D01*
X152642791Y-102876293D01*
X152648043Y-102877999D01*
X152648235Y-102878028D01*
X152648418Y-102878121D01*
X152648420Y-102878121D01*
X152653694Y-102880809D01*
X152659541Y-102881735D01*
X152754236Y-102896733D01*
X152781000Y-102900972D01*
X152807765Y-102896733D01*
X152902459Y-102881735D01*
X152908306Y-102880809D01*
X152913580Y-102878121D01*
X152913582Y-102878121D01*
X152970760Y-102848987D01*
X153021817Y-102842717D01*
X153064958Y-102870733D01*
G37*
G04 #@! TD.AperFunction*
G04 #@! TA.AperFunction,Conductor*
G36*
X150507292Y-102118093D02*
G01*
X150533012Y-102162642D01*
X150532627Y-102184671D01*
X150531900Y-102186303D01*
X150531900Y-102768313D01*
X150519227Y-102810091D01*
X150495598Y-102845455D01*
X150483100Y-102908285D01*
X150483101Y-103300714D01*
X150483822Y-103304337D01*
X150483822Y-103304341D01*
X150493555Y-103353273D01*
X150495000Y-103367943D01*
X150495000Y-103413901D01*
X150477407Y-103462239D01*
X150432858Y-103487959D01*
X150419800Y-103489101D01*
X150402286Y-103489101D01*
X150398663Y-103489822D01*
X150398659Y-103489822D01*
X150376682Y-103494194D01*
X150352302Y-103499043D01*
X150301462Y-103491218D01*
X150284459Y-103478462D01*
X150278726Y-103472729D01*
X150256986Y-103426109D01*
X150256700Y-103419555D01*
X150256700Y-103297580D01*
X150256803Y-103293645D01*
X150258522Y-103260852D01*
X150258522Y-103260849D01*
X150258935Y-103252961D01*
X150255791Y-103244770D01*
X150250067Y-103229857D01*
X150246715Y-103218544D01*
X150246305Y-103216615D01*
X150241569Y-103194335D01*
X150236860Y-103187854D01*
X150236493Y-103187348D01*
X150227127Y-103170098D01*
X150226865Y-103169416D01*
X150226864Y-103169415D01*
X150224032Y-103162036D01*
X150206536Y-103144540D01*
X150198872Y-103135568D01*
X150188967Y-103121935D01*
X150184322Y-103115542D01*
X150176843Y-103111224D01*
X150161269Y-103099273D01*
X149973926Y-102911930D01*
X149952186Y-102865310D01*
X149951900Y-102858756D01*
X149951900Y-102563228D01*
X149948913Y-102538124D01*
X149905376Y-102440107D01*
X149900465Y-102435205D01*
X149900464Y-102435203D01*
X149834385Y-102369240D01*
X149834384Y-102369239D01*
X149829471Y-102364335D01*
X149823121Y-102361528D01*
X149823120Y-102361527D01*
X149736554Y-102323257D01*
X149736555Y-102323257D01*
X149731379Y-102320969D01*
X149709028Y-102318363D01*
X149708934Y-102318352D01*
X149708933Y-102318352D01*
X149706772Y-102318100D01*
X149251228Y-102318100D01*
X149249021Y-102318363D01*
X149249014Y-102318363D01*
X149232852Y-102320287D01*
X149226124Y-102321087D01*
X149128107Y-102364624D01*
X149123205Y-102369535D01*
X149123203Y-102369536D01*
X149057240Y-102435615D01*
X149052335Y-102440529D01*
X149049528Y-102446879D01*
X149049527Y-102446880D01*
X149041345Y-102465388D01*
X149008969Y-102538621D01*
X149006100Y-102563228D01*
X149006100Y-102858755D01*
X148988507Y-102907093D01*
X148984074Y-102911929D01*
X148933269Y-102962734D01*
X148886649Y-102984474D01*
X148880095Y-102984760D01*
X148636207Y-102984760D01*
X148587869Y-102967167D01*
X148583032Y-102962734D01*
X148532280Y-102911981D01*
X148460923Y-102840624D01*
X148458214Y-102837769D01*
X148436260Y-102813387D01*
X148430972Y-102807514D01*
X148408355Y-102797444D01*
X148397999Y-102791821D01*
X148391308Y-102787476D01*
X148377238Y-102778339D01*
X148368714Y-102776989D01*
X148349889Y-102771413D01*
X148349222Y-102771116D01*
X148341999Y-102767900D01*
X148317248Y-102767900D01*
X148305484Y-102766974D01*
X148288850Y-102764339D01*
X148288848Y-102764339D01*
X148281044Y-102763103D01*
X148273412Y-102765148D01*
X148273411Y-102765148D01*
X148272703Y-102765338D01*
X148253240Y-102767900D01*
X148227337Y-102767900D01*
X148178999Y-102750307D01*
X148155347Y-102714435D01*
X148132951Y-102640258D01*
X148124714Y-102612975D01*
X148032379Y-102439318D01*
X147908072Y-102286903D01*
X147905235Y-102284556D01*
X147905229Y-102284550D01*
X147843692Y-102233642D01*
X147817661Y-102189275D01*
X147826240Y-102138555D01*
X147865414Y-102105216D01*
X147891626Y-102100500D01*
X150458954Y-102100500D01*
X150507292Y-102118093D01*
G37*
G04 #@! TD.AperFunction*
G04 #@! TA.AperFunction,Conductor*
G36*
X159258000Y-104264230D02*
G01*
X159189462Y-104393676D01*
X159147922Y-104559054D01*
X159147029Y-104729568D01*
X159186835Y-104895373D01*
X159188916Y-104899404D01*
X159258000Y-105033252D01*
X159258000Y-108458000D01*
X156787996Y-108458000D01*
X156691943Y-108361946D01*
X156326830Y-107996833D01*
X156324120Y-107993978D01*
X156302158Y-107969587D01*
X156296870Y-107963714D01*
X156274253Y-107953644D01*
X156263897Y-107948021D01*
X156250361Y-107939231D01*
X156243136Y-107934539D01*
X156234612Y-107933189D01*
X156215787Y-107927613D01*
X156215120Y-107927316D01*
X156207897Y-107924100D01*
X156183146Y-107924100D01*
X156171382Y-107923174D01*
X156154748Y-107920539D01*
X156154746Y-107920539D01*
X156146942Y-107919303D01*
X156139310Y-107921348D01*
X156139309Y-107921348D01*
X156138601Y-107921538D01*
X156119138Y-107924100D01*
X155829000Y-107924100D01*
X155829000Y-101739020D01*
X155833242Y-101735397D01*
X155835483Y-101733483D01*
X155964542Y-101582374D01*
X156068374Y-101412935D01*
X156144422Y-101229340D01*
X156190812Y-101036109D01*
X156203357Y-100876713D01*
X156204167Y-100870143D01*
X156207013Y-100853232D01*
X156207014Y-100853216D01*
X156207496Y-100850354D01*
X156207647Y-100838000D01*
X156206763Y-100831823D01*
X156203259Y-100807360D01*
X156202500Y-100796699D01*
X156202500Y-100778700D01*
X156220093Y-100730362D01*
X156264642Y-100704642D01*
X156277700Y-100703500D01*
X159258000Y-100703500D01*
X159258000Y-104264230D01*
G37*
G04 #@! TD.AperFunction*
G04 #@! TA.AperFunction,Conductor*
G36*
X167874638Y-100721093D02*
G01*
X167900358Y-100765642D01*
X167901500Y-100778700D01*
X167901500Y-108458000D01*
X164973000Y-108458000D01*
X164973000Y-108352519D01*
X164981122Y-108336579D01*
X164983809Y-108331306D01*
X165003972Y-108204000D01*
X164983809Y-108076694D01*
X164973000Y-108055480D01*
X164973000Y-103625823D01*
X166626391Y-103625823D01*
X166627085Y-103631130D01*
X166627085Y-103631133D01*
X166628433Y-103641442D01*
X166644980Y-103767979D01*
X166702720Y-103899203D01*
X166794970Y-104008948D01*
X166914313Y-104088390D01*
X166919425Y-104089987D01*
X166919427Y-104089988D01*
X166989763Y-104111962D01*
X167051157Y-104131142D01*
X167111130Y-104132242D01*
X167189137Y-104133672D01*
X167189139Y-104133672D01*
X167194499Y-104133770D01*
X167199670Y-104132360D01*
X167199672Y-104132360D01*
X167273883Y-104112127D01*
X167332817Y-104096060D01*
X167454991Y-104021045D01*
X167551200Y-103914754D01*
X167558735Y-103899203D01*
X167611374Y-103790554D01*
X167613710Y-103785733D01*
X167623167Y-103729522D01*
X167637014Y-103647222D01*
X167637015Y-103647215D01*
X167637496Y-103644354D01*
X167637647Y-103632000D01*
X167637235Y-103629121D01*
X167618082Y-103495379D01*
X167618081Y-103495376D01*
X167617323Y-103490082D01*
X167615108Y-103485210D01*
X167615107Y-103485207D01*
X167560203Y-103364453D01*
X167557984Y-103359572D01*
X167516118Y-103310984D01*
X167467894Y-103255017D01*
X167467891Y-103255014D01*
X167464400Y-103250963D01*
X167344095Y-103172985D01*
X167297094Y-103158929D01*
X167211873Y-103133442D01*
X167211870Y-103133442D01*
X167206739Y-103131907D01*
X167201384Y-103131874D01*
X167201382Y-103131874D01*
X167137259Y-103131482D01*
X167063376Y-103131031D01*
X166925529Y-103170428D01*
X166804280Y-103246930D01*
X166800735Y-103250943D01*
X166800736Y-103250943D01*
X166712923Y-103350372D01*
X166712921Y-103350375D01*
X166709377Y-103354388D01*
X166648447Y-103484163D01*
X166626391Y-103625823D01*
X164973000Y-103625823D01*
X164973000Y-100703500D01*
X167826300Y-100703500D01*
X167874638Y-100721093D01*
G37*
G04 #@! TD.AperFunction*
G04 #@! TA.AperFunction,Conductor*
G36*
X128905000Y-102418258D02*
G01*
X128866923Y-102461372D01*
X128866921Y-102461375D01*
X128863377Y-102465388D01*
X128802447Y-102595163D01*
X128780391Y-102736823D01*
X128781085Y-102742130D01*
X128781085Y-102742133D01*
X128782814Y-102755354D01*
X128798980Y-102878979D01*
X128856720Y-103010203D01*
X128869792Y-103025754D01*
X128905000Y-103067639D01*
X128905000Y-103759000D01*
X127500500Y-103759000D01*
X127500500Y-102175700D01*
X127518093Y-102127362D01*
X127562642Y-102101642D01*
X127575700Y-102100500D01*
X128905000Y-102100500D01*
X128905000Y-102418258D01*
G37*
G04 #@! TD.AperFunction*
M02*
