M48
; DRILL file {KiCad (6.0.7)} date Wed Feb 22 13:34:52 2023
; FORMAT={-:-/ absolute / metric / decimal}
; #@! TF.CreationDate,2023-02-22T13:34:52-04:00
; #@! TF.GenerationSoftware,Kicad,Pcbnew,(6.0.7)
; #@! TF.FileFunction,Plated,1,2,PTH
FMAT,2
METRIC
; #@! TA.AperFunction,Plated,PTH,ViaDrill
T1C0.203
; #@! TA.AperFunction,Plated,PTH,ComponentDrill
T2C0.750
; #@! TA.AperFunction,Plated,PTH,ComponentDrill
T3C1.000
%
G90
G05
T1
X129.032Y-103.759
X129.032Y-108.585
X129.032Y-113.411
X131.445Y-106.172
X131.445Y-110.998
X133.858Y-103.759
X133.858Y-108.585
X133.858Y-113.411
X136.271Y-106.172
X136.271Y-110.998
X137.795Y-103.505
X137.795Y-104.775
X137.795Y-107.315
X137.795Y-108.585
X137.795Y-109.855
X137.795Y-112.395
X137.795Y-113.792
X140.525Y-103.505
X140.525Y-104.775
X140.525Y-106.045
X140.525Y-107.315
X140.525Y-108.585
X140.525Y-111.125
X140.525Y-112.395
X140.525Y-113.792
X140.558Y-109.964
X140.566Y-109.244
X141.424Y-106.673
X141.732Y-110.008
X141.732Y-110.972
X142.2Y-104.942
X142.24Y-106.045
X142.702Y-106.587
X142.898Y-109.347
X143.498Y-110.49
X143.898Y-104.089
X143.898Y-105.436
X144.272Y-107.442
X144.272Y-108.458
X144.462Y-110.744
X145.161Y-111.185
X145.288Y-107.442
X145.288Y-108.458
X145.415Y-105.283
X145.759Y-110.187
X145.923Y-102.489
X146.075Y-105.3
X146.303Y-105.919
X146.448Y-111.737
X146.694Y-110.616
X147.062Y-112.015
X147.219Y-107.068
X147.701Y-111.851
X147.935Y-105.989
X148.361Y-111.851
X148.71Y-102.731
X148.863Y-108.009
X148.904Y-105.283
X148.904Y-104.263
X149.033Y-110.049
X149.225Y-112.395
X149.699Y-109.575
X149.929Y-111.15
X150.114Y-105.283
X150.28Y-109.259
X150.291Y-108.294
X150.873Y-106.745
X151.325Y-110.296
X151.346Y-108.859
X152.507Y-108.377
X152.781Y-102.489
X154.432Y-104.267
X154.686Y-106.807
X154.813Y-102.616
X155.245Y-107.671
X156.083Y-107.569
X156.656Y-110.923
X156.718Y-112.141
X156.972Y-113.919
X157.353Y-109.728
X158.844Y-111.543
X159.639Y-108.204
X161.662Y-111.546
X163.703Y-111.633
X163.914Y-108.921
X164.465Y-107.315
X164.592Y-108.204
X164.62Y-112.099
X164.719Y-109.692
X166.145Y-109.702
T2
X164.452Y-114.221
X166.452Y-114.221
T3
X142.113Y-102.997
X144.653Y-102.997
X147.193Y-102.997
T0
M30
