G04 #@! TF.GenerationSoftware,KiCad,Pcbnew,(6.0.7)*
G04 #@! TF.CreationDate,2023-02-22T13:34:51-04:00*
G04 #@! TF.ProjectId,Twitch Switch,54776974-6368-4205-9377-697463682e6b,1.1*
G04 #@! TF.SameCoordinates,Original*
G04 #@! TF.FileFunction,Copper,L2,Bot*
G04 #@! TF.FilePolarity,Positive*
%FSLAX46Y46*%
G04 Gerber Fmt 4.6, Leading zero omitted, Abs format (unit mm)*
G04 Created by KiCad (PCBNEW (6.0.7)) date 2023-02-22 13:34:51*
%MOMM*%
%LPD*%
G01*
G04 APERTURE LIST*
G04 Aperture macros list*
%AMRoundRect*
0 Rectangle with rounded corners*
0 $1 Rounding radius*
0 $2 $3 $4 $5 $6 $7 $8 $9 X,Y pos of 4 corners*
0 Add a 4 corners polygon primitive as box body*
4,1,4,$2,$3,$4,$5,$6,$7,$8,$9,$2,$3,0*
0 Add four circle primitives for the rounded corners*
1,1,$1+$1,$2,$3*
1,1,$1+$1,$4,$5*
1,1,$1+$1,$6,$7*
1,1,$1+$1,$8,$9*
0 Add four rect primitives between the rounded corners*
20,1,$1+$1,$2,$3,$4,$5,0*
20,1,$1+$1,$4,$5,$6,$7,0*
20,1,$1+$1,$6,$7,$8,$9,0*
20,1,$1+$1,$8,$9,$2,$3,0*%
G04 Aperture macros list end*
G04 #@! TA.AperFunction,ComponentPad*
%ADD10R,1.700000X1.700000*%
G04 #@! TD*
G04 #@! TA.AperFunction,ComponentPad*
%ADD11O,1.700000X1.700000*%
G04 #@! TD*
G04 #@! TA.AperFunction,ComponentPad*
%ADD12RoundRect,0.250000X-0.350000X-0.625000X0.350000X-0.625000X0.350000X0.625000X-0.350000X0.625000X0*%
G04 #@! TD*
G04 #@! TA.AperFunction,ComponentPad*
%ADD13O,1.200000X1.750000*%
G04 #@! TD*
G04 #@! TA.AperFunction,ViaPad*
%ADD14C,0.508000*%
G04 #@! TD*
G04 #@! TA.AperFunction,Conductor*
%ADD15C,0.152400*%
G04 #@! TD*
G04 #@! TA.AperFunction,Conductor*
%ADD16C,0.508000*%
G04 #@! TD*
G04 APERTURE END LIST*
D10*
X142113000Y-102997000D03*
D11*
X144653000Y-102997000D03*
X147193000Y-102997000D03*
D12*
X164452300Y-114221260D03*
D13*
X166452300Y-114221260D03*
D14*
X144272000Y-108458000D03*
X154813000Y-102616000D03*
X137795000Y-107315000D03*
X136271000Y-106172000D03*
X133858000Y-103759000D03*
X140525500Y-113792000D03*
X129032000Y-103759000D03*
X131445000Y-106172000D03*
X145923000Y-102489000D03*
X137795000Y-109855000D03*
X136271000Y-110998000D03*
X156083000Y-107569000D03*
X159639000Y-108204000D03*
X148710062Y-102731260D03*
X140525500Y-111125000D03*
X147935284Y-105988939D03*
X140525500Y-108585000D03*
X144272000Y-107442000D03*
X137795000Y-113792000D03*
X137795000Y-112395000D03*
X133858000Y-108585000D03*
X154686000Y-106807000D03*
X140525500Y-112395000D03*
X129032000Y-108585000D03*
X156972000Y-113919000D03*
X149225000Y-112395000D03*
X145288000Y-107442000D03*
X157353000Y-109728000D03*
X140525500Y-103505000D03*
X137795000Y-104775000D03*
X164465000Y-107315000D03*
X129032000Y-113411000D03*
X145288000Y-108458000D03*
X140525500Y-104775000D03*
X163703000Y-111633000D03*
X149929036Y-111150473D03*
X133858000Y-113411000D03*
X140525500Y-106045000D03*
X131445000Y-110998000D03*
X149033035Y-110049084D03*
X154432000Y-104267000D03*
X137795000Y-103505000D03*
X142240000Y-106045000D03*
X140525500Y-107315000D03*
X140557883Y-109963787D03*
X137795000Y-108585000D03*
X166145097Y-109702100D03*
X150872922Y-106745038D03*
X156718000Y-112141000D03*
X148863080Y-108009293D03*
X141732000Y-110972100D03*
X155244599Y-107671100D03*
X156655900Y-110923500D03*
X142199897Y-104942103D03*
X141732000Y-110007900D03*
X143897900Y-104088709D03*
X150114000Y-105283000D03*
X152781000Y-102489000D03*
X146074683Y-105300030D03*
X148360903Y-111850900D03*
X147061844Y-112015067D03*
X147218900Y-107067900D03*
X146302724Y-105919276D03*
X147701000Y-111850900D03*
X148904132Y-104263065D03*
X148903969Y-105282766D03*
X140566100Y-109243652D03*
X142897900Y-109347000D03*
X164592000Y-108204000D03*
X164619621Y-112099315D03*
X161662284Y-111546312D03*
X151325274Y-110295835D03*
X158844100Y-111543267D03*
X150280050Y-109259052D03*
X141423799Y-106672593D03*
X142701847Y-106587053D03*
X145160766Y-111184969D03*
X143497900Y-110490000D03*
X145415000Y-105283000D03*
X143897900Y-105435949D03*
X151346350Y-108858734D03*
X146693662Y-110616492D03*
X145758515Y-110187346D03*
X149698877Y-109575100D03*
X150290629Y-108294352D03*
X164719000Y-109691900D03*
X152506670Y-108376634D03*
X163914100Y-108920849D03*
X146447521Y-111737115D03*
X144462100Y-110744000D03*
D15*
X150114000Y-102235000D02*
X147955000Y-102235000D01*
X152781000Y-102489000D02*
X152527000Y-102235000D01*
X155244599Y-109512199D02*
X155244599Y-107671100D01*
X142199897Y-105213995D02*
X142199897Y-104942103D01*
X143911009Y-104075600D02*
X145099771Y-104075600D01*
X140941199Y-106872493D02*
X140941199Y-106472693D01*
X143897900Y-104088709D02*
X143911009Y-104075600D01*
X140941199Y-106472693D02*
X142199897Y-105213995D01*
X147955000Y-102235000D02*
X147193000Y-102997000D01*
X141732000Y-107663294D02*
X140941199Y-106872493D01*
X141732000Y-110007900D02*
X141732000Y-107663294D01*
X146178371Y-102997000D02*
X147193000Y-102997000D01*
X150114000Y-105283000D02*
X150114000Y-102235000D01*
X141732000Y-110972100D02*
X141732000Y-110007900D01*
X145099771Y-104075600D02*
X146178371Y-102997000D01*
X152527000Y-102235000D02*
X150114000Y-102235000D01*
X156655900Y-110923500D02*
X155244599Y-109512199D01*
X146365978Y-105300030D02*
X146074683Y-105300030D01*
X146680424Y-105614476D02*
X146365978Y-105300030D01*
X148209000Y-111676400D02*
X148209000Y-106944448D01*
X148209000Y-106944448D02*
X146879028Y-105614476D01*
X148360903Y-111850900D02*
X148360903Y-111828303D01*
X148360903Y-111828303D02*
X148209000Y-111676400D01*
X146879028Y-105614476D02*
X146680424Y-105614476D01*
X147599400Y-107448400D02*
X147218900Y-107067900D01*
X147061844Y-112015067D02*
X147061844Y-111807556D01*
X147599400Y-111270000D02*
X147599400Y-107448400D01*
X147061844Y-111807556D02*
X147599400Y-111270000D01*
X146752776Y-105919276D02*
X146302724Y-105919276D01*
X147904200Y-107070700D02*
X146752776Y-105919276D01*
X147904200Y-111647700D02*
X147904200Y-107070700D01*
X147701000Y-111850900D02*
X147904200Y-111647700D01*
X148903969Y-104263228D02*
X148904132Y-104263065D01*
X148903969Y-105282766D02*
X148903969Y-104263228D01*
X141427200Y-110385600D02*
X141427200Y-110594400D01*
X141249400Y-110772200D02*
X141249400Y-111172000D01*
X141249400Y-110207800D02*
X141427200Y-110385600D01*
X140566100Y-109243652D02*
X141249400Y-109926952D01*
X141249400Y-111172000D02*
X141532100Y-111454700D01*
X141427200Y-110594400D02*
X141249400Y-110772200D01*
X142214600Y-110207800D02*
X142214600Y-110030300D01*
X141249400Y-109926952D02*
X141249400Y-110207800D01*
X142036800Y-110385600D02*
X142214600Y-110207800D01*
X142036800Y-110594400D02*
X142036800Y-110385600D01*
X142214600Y-110772200D02*
X142036800Y-110594400D01*
X142214600Y-110030300D02*
X142897900Y-109347000D01*
X141931900Y-111454700D02*
X142214600Y-111172000D01*
X141532100Y-111454700D02*
X141931900Y-111454700D01*
X142214600Y-111172000D02*
X142214600Y-110772200D01*
D16*
X164592000Y-108204000D02*
X164598800Y-108204000D01*
X164598800Y-108204000D02*
X165379400Y-108984600D01*
X165379400Y-111339536D02*
X164619621Y-112099315D01*
X165379400Y-108984600D02*
X165379400Y-111339536D01*
D15*
X151325274Y-110295835D02*
X151316833Y-110295835D01*
D16*
X164452300Y-114221260D02*
X164452300Y-113954675D01*
D15*
X151316833Y-110295835D02*
X150280050Y-109259052D01*
D16*
X158847145Y-111546312D02*
X161662284Y-111546312D01*
X162043937Y-111546312D02*
X161662284Y-111546312D01*
X158844100Y-111543267D02*
X158847145Y-111546312D01*
X164452300Y-113954675D02*
X162043937Y-111546312D01*
D15*
X141423799Y-106672593D02*
X142616307Y-106672593D01*
X142616307Y-106672593D02*
X142701847Y-106587053D01*
X144944700Y-110795548D02*
X144982966Y-110833814D01*
X144262200Y-110261400D02*
X144662000Y-110261400D01*
X144033600Y-110490000D02*
X144262200Y-110261400D01*
X144944700Y-110544100D02*
X144944700Y-110795548D01*
X143497900Y-110490000D02*
X144033600Y-110490000D01*
X144982966Y-111007169D02*
X145160766Y-111184969D01*
X144982966Y-110833814D02*
X144982966Y-111007169D01*
X144662000Y-110261400D02*
X144944700Y-110544100D01*
X144050849Y-105283000D02*
X143897900Y-105435949D01*
X145415000Y-105283000D02*
X144050849Y-105283000D01*
X150479950Y-108776452D02*
X150080150Y-108776452D01*
X149698877Y-109157725D02*
X149698877Y-109575100D01*
X146693662Y-110616492D02*
X146187661Y-110616492D01*
X151239084Y-108966000D02*
X150669498Y-108966000D01*
X150080150Y-108776452D02*
X149698877Y-109157725D01*
X151346350Y-108858734D02*
X151239084Y-108966000D01*
X150669498Y-108966000D02*
X150479950Y-108776452D01*
X146187661Y-110616492D02*
X145758515Y-110187346D01*
X163947949Y-108920849D02*
X164719000Y-109691900D01*
X152424388Y-108294352D02*
X150290629Y-108294352D01*
X163914100Y-108920849D02*
X163947949Y-108920849D01*
X152506670Y-108376634D02*
X152424388Y-108294352D01*
X146447521Y-111737115D02*
X145030412Y-111737115D01*
X144678166Y-111384869D02*
X144678166Y-110960066D01*
X145030412Y-111737115D02*
X144678166Y-111384869D01*
X144678166Y-110960066D02*
X144462100Y-110744000D01*
G04 #@! TA.AperFunction,Conductor*
G36*
X167874638Y-100721093D02*
G01*
X167900358Y-100765642D01*
X167901500Y-100778700D01*
X167901500Y-114994300D01*
X167883907Y-115042638D01*
X167839358Y-115068358D01*
X167826300Y-115069500D01*
X167115159Y-115069500D01*
X167066821Y-115051907D01*
X167041101Y-115007358D01*
X167050034Y-114956700D01*
X167057849Y-114945611D01*
X167079695Y-114919897D01*
X167084512Y-114912674D01*
X167160327Y-114764199D01*
X167163349Y-114756071D01*
X167203218Y-114593139D01*
X167204220Y-114586555D01*
X167204629Y-114579970D01*
X167204700Y-114577658D01*
X167204700Y-114310719D01*
X167201003Y-114300562D01*
X167195631Y-114297460D01*
X165713159Y-114297460D01*
X165703002Y-114301157D01*
X165699900Y-114306529D01*
X165699900Y-114538016D01*
X165700152Y-114542354D01*
X165714590Y-114666186D01*
X165716588Y-114674639D01*
X165773467Y-114831340D01*
X165777352Y-114839098D01*
X165852074Y-114953068D01*
X165863864Y-115003139D01*
X165840711Y-115049073D01*
X165789185Y-115069500D01*
X165261210Y-115069500D01*
X165212872Y-115051907D01*
X165187152Y-115007358D01*
X165189499Y-114973802D01*
X165190257Y-114972315D01*
X165205200Y-114877968D01*
X165205200Y-114131801D01*
X165699900Y-114131801D01*
X165703597Y-114141958D01*
X165708969Y-114145060D01*
X166362841Y-114145060D01*
X166372998Y-114141363D01*
X166376100Y-114135991D01*
X166376100Y-114131801D01*
X166528500Y-114131801D01*
X166532197Y-114141958D01*
X166537569Y-114145060D01*
X167191441Y-114145060D01*
X167201598Y-114141363D01*
X167204700Y-114135991D01*
X167204700Y-113904504D01*
X167204448Y-113900166D01*
X167190010Y-113776334D01*
X167188012Y-113767881D01*
X167131133Y-113611180D01*
X167127248Y-113603422D01*
X167035838Y-113463999D01*
X167030273Y-113457344D01*
X166909242Y-113342689D01*
X166902302Y-113337497D01*
X166758136Y-113253760D01*
X166750179Y-113250300D01*
X166590630Y-113201977D01*
X166582085Y-113200439D01*
X166541735Y-113197936D01*
X166531368Y-113200997D01*
X166528500Y-113205321D01*
X166528500Y-114131801D01*
X166376100Y-114131801D01*
X166376100Y-113209160D01*
X166372403Y-113199003D01*
X166369111Y-113197102D01*
X166242727Y-113218819D01*
X166234397Y-113221271D01*
X166081002Y-113286541D01*
X166073459Y-113290844D01*
X165939190Y-113389653D01*
X165932843Y-113395572D01*
X165824906Y-113522622D01*
X165820088Y-113529846D01*
X165744273Y-113678321D01*
X165741251Y-113686449D01*
X165701382Y-113849381D01*
X165700380Y-113855965D01*
X165699971Y-113862550D01*
X165699900Y-113864862D01*
X165699900Y-114131801D01*
X165205200Y-114131801D01*
X165205200Y-113564552D01*
X165190257Y-113470205D01*
X165132316Y-113356489D01*
X165042071Y-113266244D01*
X164928355Y-113208303D01*
X164888414Y-113201977D01*
X164836926Y-113193822D01*
X164836924Y-113193822D01*
X164834008Y-113193360D01*
X164297576Y-113193360D01*
X164249238Y-113175767D01*
X164244402Y-113171334D01*
X162286088Y-111213020D01*
X162274833Y-111207285D01*
X162262472Y-111200987D01*
X162252418Y-111194826D01*
X162230969Y-111179242D01*
X162205763Y-111171052D01*
X162194863Y-111166537D01*
X162176518Y-111157190D01*
X162176514Y-111157189D01*
X162171243Y-111154503D01*
X162145062Y-111150357D01*
X162133595Y-111147604D01*
X162108383Y-111139412D01*
X161700225Y-111139412D01*
X161688461Y-111138486D01*
X161668131Y-111135266D01*
X161662284Y-111134340D01*
X161656437Y-111135266D01*
X161636107Y-111138486D01*
X161624343Y-111139412D01*
X158927773Y-111139412D01*
X158916010Y-111138486D01*
X158914172Y-111138195D01*
X158908546Y-111136367D01*
X158882041Y-111136367D01*
X158870277Y-111135441D01*
X158849947Y-111132221D01*
X158844100Y-111131295D01*
X158838253Y-111132221D01*
X158817923Y-111135441D01*
X158806159Y-111136367D01*
X158779654Y-111136367D01*
X158754442Y-111144559D01*
X158742975Y-111147312D01*
X158716794Y-111151458D01*
X158711523Y-111154144D01*
X158711519Y-111154145D01*
X158693174Y-111163492D01*
X158682274Y-111168007D01*
X158657068Y-111176197D01*
X158635619Y-111191781D01*
X158625565Y-111197942D01*
X158624859Y-111198302D01*
X158601949Y-111209975D01*
X158583213Y-111228711D01*
X158574241Y-111236375D01*
X158552792Y-111251959D01*
X158549317Y-111256742D01*
X158549316Y-111256743D01*
X158537208Y-111273408D01*
X158529544Y-111282380D01*
X158510808Y-111301116D01*
X158508119Y-111306394D01*
X158508118Y-111306395D01*
X158498775Y-111324732D01*
X158492614Y-111334786D01*
X158477030Y-111356235D01*
X158475201Y-111361864D01*
X158468840Y-111381441D01*
X158464325Y-111392341D01*
X158454978Y-111410686D01*
X158454977Y-111410690D01*
X158452291Y-111415961D01*
X158450197Y-111429186D01*
X158448145Y-111442140D01*
X158445392Y-111453609D01*
X158437200Y-111478821D01*
X158437200Y-111505326D01*
X158436274Y-111517089D01*
X158432128Y-111543267D01*
X158433054Y-111549114D01*
X158436274Y-111569444D01*
X158437200Y-111581208D01*
X158437200Y-111607713D01*
X158445392Y-111632925D01*
X158448145Y-111644392D01*
X158452291Y-111670573D01*
X158454977Y-111675844D01*
X158454978Y-111675848D01*
X158464325Y-111694193D01*
X158468840Y-111705093D01*
X158477030Y-111730299D01*
X158492614Y-111751748D01*
X158498775Y-111761802D01*
X158510808Y-111785418D01*
X158533734Y-111808344D01*
X158582067Y-111856678D01*
X158582071Y-111856681D01*
X158604994Y-111879604D01*
X158610268Y-111882291D01*
X158610269Y-111882292D01*
X158628607Y-111891636D01*
X158638661Y-111897796D01*
X158660113Y-111913382D01*
X158674056Y-111917912D01*
X158685323Y-111921573D01*
X158696223Y-111926088D01*
X158719839Y-111938121D01*
X158725683Y-111939047D01*
X158725684Y-111939047D01*
X158746021Y-111942268D01*
X158757494Y-111945022D01*
X158782698Y-111953211D01*
X158815117Y-111953211D01*
X158815121Y-111953212D01*
X158825385Y-111953212D01*
X158837147Y-111954138D01*
X158844100Y-111955239D01*
X158851053Y-111954138D01*
X158862815Y-111953212D01*
X161624343Y-111953212D01*
X161636107Y-111954138D01*
X161654973Y-111957126D01*
X161662284Y-111958284D01*
X161669596Y-111957126D01*
X161688461Y-111954138D01*
X161700225Y-111953212D01*
X161844246Y-111953212D01*
X161892584Y-111970805D01*
X161897420Y-111975238D01*
X163677374Y-113755192D01*
X163699114Y-113801812D01*
X163699400Y-113808366D01*
X163699400Y-114877968D01*
X163714343Y-114972315D01*
X163714832Y-114973274D01*
X163713114Y-115022470D01*
X163678694Y-115060698D01*
X163643390Y-115069500D01*
X127575700Y-115069500D01*
X127527362Y-115051907D01*
X127501642Y-115007358D01*
X127500500Y-114994300D01*
X127500500Y-109243652D01*
X140154128Y-109243652D01*
X140155054Y-109249498D01*
X140155054Y-109249499D01*
X140164210Y-109307305D01*
X140174291Y-109370958D01*
X140182034Y-109386154D01*
X140229637Y-109479579D01*
X140232808Y-109485803D01*
X140323949Y-109576944D01*
X140329225Y-109579632D01*
X140329226Y-109579633D01*
X140368684Y-109599738D01*
X140438794Y-109635461D01*
X140465956Y-109639763D01*
X140554565Y-109653797D01*
X140566100Y-109655624D01*
X140571946Y-109654698D01*
X140604203Y-109649589D01*
X140654698Y-109659404D01*
X140669141Y-109670689D01*
X140998274Y-109999822D01*
X141020014Y-110046442D01*
X141020300Y-110052996D01*
X141020300Y-110199840D01*
X141020197Y-110203776D01*
X141018066Y-110244439D01*
X141026937Y-110267550D01*
X141030282Y-110278842D01*
X141035431Y-110303065D01*
X141040076Y-110309458D01*
X141040077Y-110309460D01*
X141040507Y-110310052D01*
X141049873Y-110327302D01*
X141052968Y-110335364D01*
X141070464Y-110352860D01*
X141078128Y-110361832D01*
X141087217Y-110374341D01*
X141092678Y-110381858D01*
X141099523Y-110385810D01*
X141100157Y-110386176D01*
X141115731Y-110398127D01*
X141154429Y-110436825D01*
X141176169Y-110483445D01*
X141162855Y-110533132D01*
X141154429Y-110543173D01*
X141093024Y-110604578D01*
X141090169Y-110607288D01*
X141059914Y-110634530D01*
X141049844Y-110657147D01*
X141044222Y-110667501D01*
X141030739Y-110688264D01*
X141029503Y-110696071D01*
X141029389Y-110696788D01*
X141023813Y-110715613D01*
X141020300Y-110723503D01*
X141020300Y-110748254D01*
X141019374Y-110760018D01*
X141016887Y-110775723D01*
X141015503Y-110784458D01*
X141017548Y-110792090D01*
X141017548Y-110792091D01*
X141017738Y-110792799D01*
X141020300Y-110812262D01*
X141020300Y-111164040D01*
X141020197Y-111167976D01*
X141018066Y-111208639D01*
X141026937Y-111231750D01*
X141030282Y-111243042D01*
X141035431Y-111267265D01*
X141040076Y-111273658D01*
X141040077Y-111273660D01*
X141040507Y-111274252D01*
X141049873Y-111291502D01*
X141052968Y-111299564D01*
X141070464Y-111317060D01*
X141078128Y-111326032D01*
X141084496Y-111334796D01*
X141092678Y-111346058D01*
X141099523Y-111350010D01*
X141100157Y-111350376D01*
X141115731Y-111362327D01*
X141364461Y-111611057D01*
X141367171Y-111613912D01*
X141394430Y-111644186D01*
X141401649Y-111647400D01*
X141417039Y-111654252D01*
X141427410Y-111659884D01*
X141448163Y-111673361D01*
X141456688Y-111674711D01*
X141475514Y-111680287D01*
X141483403Y-111683800D01*
X141508154Y-111683800D01*
X141519918Y-111684726D01*
X141536552Y-111687361D01*
X141536554Y-111687361D01*
X141544358Y-111688597D01*
X141551990Y-111686552D01*
X141551991Y-111686552D01*
X141552699Y-111686362D01*
X141572162Y-111683800D01*
X141923940Y-111683800D01*
X141927877Y-111683903D01*
X141968539Y-111686034D01*
X141991650Y-111677163D01*
X142002942Y-111673818D01*
X142027165Y-111668669D01*
X142033558Y-111664024D01*
X142033560Y-111664023D01*
X142034152Y-111663593D01*
X142051402Y-111654227D01*
X142052084Y-111653965D01*
X142052085Y-111653964D01*
X142059464Y-111651132D01*
X142076960Y-111633636D01*
X142085932Y-111625972D01*
X142099565Y-111616067D01*
X142105958Y-111611422D01*
X142110276Y-111603943D01*
X142122227Y-111588369D01*
X142370957Y-111339639D01*
X142373812Y-111336929D01*
X142398213Y-111314958D01*
X142404086Y-111309670D01*
X142414153Y-111287060D01*
X142419784Y-111276689D01*
X142428956Y-111262566D01*
X142433261Y-111255937D01*
X142434611Y-111247412D01*
X142440187Y-111228587D01*
X142440484Y-111227920D01*
X142443700Y-111220697D01*
X142443700Y-111195946D01*
X142444626Y-111184182D01*
X142447261Y-111167548D01*
X142447261Y-111167546D01*
X142448497Y-111159742D01*
X142446262Y-111151400D01*
X142443700Y-111131938D01*
X142443700Y-110780160D01*
X142443803Y-110776225D01*
X142444652Y-110760018D01*
X142445934Y-110735560D01*
X142437067Y-110712461D01*
X142433714Y-110701143D01*
X142432789Y-110696788D01*
X142428569Y-110676935D01*
X142423923Y-110670540D01*
X142423493Y-110669948D01*
X142414127Y-110652698D01*
X142413865Y-110652016D01*
X142413864Y-110652015D01*
X142411032Y-110644636D01*
X142393536Y-110627140D01*
X142385872Y-110618168D01*
X142375967Y-110604535D01*
X142371322Y-110598142D01*
X142364480Y-110594192D01*
X142364478Y-110594190D01*
X142363848Y-110593827D01*
X142348271Y-110581875D01*
X142309570Y-110543173D01*
X142287831Y-110496552D01*
X142289587Y-110490000D01*
X143085928Y-110490000D01*
X143086854Y-110495847D01*
X143091206Y-110523327D01*
X143106091Y-110617306D01*
X143123777Y-110652016D01*
X143160228Y-110723554D01*
X143164608Y-110732151D01*
X143255749Y-110823292D01*
X143370594Y-110881809D01*
X143497900Y-110901972D01*
X143625206Y-110881809D01*
X143740051Y-110823292D01*
X143822217Y-110741126D01*
X143868837Y-110719386D01*
X143875391Y-110719100D01*
X143981957Y-110719100D01*
X144030295Y-110736693D01*
X144056231Y-110782536D01*
X144059371Y-110802361D01*
X144070291Y-110871306D01*
X144085916Y-110901972D01*
X144106729Y-110942818D01*
X144128808Y-110986151D01*
X144219949Y-111077292D01*
X144334794Y-111135809D01*
X144340641Y-111136735D01*
X144385630Y-111143861D01*
X144430621Y-111168800D01*
X144449066Y-111218135D01*
X144449066Y-111376909D01*
X144448963Y-111380845D01*
X144446832Y-111421508D01*
X144455703Y-111444619D01*
X144459048Y-111455911D01*
X144464197Y-111480134D01*
X144468842Y-111486527D01*
X144468843Y-111486529D01*
X144469273Y-111487121D01*
X144478639Y-111504371D01*
X144481734Y-111512433D01*
X144499230Y-111529929D01*
X144506894Y-111538901D01*
X144521444Y-111558927D01*
X144528924Y-111563246D01*
X144544496Y-111575195D01*
X144862791Y-111893491D01*
X144865500Y-111896346D01*
X144892742Y-111926601D01*
X144915359Y-111936671D01*
X144925713Y-111942293D01*
X144946476Y-111955776D01*
X144954941Y-111957117D01*
X144955000Y-111957126D01*
X144973826Y-111962702D01*
X144981715Y-111966215D01*
X145006466Y-111966215D01*
X145018230Y-111967141D01*
X145034864Y-111969776D01*
X145034866Y-111969776D01*
X145042670Y-111971012D01*
X145050302Y-111968967D01*
X145050303Y-111968967D01*
X145051011Y-111968777D01*
X145070474Y-111966215D01*
X146070030Y-111966215D01*
X146118368Y-111983808D01*
X146123204Y-111988241D01*
X146205370Y-112070407D01*
X146210646Y-112073095D01*
X146210647Y-112073096D01*
X146239454Y-112087774D01*
X146320215Y-112128924D01*
X146447521Y-112149087D01*
X146453368Y-112148161D01*
X146568981Y-112129850D01*
X146568982Y-112129850D01*
X146574827Y-112128924D01*
X146580101Y-112126237D01*
X146585729Y-112124408D01*
X146586342Y-112126295D01*
X146629023Y-112121054D01*
X146672164Y-112149069D01*
X146679111Y-112160185D01*
X146728552Y-112257218D01*
X146819693Y-112348359D01*
X146934538Y-112406876D01*
X147061844Y-112427039D01*
X147189150Y-112406876D01*
X147303995Y-112348359D01*
X147395136Y-112257218D01*
X147403667Y-112240475D01*
X147441288Y-112205393D01*
X147492657Y-112202701D01*
X147504811Y-112207611D01*
X147573694Y-112242709D01*
X147579541Y-112243635D01*
X147691757Y-112261408D01*
X147701000Y-112262872D01*
X147710244Y-112261408D01*
X147822459Y-112243635D01*
X147828306Y-112242709D01*
X147943151Y-112184192D01*
X147947334Y-112180010D01*
X147977778Y-112149566D01*
X148024398Y-112127826D01*
X148074085Y-112141140D01*
X148084126Y-112149566D01*
X148118752Y-112184192D01*
X148124028Y-112186880D01*
X148124029Y-112186881D01*
X148160361Y-112205393D01*
X148233597Y-112242709D01*
X148239444Y-112243635D01*
X148351660Y-112261408D01*
X148360903Y-112262872D01*
X148370147Y-112261408D01*
X148482362Y-112243635D01*
X148488209Y-112242709D01*
X148561445Y-112205393D01*
X148597777Y-112186881D01*
X148597778Y-112186880D01*
X148603054Y-112184192D01*
X148694195Y-112093051D01*
X148698278Y-112085039D01*
X148739552Y-112004034D01*
X148752712Y-111978206D01*
X148772875Y-111850900D01*
X148752712Y-111723594D01*
X148712251Y-111644186D01*
X148696884Y-111614026D01*
X148696883Y-111614025D01*
X148694195Y-111608749D01*
X148603054Y-111517608D01*
X148578950Y-111505326D01*
X148540999Y-111485989D01*
X148488209Y-111459091D01*
X148488004Y-111459059D01*
X148449528Y-111428998D01*
X148438100Y-111389147D01*
X148438100Y-109575100D01*
X149286905Y-109575100D01*
X149307068Y-109702406D01*
X149365585Y-109817251D01*
X149456726Y-109908392D01*
X149462002Y-109911080D01*
X149462003Y-109911081D01*
X149507084Y-109934051D01*
X149571571Y-109966909D01*
X149698877Y-109987072D01*
X149826183Y-109966909D01*
X149890670Y-109934051D01*
X149935751Y-109911081D01*
X149935752Y-109911080D01*
X149941028Y-109908392D01*
X150032169Y-109817251D01*
X150090686Y-109702406D01*
X150090828Y-109702478D01*
X150120544Y-109664439D01*
X150172161Y-109653936D01*
X150280050Y-109671024D01*
X150285896Y-109670098D01*
X150299408Y-109667958D01*
X150318153Y-109664989D01*
X150368648Y-109674804D01*
X150383091Y-109686089D01*
X150897083Y-110200081D01*
X150918823Y-110246701D01*
X150918183Y-110265018D01*
X150913302Y-110295835D01*
X150914228Y-110301682D01*
X150922997Y-110357049D01*
X150933465Y-110423141D01*
X150945553Y-110446865D01*
X150988775Y-110531691D01*
X150991982Y-110537986D01*
X151083123Y-110629127D01*
X151197968Y-110687644D01*
X151203815Y-110688570D01*
X151283199Y-110701143D01*
X151325274Y-110707807D01*
X151367350Y-110701143D01*
X151446733Y-110688570D01*
X151452580Y-110687644D01*
X151567425Y-110629127D01*
X151658566Y-110537986D01*
X151661774Y-110531691D01*
X151704995Y-110446865D01*
X151717083Y-110423141D01*
X151727551Y-110357049D01*
X151736320Y-110301682D01*
X151737246Y-110295835D01*
X151735909Y-110287390D01*
X151718009Y-110174376D01*
X151717083Y-110168529D01*
X151675365Y-110086653D01*
X151661255Y-110058961D01*
X151661254Y-110058960D01*
X151658566Y-110053684D01*
X151567425Y-109962543D01*
X151452580Y-109904026D01*
X151325274Y-109883863D01*
X151319427Y-109884789D01*
X151279884Y-109891052D01*
X151229389Y-109881237D01*
X151214946Y-109869952D01*
X150707087Y-109362093D01*
X150685347Y-109315473D01*
X150685987Y-109297155D01*
X150692022Y-109259052D01*
X150695017Y-109259526D01*
X150708689Y-109221962D01*
X150753238Y-109196242D01*
X150766296Y-109195100D01*
X151092177Y-109195100D01*
X151126318Y-109203296D01*
X151219044Y-109250543D01*
X151346350Y-109270706D01*
X151473656Y-109250543D01*
X151588501Y-109192026D01*
X151679642Y-109100885D01*
X151738159Y-108986040D01*
X151758322Y-108858734D01*
X151757259Y-108852019D01*
X151744168Y-108769369D01*
X151738159Y-108731428D01*
X151687901Y-108632792D01*
X151681632Y-108581736D01*
X151709648Y-108538595D01*
X151754905Y-108523452D01*
X152078720Y-108523452D01*
X152127058Y-108541045D01*
X152145723Y-108564511D01*
X152170687Y-108613506D01*
X152170691Y-108613511D01*
X152173378Y-108618785D01*
X152264519Y-108709926D01*
X152269795Y-108712614D01*
X152269796Y-108712615D01*
X152306719Y-108731428D01*
X152379364Y-108768443D01*
X152506670Y-108788606D01*
X152633976Y-108768443D01*
X152706621Y-108731428D01*
X152743544Y-108712615D01*
X152743545Y-108712614D01*
X152748821Y-108709926D01*
X152839962Y-108618785D01*
X152898479Y-108503940D01*
X152918642Y-108376634D01*
X152898479Y-108249328D01*
X152839962Y-108134483D01*
X152748821Y-108043342D01*
X152633976Y-107984825D01*
X152570323Y-107974743D01*
X152512517Y-107965588D01*
X152506670Y-107964662D01*
X152500823Y-107965588D01*
X152443017Y-107974743D01*
X152379364Y-107984825D01*
X152264519Y-108043342D01*
X152260333Y-108047528D01*
X152255709Y-108050888D01*
X152211505Y-108065252D01*
X150668120Y-108065252D01*
X150619782Y-108047659D01*
X150614946Y-108043226D01*
X150532780Y-107961060D01*
X150526106Y-107957659D01*
X150479715Y-107934022D01*
X150417935Y-107902543D01*
X150290629Y-107882380D01*
X150163323Y-107902543D01*
X150101543Y-107934022D01*
X150055153Y-107957659D01*
X150048478Y-107961060D01*
X149957337Y-108052201D01*
X149898820Y-108167046D01*
X149878657Y-108294352D01*
X149898820Y-108421658D01*
X149901508Y-108426932D01*
X149901508Y-108426934D01*
X149945282Y-108512844D01*
X149951552Y-108563901D01*
X149922481Y-108607823D01*
X149906092Y-108619730D01*
X149902141Y-108626573D01*
X149901775Y-108627208D01*
X149889824Y-108642781D01*
X149542510Y-108990095D01*
X149539655Y-108992805D01*
X149509391Y-109020055D01*
X149499321Y-109042672D01*
X149493699Y-109053026D01*
X149480216Y-109073789D01*
X149478980Y-109081596D01*
X149478866Y-109082313D01*
X149473290Y-109101138D01*
X149469777Y-109109028D01*
X149469777Y-109133779D01*
X149468851Y-109145543D01*
X149464980Y-109169983D01*
X149467025Y-109177614D01*
X149467025Y-109177619D01*
X149467178Y-109178188D01*
X149467101Y-109179065D01*
X149467439Y-109185512D01*
X149466533Y-109185559D01*
X149462692Y-109229431D01*
X149447713Y-109250821D01*
X149365585Y-109332949D01*
X149362897Y-109338225D01*
X149362896Y-109338226D01*
X149339011Y-109385103D01*
X149307068Y-109447794D01*
X149286905Y-109575100D01*
X148438100Y-109575100D01*
X148438100Y-107671100D01*
X154832627Y-107671100D01*
X154852790Y-107798406D01*
X154911307Y-107913251D01*
X154993473Y-107995417D01*
X155015213Y-108042037D01*
X155015499Y-108048591D01*
X155015499Y-109504239D01*
X155015396Y-109508175D01*
X155013265Y-109548838D01*
X155022136Y-109571949D01*
X155025481Y-109583241D01*
X155030630Y-109607464D01*
X155035275Y-109613857D01*
X155035276Y-109613859D01*
X155035706Y-109614451D01*
X155045072Y-109631701D01*
X155048167Y-109639763D01*
X155065663Y-109657259D01*
X155073327Y-109666231D01*
X155082421Y-109678747D01*
X155087877Y-109686257D01*
X155094722Y-109690209D01*
X155095356Y-109690575D01*
X155110930Y-109702526D01*
X156228863Y-110820459D01*
X156250603Y-110867079D01*
X156249963Y-110885397D01*
X156243928Y-110923500D01*
X156264091Y-111050806D01*
X156278957Y-111079981D01*
X156316625Y-111153908D01*
X156322608Y-111165651D01*
X156413749Y-111256792D01*
X156419025Y-111259480D01*
X156419026Y-111259481D01*
X156462545Y-111281655D01*
X156528594Y-111315309D01*
X156655900Y-111335472D01*
X156783206Y-111315309D01*
X156849255Y-111281655D01*
X156892774Y-111259481D01*
X156892775Y-111259480D01*
X156898051Y-111256792D01*
X156989192Y-111165651D01*
X156995176Y-111153908D01*
X157032843Y-111079981D01*
X157047709Y-111050806D01*
X157067872Y-110923500D01*
X157047709Y-110796194D01*
X156999278Y-110701143D01*
X156991881Y-110686626D01*
X156991880Y-110686625D01*
X156989192Y-110681349D01*
X156898051Y-110590208D01*
X156892323Y-110587289D01*
X156805740Y-110543173D01*
X156783206Y-110531691D01*
X156686964Y-110516448D01*
X156661747Y-110512454D01*
X156655900Y-110511528D01*
X156617797Y-110517563D01*
X156567302Y-110507748D01*
X156552859Y-110496463D01*
X155495725Y-109439328D01*
X155473985Y-109392708D01*
X155473699Y-109386154D01*
X155473699Y-108920849D01*
X163502128Y-108920849D01*
X163522291Y-109048155D01*
X163524978Y-109053428D01*
X163575786Y-109153143D01*
X163580808Y-109163000D01*
X163671949Y-109254141D01*
X163677225Y-109256829D01*
X163677226Y-109256830D01*
X163692992Y-109264863D01*
X163786794Y-109312658D01*
X163914100Y-109332821D01*
X163919947Y-109331895D01*
X163981424Y-109322158D01*
X164031919Y-109331973D01*
X164046362Y-109343258D01*
X164291963Y-109588859D01*
X164313703Y-109635479D01*
X164313063Y-109653797D01*
X164307028Y-109691900D01*
X164327191Y-109819206D01*
X164343577Y-109851365D01*
X164369938Y-109903100D01*
X164385708Y-109934051D01*
X164476849Y-110025192D01*
X164482125Y-110027880D01*
X164482126Y-110027881D01*
X164518554Y-110046442D01*
X164591694Y-110083709D01*
X164597541Y-110084635D01*
X164708248Y-110102169D01*
X164719000Y-110103872D01*
X164729753Y-110102169D01*
X164840459Y-110084635D01*
X164846306Y-110083709D01*
X164863159Y-110075122D01*
X164914215Y-110068852D01*
X164957356Y-110096867D01*
X164972500Y-110142125D01*
X164972500Y-111139845D01*
X164954907Y-111188183D01*
X164950474Y-111193019D01*
X164286329Y-111857164D01*
X164283640Y-111862442D01*
X164283639Y-111862443D01*
X164274296Y-111880780D01*
X164268135Y-111890834D01*
X164252551Y-111912283D01*
X164248939Y-111923401D01*
X164244361Y-111937489D01*
X164239846Y-111948389D01*
X164230764Y-111966215D01*
X164227812Y-111972009D01*
X164226886Y-111977856D01*
X164223666Y-111998188D01*
X164220913Y-112009657D01*
X164212721Y-112034869D01*
X164212721Y-112061374D01*
X164211795Y-112073137D01*
X164207649Y-112099315D01*
X164208575Y-112105162D01*
X164211795Y-112125492D01*
X164212721Y-112137256D01*
X164212721Y-112163761D01*
X164220913Y-112188973D01*
X164223666Y-112200440D01*
X164227812Y-112226621D01*
X164230498Y-112231892D01*
X164230499Y-112231896D01*
X164239846Y-112250241D01*
X164244361Y-112261141D01*
X164252551Y-112286347D01*
X164268135Y-112307796D01*
X164274296Y-112317850D01*
X164286329Y-112341466D01*
X164305065Y-112360202D01*
X164312729Y-112369174D01*
X164328313Y-112390623D01*
X164333096Y-112394098D01*
X164349761Y-112406206D01*
X164358733Y-112413870D01*
X164377470Y-112432607D01*
X164382748Y-112435296D01*
X164382749Y-112435297D01*
X164401086Y-112444640D01*
X164411140Y-112450801D01*
X164432589Y-112466385D01*
X164438218Y-112468214D01*
X164457795Y-112474575D01*
X164468695Y-112479090D01*
X164487040Y-112488437D01*
X164487044Y-112488438D01*
X164492315Y-112491124D01*
X164518496Y-112495270D01*
X164529963Y-112498023D01*
X164555175Y-112506215D01*
X164581680Y-112506215D01*
X164593443Y-112507141D01*
X164619621Y-112511287D01*
X164645799Y-112507141D01*
X164657562Y-112506215D01*
X164684067Y-112506215D01*
X164709279Y-112498023D01*
X164720746Y-112495270D01*
X164746927Y-112491124D01*
X164752198Y-112488438D01*
X164752202Y-112488437D01*
X164770547Y-112479090D01*
X164781447Y-112474575D01*
X164801024Y-112468214D01*
X164806653Y-112466385D01*
X164828102Y-112450801D01*
X164838156Y-112444640D01*
X164856493Y-112435297D01*
X164856494Y-112435296D01*
X164861772Y-112432607D01*
X165712692Y-111581687D01*
X165724725Y-111558071D01*
X165730886Y-111548017D01*
X165746470Y-111526568D01*
X165754660Y-111501362D01*
X165759175Y-111490462D01*
X165768522Y-111472117D01*
X165768523Y-111472113D01*
X165771209Y-111466842D01*
X165775355Y-111440661D01*
X165778108Y-111429194D01*
X165786300Y-111403982D01*
X165786300Y-108920154D01*
X165778108Y-108894942D01*
X165775355Y-108883473D01*
X165772135Y-108863141D01*
X165771209Y-108857294D01*
X165768523Y-108852023D01*
X165768522Y-108852019D01*
X165759175Y-108833674D01*
X165754660Y-108822774D01*
X165748299Y-108803197D01*
X165746470Y-108797568D01*
X165730886Y-108776119D01*
X165724725Y-108766065D01*
X165715382Y-108747728D01*
X165715381Y-108747727D01*
X165712692Y-108742449D01*
X164840951Y-107870708D01*
X164817335Y-107858675D01*
X164807281Y-107852514D01*
X164785832Y-107836930D01*
X164760626Y-107828740D01*
X164749726Y-107824225D01*
X164731381Y-107814878D01*
X164731377Y-107814877D01*
X164726106Y-107812191D01*
X164699925Y-107808045D01*
X164688458Y-107805292D01*
X164663246Y-107797100D01*
X164629941Y-107797100D01*
X164618177Y-107796174D01*
X164597847Y-107792954D01*
X164592000Y-107792028D01*
X164586153Y-107792954D01*
X164565823Y-107796174D01*
X164554059Y-107797100D01*
X164534354Y-107797100D01*
X164528726Y-107798929D01*
X164528724Y-107798929D01*
X164515615Y-107803189D01*
X164504139Y-107805944D01*
X164470540Y-107811265D01*
X164470539Y-107811265D01*
X164464694Y-107812191D01*
X164432215Y-107828740D01*
X164429110Y-107830322D01*
X164418209Y-107834837D01*
X164411768Y-107836930D01*
X164406284Y-107840914D01*
X164396235Y-107847073D01*
X164349849Y-107870708D01*
X164308856Y-107911701D01*
X164307492Y-107912692D01*
X164306501Y-107914056D01*
X164258708Y-107961849D01*
X164200191Y-108076694D01*
X164180028Y-108204000D01*
X164200191Y-108331306D01*
X164258708Y-108446151D01*
X164349849Y-108537292D01*
X164355126Y-108539981D01*
X164359913Y-108543459D01*
X164359704Y-108543746D01*
X164372137Y-108552780D01*
X164950474Y-109131117D01*
X164972214Y-109177737D01*
X164972500Y-109184291D01*
X164972500Y-109241675D01*
X164954907Y-109290013D01*
X164910358Y-109315733D01*
X164863159Y-109308678D01*
X164846306Y-109300091D01*
X164757104Y-109285963D01*
X164724847Y-109280854D01*
X164719000Y-109279928D01*
X164680897Y-109285963D01*
X164630402Y-109276148D01*
X164615959Y-109264863D01*
X164345765Y-108994669D01*
X164324025Y-108948049D01*
X164324665Y-108929729D01*
X164325146Y-108926693D01*
X164326072Y-108920849D01*
X164305909Y-108793543D01*
X164261169Y-108705736D01*
X164250081Y-108683975D01*
X164250080Y-108683974D01*
X164247392Y-108678698D01*
X164156251Y-108587557D01*
X164128422Y-108573377D01*
X164070268Y-108543746D01*
X164041406Y-108529040D01*
X163914100Y-108508877D01*
X163786794Y-108529040D01*
X163757932Y-108543746D01*
X163699779Y-108573377D01*
X163671949Y-108587557D01*
X163580808Y-108678698D01*
X163578120Y-108683974D01*
X163578119Y-108683975D01*
X163567031Y-108705736D01*
X163522291Y-108793543D01*
X163502128Y-108920849D01*
X155473699Y-108920849D01*
X155473699Y-108048591D01*
X155491292Y-108000253D01*
X155495725Y-107995417D01*
X155577891Y-107913251D01*
X155636408Y-107798406D01*
X155656571Y-107671100D01*
X155636408Y-107543794D01*
X155577891Y-107428949D01*
X155486750Y-107337808D01*
X155371905Y-107279291D01*
X155244599Y-107259128D01*
X155117293Y-107279291D01*
X155002448Y-107337808D01*
X154911307Y-107428949D01*
X154852790Y-107543794D01*
X154832627Y-107671100D01*
X148438100Y-107671100D01*
X148438100Y-106952408D01*
X148438203Y-106948473D01*
X148439878Y-106916507D01*
X148440334Y-106907808D01*
X148431467Y-106884709D01*
X148428114Y-106873391D01*
X148426651Y-106866504D01*
X148422969Y-106849183D01*
X148418323Y-106842788D01*
X148417893Y-106842196D01*
X148408527Y-106824946D01*
X148408265Y-106824264D01*
X148408264Y-106824263D01*
X148405432Y-106816884D01*
X148387936Y-106799388D01*
X148380272Y-106790416D01*
X148370367Y-106776783D01*
X148365722Y-106770390D01*
X148358243Y-106766072D01*
X148342669Y-106754121D01*
X147046658Y-105458109D01*
X147043948Y-105455254D01*
X147021986Y-105430863D01*
X147016698Y-105424990D01*
X146994081Y-105414920D01*
X146983725Y-105409297D01*
X146976275Y-105404459D01*
X146962964Y-105395815D01*
X146954440Y-105394465D01*
X146935615Y-105388889D01*
X146934948Y-105388592D01*
X146927725Y-105385376D01*
X146902974Y-105385376D01*
X146891210Y-105384450D01*
X146874576Y-105381815D01*
X146874574Y-105381815D01*
X146866770Y-105380579D01*
X146859138Y-105382624D01*
X146859137Y-105382624D01*
X146858429Y-105382814D01*
X146838966Y-105385376D01*
X146806469Y-105385376D01*
X146758131Y-105367783D01*
X146753294Y-105363350D01*
X146672710Y-105282766D01*
X148491997Y-105282766D01*
X148492923Y-105288613D01*
X148497687Y-105318693D01*
X148512160Y-105410072D01*
X148570677Y-105524917D01*
X148661818Y-105616058D01*
X148667094Y-105618746D01*
X148667095Y-105618747D01*
X148714883Y-105643096D01*
X148776663Y-105674575D01*
X148903969Y-105694738D01*
X149031275Y-105674575D01*
X149093055Y-105643096D01*
X149140843Y-105618747D01*
X149140844Y-105618746D01*
X149146120Y-105616058D01*
X149237261Y-105524917D01*
X149295778Y-105410072D01*
X149310251Y-105318693D01*
X149315015Y-105288613D01*
X149315941Y-105282766D01*
X149315015Y-105276916D01*
X149296704Y-105161307D01*
X149295778Y-105155460D01*
X149254619Y-105074682D01*
X149239950Y-105045892D01*
X149239949Y-105045891D01*
X149237261Y-105040615D01*
X149155095Y-104958449D01*
X149133355Y-104911829D01*
X149133069Y-104905275D01*
X149133069Y-104640719D01*
X149150662Y-104592381D01*
X149155095Y-104587545D01*
X149237424Y-104505216D01*
X149250009Y-104480518D01*
X149278454Y-104424690D01*
X149295941Y-104390371D01*
X149316104Y-104263065D01*
X149313352Y-104245686D01*
X149296867Y-104141606D01*
X149295941Y-104135759D01*
X149237424Y-104020914D01*
X149146283Y-103929773D01*
X149124497Y-103918672D01*
X149036711Y-103873943D01*
X149036712Y-103873943D01*
X149031438Y-103871256D01*
X148904132Y-103851093D01*
X148776826Y-103871256D01*
X148771552Y-103873943D01*
X148771553Y-103873943D01*
X148683768Y-103918672D01*
X148661981Y-103929773D01*
X148570840Y-104020914D01*
X148512323Y-104135759D01*
X148511397Y-104141606D01*
X148494913Y-104245686D01*
X148492160Y-104263065D01*
X148512323Y-104390371D01*
X148529810Y-104424690D01*
X148558256Y-104480518D01*
X148570840Y-104505216D01*
X148652843Y-104587219D01*
X148674583Y-104633839D01*
X148674869Y-104640393D01*
X148674869Y-104905275D01*
X148657276Y-104953613D01*
X148652843Y-104958449D01*
X148570677Y-105040615D01*
X148567989Y-105045891D01*
X148567988Y-105045892D01*
X148553319Y-105074682D01*
X148512160Y-105155460D01*
X148511234Y-105161307D01*
X148492924Y-105276916D01*
X148491997Y-105282766D01*
X146672710Y-105282766D01*
X146533599Y-105143654D01*
X146530890Y-105140799D01*
X146508936Y-105116417D01*
X146503648Y-105110544D01*
X146481031Y-105100474D01*
X146470675Y-105094851D01*
X146456543Y-105085673D01*
X146456540Y-105085672D01*
X146449914Y-105081369D01*
X146442108Y-105080133D01*
X146436405Y-105077944D01*
X146408964Y-105056890D01*
X146407975Y-105057879D01*
X146316834Y-104966738D01*
X146301026Y-104958683D01*
X146207262Y-104910908D01*
X146207263Y-104910908D01*
X146201989Y-104908221D01*
X146111430Y-104893878D01*
X146080530Y-104888984D01*
X146074683Y-104888058D01*
X146068836Y-104888984D01*
X146037936Y-104893878D01*
X145947377Y-104908221D01*
X145942103Y-104910908D01*
X145942104Y-104910908D01*
X145848341Y-104958683D01*
X145832532Y-104966738D01*
X145806530Y-104992740D01*
X145759913Y-105014480D01*
X145710225Y-105001167D01*
X145700183Y-104992740D01*
X145657151Y-104949708D01*
X145642226Y-104942103D01*
X145575729Y-104908221D01*
X145542306Y-104891191D01*
X145415000Y-104871028D01*
X145287694Y-104891191D01*
X145254271Y-104908221D01*
X145187775Y-104942103D01*
X145172849Y-104949708D01*
X145090683Y-105031874D01*
X145044063Y-105053614D01*
X145037509Y-105053900D01*
X144062414Y-105053900D01*
X144036431Y-105047661D01*
X144036108Y-105048656D01*
X144030480Y-105046827D01*
X144025206Y-105044140D01*
X144019361Y-105043214D01*
X144019360Y-105043214D01*
X143903747Y-105024903D01*
X143897900Y-105023977D01*
X143892053Y-105024903D01*
X143834247Y-105034059D01*
X143770594Y-105044140D01*
X143751439Y-105053900D01*
X143689082Y-105085673D01*
X143655749Y-105102657D01*
X143564608Y-105193798D01*
X143506091Y-105308643D01*
X143505165Y-105314490D01*
X143489258Y-105414927D01*
X143485928Y-105435949D01*
X143506091Y-105563255D01*
X143564608Y-105678100D01*
X143655749Y-105769241D01*
X143770594Y-105827758D01*
X143897900Y-105847921D01*
X144025206Y-105827758D01*
X144140051Y-105769241D01*
X144231192Y-105678100D01*
X144289709Y-105563255D01*
X144289863Y-105562283D01*
X144320143Y-105523527D01*
X144359993Y-105512100D01*
X145037509Y-105512100D01*
X145085847Y-105529693D01*
X145090683Y-105534126D01*
X145172849Y-105616292D01*
X145178125Y-105618980D01*
X145178126Y-105618981D01*
X145206272Y-105633322D01*
X145287694Y-105674809D01*
X145293541Y-105675735D01*
X145395219Y-105691839D01*
X145415000Y-105694972D01*
X145434782Y-105691839D01*
X145536459Y-105675735D01*
X145542306Y-105674809D01*
X145623728Y-105633322D01*
X145651874Y-105618981D01*
X145651875Y-105618980D01*
X145657151Y-105616292D01*
X145661575Y-105611868D01*
X145683154Y-105590290D01*
X145729774Y-105568551D01*
X145779461Y-105581866D01*
X145789500Y-105590290D01*
X145832532Y-105633322D01*
X145891932Y-105663588D01*
X145927013Y-105701208D01*
X145929705Y-105752577D01*
X145924795Y-105764730D01*
X145910915Y-105791970D01*
X145890752Y-105919276D01*
X145910915Y-106046582D01*
X145969432Y-106161427D01*
X146060573Y-106252568D01*
X146065849Y-106255256D01*
X146065850Y-106255257D01*
X146072066Y-106258424D01*
X146175418Y-106311085D01*
X146302724Y-106331248D01*
X146430030Y-106311085D01*
X146533382Y-106258424D01*
X146539598Y-106255257D01*
X146539599Y-106255256D01*
X146544875Y-106252568D01*
X146600300Y-106197143D01*
X146646921Y-106175404D01*
X146696608Y-106188718D01*
X146706648Y-106197144D01*
X147080678Y-106571174D01*
X147102418Y-106617794D01*
X147089104Y-106667481D01*
X147061646Y-106691351D01*
X146976749Y-106734608D01*
X146885608Y-106825749D01*
X146882920Y-106831025D01*
X146882919Y-106831026D01*
X146881308Y-106834188D01*
X146827091Y-106940594D01*
X146806928Y-107067900D01*
X146807854Y-107073747D01*
X146814238Y-107114057D01*
X146827091Y-107195206D01*
X146885608Y-107310051D01*
X146976749Y-107401192D01*
X147091594Y-107459709D01*
X147218900Y-107479872D01*
X147224746Y-107478946D01*
X147257003Y-107473837D01*
X147307498Y-107483652D01*
X147321941Y-107494937D01*
X147348274Y-107521270D01*
X147370014Y-107567890D01*
X147370300Y-107574444D01*
X147370300Y-111143956D01*
X147352707Y-111192294D01*
X147348274Y-111197130D01*
X146945011Y-111600392D01*
X146898391Y-111622132D01*
X146848704Y-111608818D01*
X146824833Y-111581358D01*
X146815604Y-111563244D01*
X146780813Y-111494964D01*
X146689672Y-111403823D01*
X146678368Y-111398063D01*
X146608232Y-111362327D01*
X146574827Y-111345306D01*
X146447521Y-111325143D01*
X146320215Y-111345306D01*
X146286810Y-111362327D01*
X146216675Y-111398063D01*
X146205370Y-111403823D01*
X146123204Y-111485989D01*
X146076584Y-111507729D01*
X146070030Y-111508015D01*
X145575556Y-111508015D01*
X145527218Y-111490422D01*
X145501498Y-111445873D01*
X145508552Y-111398675D01*
X145541227Y-111334546D01*
X145552575Y-111312275D01*
X145568721Y-111210330D01*
X145571812Y-111190816D01*
X145572738Y-111184969D01*
X145570525Y-111170993D01*
X145553501Y-111063510D01*
X145552575Y-111057663D01*
X145518272Y-110990341D01*
X145496747Y-110948095D01*
X145496746Y-110948094D01*
X145494058Y-110942818D01*
X145402917Y-110851677D01*
X145396003Y-110848154D01*
X145293344Y-110795846D01*
X145293343Y-110795846D01*
X145288072Y-110793160D01*
X145282227Y-110792234D01*
X145282226Y-110792234D01*
X145254572Y-110787854D01*
X145209581Y-110762915D01*
X145198375Y-110745325D01*
X145196935Y-110738549D01*
X145192288Y-110732153D01*
X145192287Y-110732151D01*
X145191859Y-110731562D01*
X145182493Y-110714312D01*
X145179399Y-110706252D01*
X145181788Y-110705335D01*
X145173800Y-110678372D01*
X145173800Y-110552060D01*
X145173903Y-110548125D01*
X145175343Y-110520638D01*
X145176034Y-110507460D01*
X145167167Y-110484361D01*
X145163814Y-110473043D01*
X145160312Y-110456565D01*
X145158669Y-110448835D01*
X145154023Y-110442440D01*
X145153593Y-110441848D01*
X145144227Y-110424598D01*
X145143965Y-110423916D01*
X145143964Y-110423915D01*
X145141132Y-110416536D01*
X145123636Y-110399040D01*
X145115972Y-110390068D01*
X145106067Y-110376435D01*
X145101422Y-110370042D01*
X145093942Y-110365723D01*
X145078370Y-110353774D01*
X144956343Y-110231746D01*
X144911943Y-110187346D01*
X145346543Y-110187346D01*
X145347469Y-110193192D01*
X145347469Y-110193193D01*
X145352578Y-110225449D01*
X145366706Y-110314652D01*
X145380108Y-110340954D01*
X145403624Y-110387106D01*
X145425223Y-110429497D01*
X145516364Y-110520638D01*
X145521640Y-110523326D01*
X145521641Y-110523327D01*
X145543330Y-110534378D01*
X145631209Y-110579155D01*
X145637056Y-110580081D01*
X145726138Y-110594190D01*
X145758515Y-110599318D01*
X145796617Y-110593283D01*
X145847111Y-110603098D01*
X145861555Y-110614382D01*
X145943243Y-110696071D01*
X146020040Y-110772868D01*
X146022749Y-110775723D01*
X146049991Y-110805978D01*
X146072608Y-110816048D01*
X146082962Y-110821670D01*
X146103725Y-110835153D01*
X146112190Y-110836494D01*
X146112249Y-110836503D01*
X146131075Y-110842079D01*
X146138964Y-110845592D01*
X146163715Y-110845592D01*
X146175479Y-110846518D01*
X146192113Y-110849153D01*
X146192115Y-110849153D01*
X146199919Y-110850389D01*
X146207551Y-110848344D01*
X146207552Y-110848344D01*
X146208260Y-110848154D01*
X146227723Y-110845592D01*
X146316171Y-110845592D01*
X146364509Y-110863185D01*
X146369345Y-110867618D01*
X146451511Y-110949784D01*
X146566356Y-111008301D01*
X146693662Y-111028464D01*
X146820968Y-111008301D01*
X146935813Y-110949784D01*
X147026954Y-110858643D01*
X147030504Y-110851677D01*
X147060320Y-110793160D01*
X147085471Y-110743798D01*
X147100008Y-110652016D01*
X147104708Y-110622339D01*
X147105634Y-110616492D01*
X147099721Y-110579155D01*
X147086638Y-110496552D01*
X147085471Y-110489186D01*
X147039074Y-110398127D01*
X147029643Y-110379618D01*
X147029642Y-110379617D01*
X147026954Y-110374341D01*
X146935813Y-110283200D01*
X146916641Y-110273431D01*
X146844254Y-110236548D01*
X146820968Y-110224683D01*
X146693662Y-110204520D01*
X146566356Y-110224683D01*
X146543070Y-110236548D01*
X146470684Y-110273431D01*
X146451511Y-110283200D01*
X146369345Y-110365366D01*
X146322725Y-110387106D01*
X146316171Y-110387392D01*
X146313705Y-110387392D01*
X146265367Y-110369799D01*
X146260531Y-110365366D01*
X146185552Y-110290387D01*
X146163812Y-110243767D01*
X146164452Y-110225449D01*
X146169561Y-110193192D01*
X146170487Y-110187346D01*
X146165635Y-110156708D01*
X146151250Y-110065887D01*
X146150324Y-110060040D01*
X146091807Y-109945195D01*
X146000666Y-109854054D01*
X145885821Y-109795537D01*
X145758515Y-109775374D01*
X145631209Y-109795537D01*
X145516364Y-109854054D01*
X145425223Y-109945195D01*
X145366706Y-110060040D01*
X145365780Y-110065887D01*
X145351396Y-110156708D01*
X145346543Y-110187346D01*
X144911943Y-110187346D01*
X144829621Y-110105024D01*
X144826912Y-110102169D01*
X144804958Y-110077787D01*
X144799670Y-110071914D01*
X144777053Y-110061844D01*
X144766697Y-110056221D01*
X144764458Y-110054767D01*
X144745936Y-110042739D01*
X144737412Y-110041389D01*
X144718587Y-110035813D01*
X144717920Y-110035516D01*
X144710697Y-110032300D01*
X144685946Y-110032300D01*
X144674182Y-110031374D01*
X144657548Y-110028739D01*
X144657546Y-110028739D01*
X144649742Y-110027503D01*
X144642110Y-110029548D01*
X144642109Y-110029548D01*
X144641401Y-110029738D01*
X144621938Y-110032300D01*
X144270160Y-110032300D01*
X144266225Y-110032197D01*
X144260584Y-110031901D01*
X144225560Y-110030066D01*
X144210589Y-110035813D01*
X144202461Y-110038933D01*
X144191147Y-110042285D01*
X144166935Y-110047431D01*
X144160542Y-110052076D01*
X144160540Y-110052077D01*
X144159948Y-110052507D01*
X144142698Y-110061873D01*
X144142016Y-110062135D01*
X144142015Y-110062136D01*
X144134636Y-110064968D01*
X144117140Y-110082464D01*
X144108168Y-110090128D01*
X144088142Y-110104678D01*
X144084191Y-110111522D01*
X144084188Y-110111525D01*
X144083822Y-110112159D01*
X144071874Y-110127728D01*
X143960728Y-110238874D01*
X143914108Y-110260614D01*
X143907554Y-110260900D01*
X143875391Y-110260900D01*
X143827053Y-110243307D01*
X143822217Y-110238874D01*
X143740051Y-110156708D01*
X143625206Y-110098191D01*
X143497900Y-110078028D01*
X143370594Y-110098191D01*
X143255749Y-110156708D01*
X143164608Y-110247849D01*
X143161920Y-110253125D01*
X143161919Y-110253126D01*
X143158104Y-110260614D01*
X143106091Y-110362694D01*
X143105165Y-110368541D01*
X143091224Y-110456565D01*
X143085928Y-110490000D01*
X142289587Y-110490000D01*
X142301145Y-110446865D01*
X142309571Y-110436825D01*
X142370957Y-110375439D01*
X142373812Y-110372729D01*
X142391226Y-110357049D01*
X142404086Y-110345470D01*
X142414153Y-110322860D01*
X142419784Y-110312489D01*
X142428956Y-110298366D01*
X142433261Y-110291737D01*
X142434611Y-110283212D01*
X142440187Y-110264387D01*
X142440484Y-110263720D01*
X142443700Y-110256497D01*
X142443700Y-110231746D01*
X142444626Y-110219982D01*
X142447261Y-110203348D01*
X142447261Y-110203346D01*
X142448497Y-110195542D01*
X142446262Y-110187200D01*
X142443700Y-110167738D01*
X142443700Y-110156344D01*
X142461293Y-110108006D01*
X142465726Y-110103170D01*
X142794859Y-109774037D01*
X142841479Y-109752297D01*
X142859797Y-109752937D01*
X142897900Y-109758972D01*
X143025206Y-109738809D01*
X143128743Y-109686054D01*
X143134774Y-109682981D01*
X143134775Y-109682980D01*
X143140051Y-109680292D01*
X143231192Y-109589151D01*
X143237147Y-109577465D01*
X143283851Y-109485803D01*
X143289709Y-109474306D01*
X143305242Y-109376231D01*
X143308946Y-109352847D01*
X143308946Y-109352846D01*
X143309872Y-109347000D01*
X143305938Y-109322158D01*
X143294169Y-109247856D01*
X143289709Y-109219694D01*
X143237050Y-109116346D01*
X143233881Y-109110126D01*
X143233880Y-109110125D01*
X143231192Y-109104849D01*
X143140051Y-109013708D01*
X143126451Y-109006778D01*
X143074275Y-108980193D01*
X143025206Y-108955191D01*
X142897900Y-108935028D01*
X142770594Y-108955191D01*
X142721525Y-108980193D01*
X142669350Y-109006778D01*
X142655749Y-109013708D01*
X142564608Y-109104849D01*
X142561920Y-109110125D01*
X142561919Y-109110126D01*
X142558750Y-109116346D01*
X142506091Y-109219694D01*
X142501631Y-109247856D01*
X142489863Y-109322158D01*
X142485928Y-109347000D01*
X142486854Y-109352846D01*
X142491963Y-109385103D01*
X142482148Y-109435598D01*
X142470867Y-109450037D01*
X142163395Y-109757508D01*
X142116777Y-109779246D01*
X142067090Y-109765932D01*
X142057049Y-109757506D01*
X141983126Y-109683583D01*
X141961386Y-109636963D01*
X141961100Y-109630409D01*
X141961100Y-107671254D01*
X141961203Y-107667319D01*
X141962920Y-107634548D01*
X141963334Y-107626654D01*
X141954465Y-107603548D01*
X141951115Y-107592240D01*
X141947612Y-107575757D01*
X141947611Y-107575755D01*
X141945969Y-107568029D01*
X141940892Y-107561041D01*
X141931525Y-107543788D01*
X141931337Y-107543296D01*
X141928432Y-107535729D01*
X141910933Y-107518230D01*
X141903269Y-107509258D01*
X141893367Y-107495629D01*
X141893366Y-107495629D01*
X141888722Y-107489236D01*
X141881242Y-107484917D01*
X141865671Y-107472968D01*
X141562022Y-107169319D01*
X141540282Y-107122699D01*
X141553596Y-107073012D01*
X141581056Y-107049141D01*
X141660673Y-107008574D01*
X141660674Y-107008573D01*
X141665950Y-107005885D01*
X141748116Y-106923719D01*
X141794736Y-106901979D01*
X141801290Y-106901693D01*
X142411166Y-106901693D01*
X142455370Y-106916057D01*
X142455509Y-106916158D01*
X142459696Y-106920345D01*
X142464968Y-106923031D01*
X142464969Y-106923032D01*
X142505236Y-106943549D01*
X142574541Y-106978862D01*
X142701847Y-106999025D01*
X142829153Y-106978862D01*
X142898458Y-106943549D01*
X142938721Y-106923034D01*
X142938722Y-106923033D01*
X142943998Y-106920345D01*
X143035139Y-106829204D01*
X143039035Y-106821559D01*
X143062177Y-106776139D01*
X143093656Y-106714359D01*
X143113819Y-106587053D01*
X143093656Y-106459747D01*
X143035139Y-106344902D01*
X142943998Y-106253761D01*
X142933440Y-106248381D01*
X142834426Y-106197931D01*
X142834427Y-106197931D01*
X142829153Y-106195244D01*
X142701847Y-106175081D01*
X142574541Y-106195244D01*
X142569267Y-106197931D01*
X142569268Y-106197931D01*
X142470255Y-106248381D01*
X142459696Y-106253761D01*
X142368555Y-106344902D01*
X142365866Y-106350179D01*
X142365865Y-106350181D01*
X142339240Y-106402434D01*
X142301620Y-106437515D01*
X142272237Y-106443493D01*
X141801290Y-106443493D01*
X141752952Y-106425900D01*
X141748116Y-106421467D01*
X141665950Y-106339301D01*
X141650146Y-106331248D01*
X141581056Y-106296045D01*
X141545974Y-106258424D01*
X141543282Y-106207054D01*
X141562022Y-106175867D01*
X142356264Y-105381625D01*
X142359119Y-105378915D01*
X142371482Y-105367783D01*
X142389383Y-105351665D01*
X142399448Y-105329059D01*
X142405076Y-105318693D01*
X142407805Y-105314490D01*
X142418558Y-105297932D01*
X142420804Y-105299391D01*
X142437415Y-105277756D01*
X142442048Y-105275395D01*
X142533189Y-105184254D01*
X142544817Y-105161434D01*
X142577102Y-105098071D01*
X142591706Y-105069409D01*
X142611869Y-104942103D01*
X142591706Y-104814797D01*
X142533189Y-104699952D01*
X142442048Y-104608811D01*
X142430495Y-104602924D01*
X142388983Y-104581773D01*
X142327203Y-104550294D01*
X142199897Y-104530131D01*
X142072591Y-104550294D01*
X142010811Y-104581773D01*
X141969300Y-104602924D01*
X141957746Y-104608811D01*
X141866605Y-104699952D01*
X141808088Y-104814797D01*
X141787925Y-104942103D01*
X141808088Y-105069409D01*
X141822692Y-105098071D01*
X141854977Y-105161434D01*
X141861246Y-105212490D01*
X141841147Y-105248748D01*
X140784832Y-106305063D01*
X140781977Y-106307773D01*
X140751713Y-106335023D01*
X140741643Y-106357640D01*
X140736021Y-106367994D01*
X140722538Y-106388757D01*
X140721302Y-106396564D01*
X140721188Y-106397281D01*
X140715612Y-106416106D01*
X140712099Y-106423996D01*
X140712099Y-106448747D01*
X140711173Y-106460511D01*
X140707302Y-106484951D01*
X140709347Y-106492583D01*
X140709347Y-106492584D01*
X140709537Y-106493292D01*
X140712099Y-106512755D01*
X140712099Y-106864533D01*
X140711996Y-106868469D01*
X140709865Y-106909132D01*
X140718736Y-106932243D01*
X140722081Y-106943535D01*
X140727230Y-106967758D01*
X140731875Y-106974151D01*
X140731876Y-106974153D01*
X140732306Y-106974745D01*
X140741672Y-106991995D01*
X140744767Y-107000057D01*
X140762263Y-107017553D01*
X140769927Y-107026525D01*
X140784477Y-107046551D01*
X140791322Y-107050503D01*
X140791956Y-107050869D01*
X140807530Y-107062820D01*
X141480874Y-107736164D01*
X141502614Y-107782784D01*
X141502900Y-107789338D01*
X141502900Y-109630409D01*
X141485307Y-109678747D01*
X141480887Y-109683570D01*
X141458623Y-109705834D01*
X141412007Y-109727573D01*
X141362319Y-109714260D01*
X141352277Y-109705833D01*
X140993137Y-109346693D01*
X140971397Y-109300073D01*
X140972037Y-109281755D01*
X140976834Y-109251469D01*
X140978072Y-109243652D01*
X140974278Y-109219694D01*
X140958835Y-109122193D01*
X140957909Y-109116346D01*
X140907747Y-109017898D01*
X140902081Y-109006778D01*
X140902080Y-109006777D01*
X140899392Y-109001501D01*
X140808251Y-108910360D01*
X140778008Y-108894950D01*
X140698679Y-108854530D01*
X140698680Y-108854530D01*
X140693406Y-108851843D01*
X140566100Y-108831680D01*
X140438794Y-108851843D01*
X140433520Y-108854530D01*
X140433521Y-108854530D01*
X140354193Y-108894950D01*
X140323949Y-108910360D01*
X140232808Y-109001501D01*
X140230120Y-109006777D01*
X140230119Y-109006778D01*
X140224453Y-109017898D01*
X140174291Y-109116346D01*
X140173365Y-109122193D01*
X140157923Y-109219694D01*
X140154128Y-109243652D01*
X127500500Y-109243652D01*
X127500500Y-103858316D01*
X141110600Y-103858316D01*
X141111321Y-103865637D01*
X141117997Y-103899198D01*
X141123558Y-103912623D01*
X141149014Y-103950720D01*
X141159280Y-103960986D01*
X141197377Y-103986442D01*
X141210802Y-103992003D01*
X141244363Y-103998679D01*
X141251684Y-103999400D01*
X142023541Y-103999400D01*
X142033698Y-103995703D01*
X142036800Y-103990331D01*
X142036800Y-103986141D01*
X142189200Y-103986141D01*
X142192897Y-103996298D01*
X142198269Y-103999400D01*
X142974316Y-103999400D01*
X142981637Y-103998679D01*
X143015198Y-103992003D01*
X143028623Y-103986442D01*
X143066720Y-103960986D01*
X143076986Y-103950720D01*
X143102442Y-103912623D01*
X143108003Y-103899198D01*
X143114679Y-103865637D01*
X143115400Y-103858316D01*
X143115400Y-103086459D01*
X143111703Y-103076302D01*
X143106331Y-103073200D01*
X142202459Y-103073200D01*
X142192302Y-103076897D01*
X142189200Y-103082269D01*
X142189200Y-103986141D01*
X142036800Y-103986141D01*
X142036800Y-103086459D01*
X142033103Y-103076302D01*
X142027731Y-103073200D01*
X141123859Y-103073200D01*
X141113702Y-103076897D01*
X141110600Y-103082269D01*
X141110600Y-103858316D01*
X127500500Y-103858316D01*
X127500500Y-102175700D01*
X127518093Y-102127362D01*
X127562642Y-102101642D01*
X127575700Y-102100500D01*
X141035400Y-102100500D01*
X141083738Y-102118093D01*
X141109458Y-102162642D01*
X141110600Y-102175700D01*
X141110600Y-102907541D01*
X141114297Y-102917698D01*
X141119669Y-102920800D01*
X143102141Y-102920800D01*
X143112298Y-102917103D01*
X143115400Y-102911731D01*
X143115400Y-102175700D01*
X143132993Y-102127362D01*
X143177542Y-102101642D01*
X143190600Y-102100500D01*
X143953877Y-102100500D01*
X144002215Y-102118093D01*
X144027935Y-102162642D01*
X144019002Y-102213300D01*
X144000997Y-102234306D01*
X143950781Y-102274680D01*
X143950774Y-102274687D01*
X143947912Y-102276988D01*
X143821489Y-102427653D01*
X143726739Y-102600004D01*
X143667269Y-102787476D01*
X143645345Y-102982930D01*
X143645653Y-102986598D01*
X143645653Y-102986601D01*
X143648889Y-103025138D01*
X143661803Y-103178919D01*
X143716015Y-103367979D01*
X143805916Y-103542908D01*
X143808201Y-103545791D01*
X143830481Y-103573902D01*
X143846718Y-103622713D01*
X143827781Y-103670540D01*
X143783310Y-103694886D01*
X143770594Y-103696900D01*
X143655749Y-103755417D01*
X143564608Y-103846558D01*
X143561920Y-103851834D01*
X143561919Y-103851835D01*
X143537786Y-103899198D01*
X143506091Y-103961403D01*
X143485928Y-104088709D01*
X143486854Y-104094556D01*
X143490567Y-104118002D01*
X143506091Y-104216015D01*
X143508778Y-104221288D01*
X143546191Y-104294714D01*
X143564608Y-104330860D01*
X143655749Y-104422001D01*
X143770594Y-104480518D01*
X143897900Y-104500681D01*
X144025206Y-104480518D01*
X144140051Y-104422001D01*
X144231192Y-104330860D01*
X144232203Y-104331871D01*
X144269183Y-104306932D01*
X144287370Y-104304700D01*
X145091811Y-104304700D01*
X145095748Y-104304803D01*
X145136410Y-104306934D01*
X145159521Y-104298063D01*
X145170813Y-104294718D01*
X145195036Y-104289569D01*
X145201429Y-104284924D01*
X145201431Y-104284923D01*
X145202023Y-104284493D01*
X145219273Y-104275127D01*
X145219955Y-104274865D01*
X145219956Y-104274864D01*
X145227335Y-104272032D01*
X145244831Y-104254536D01*
X145253803Y-104246872D01*
X145267436Y-104236967D01*
X145273829Y-104232322D01*
X145278147Y-104224843D01*
X145290098Y-104209269D01*
X146140788Y-103358580D01*
X146187408Y-103336840D01*
X146237095Y-103350154D01*
X146260846Y-103377380D01*
X146297116Y-103447954D01*
X146345916Y-103542908D01*
X146468083Y-103697044D01*
X146470877Y-103699422D01*
X146470878Y-103699423D01*
X146505691Y-103729051D01*
X146617862Y-103824516D01*
X146621063Y-103826305D01*
X146621066Y-103826307D01*
X146659656Y-103847874D01*
X146789547Y-103920467D01*
X146793044Y-103921603D01*
X146793048Y-103921605D01*
X146861420Y-103943820D01*
X146976600Y-103981244D01*
X147066826Y-103992003D01*
X147168237Y-104004096D01*
X147168239Y-104004096D01*
X147171895Y-104004532D01*
X147367994Y-103989443D01*
X147506684Y-103950720D01*
X147553883Y-103937542D01*
X147553885Y-103937541D01*
X147557428Y-103936552D01*
X147681373Y-103873943D01*
X147729697Y-103849533D01*
X147729698Y-103849532D01*
X147732981Y-103847874D01*
X147887966Y-103726786D01*
X148016480Y-103577901D01*
X148113628Y-103406890D01*
X148175710Y-103220266D01*
X148200360Y-103025138D01*
X148200753Y-102997000D01*
X148200548Y-102994907D01*
X148181921Y-102804927D01*
X148181920Y-102804922D01*
X148181561Y-102801260D01*
X148124714Y-102612975D01*
X148117818Y-102600004D01*
X148104312Y-102574604D01*
X148097153Y-102523665D01*
X148124413Y-102480041D01*
X148170710Y-102464100D01*
X149809700Y-102464100D01*
X149858038Y-102481693D01*
X149883758Y-102526242D01*
X149884900Y-102539300D01*
X149884900Y-104905509D01*
X149867307Y-104953847D01*
X149862874Y-104958683D01*
X149780708Y-105040849D01*
X149778020Y-105046125D01*
X149778019Y-105046126D01*
X149772031Y-105057879D01*
X149722191Y-105155694D01*
X149702028Y-105283000D01*
X149702954Y-105288847D01*
X149710611Y-105337189D01*
X149722191Y-105410306D01*
X149780708Y-105525151D01*
X149871849Y-105616292D01*
X149877125Y-105618980D01*
X149877126Y-105618981D01*
X149905272Y-105633322D01*
X149986694Y-105674809D01*
X149992541Y-105675735D01*
X150094219Y-105691839D01*
X150114000Y-105694972D01*
X150133782Y-105691839D01*
X150235459Y-105675735D01*
X150241306Y-105674809D01*
X150322728Y-105633322D01*
X150350874Y-105618981D01*
X150350875Y-105618980D01*
X150356151Y-105616292D01*
X150447292Y-105525151D01*
X150505809Y-105410306D01*
X150517389Y-105337189D01*
X150525046Y-105288847D01*
X150525972Y-105283000D01*
X150505809Y-105155694D01*
X150455969Y-105057879D01*
X150449981Y-105046126D01*
X150449980Y-105046125D01*
X150447292Y-105040849D01*
X150365126Y-104958683D01*
X150343386Y-104912063D01*
X150343100Y-104905509D01*
X150343100Y-104729568D01*
X159147029Y-104729568D01*
X159186835Y-104895373D01*
X159265042Y-105046896D01*
X159268021Y-105050310D01*
X159268023Y-105050314D01*
X159348237Y-105142265D01*
X159377135Y-105175391D01*
X159516643Y-105273438D01*
X159675511Y-105335378D01*
X159680002Y-105335969D01*
X159680005Y-105335970D01*
X159803131Y-105352180D01*
X159803136Y-105352180D01*
X159805564Y-105352500D01*
X159894756Y-105352500D01*
X159982554Y-105341875D01*
X160016779Y-105337734D01*
X160016781Y-105337734D01*
X160021281Y-105337189D01*
X160025522Y-105335587D01*
X160025524Y-105335586D01*
X160176545Y-105278520D01*
X160176547Y-105278519D01*
X160180789Y-105276916D01*
X160184527Y-105274347D01*
X160317580Y-105182902D01*
X160317582Y-105182901D01*
X160321316Y-105180334D01*
X160338269Y-105161307D01*
X160415449Y-105074682D01*
X160434748Y-105053021D01*
X160496572Y-104936256D01*
X160512417Y-104906330D01*
X160514538Y-104902324D01*
X160556078Y-104736946D01*
X160556117Y-104729568D01*
X163547029Y-104729568D01*
X163586835Y-104895373D01*
X163665042Y-105046896D01*
X163668021Y-105050310D01*
X163668023Y-105050314D01*
X163748237Y-105142265D01*
X163777135Y-105175391D01*
X163916643Y-105273438D01*
X164075511Y-105335378D01*
X164080002Y-105335969D01*
X164080005Y-105335970D01*
X164203131Y-105352180D01*
X164203136Y-105352180D01*
X164205564Y-105352500D01*
X164294756Y-105352500D01*
X164382554Y-105341875D01*
X164416779Y-105337734D01*
X164416781Y-105337734D01*
X164421281Y-105337189D01*
X164425522Y-105335587D01*
X164425524Y-105335586D01*
X164576545Y-105278520D01*
X164576547Y-105278519D01*
X164580789Y-105276916D01*
X164584527Y-105274347D01*
X164717580Y-105182902D01*
X164717582Y-105182901D01*
X164721316Y-105180334D01*
X164738269Y-105161307D01*
X164815449Y-105074682D01*
X164834748Y-105053021D01*
X164896572Y-104936256D01*
X164912417Y-104906330D01*
X164914538Y-104902324D01*
X164956078Y-104736946D01*
X164956141Y-104725030D01*
X164956947Y-104570970D01*
X164956971Y-104566432D01*
X164917165Y-104400627D01*
X164838958Y-104249104D01*
X164835979Y-104245690D01*
X164835977Y-104245686D01*
X164729844Y-104124024D01*
X164726865Y-104120609D01*
X164587357Y-104022562D01*
X164428489Y-103960622D01*
X164423998Y-103960031D01*
X164423995Y-103960030D01*
X164300869Y-103943820D01*
X164300864Y-103943820D01*
X164298436Y-103943500D01*
X164209244Y-103943500D01*
X164121446Y-103954125D01*
X164087221Y-103958266D01*
X164087219Y-103958266D01*
X164082719Y-103958811D01*
X164078478Y-103960413D01*
X164078476Y-103960414D01*
X163927455Y-104017480D01*
X163927453Y-104017481D01*
X163923211Y-104019084D01*
X163919473Y-104021653D01*
X163918151Y-104022562D01*
X163782684Y-104115666D01*
X163669252Y-104242979D01*
X163589462Y-104393676D01*
X163581672Y-104424690D01*
X163560393Y-104509406D01*
X163547922Y-104559054D01*
X163547898Y-104563588D01*
X163547898Y-104563590D01*
X163547692Y-104602924D01*
X163547029Y-104729568D01*
X160556117Y-104729568D01*
X160556141Y-104725030D01*
X160556947Y-104570970D01*
X160556971Y-104566432D01*
X160517165Y-104400627D01*
X160438958Y-104249104D01*
X160435979Y-104245690D01*
X160435977Y-104245686D01*
X160329844Y-104124024D01*
X160326865Y-104120609D01*
X160187357Y-104022562D01*
X160028489Y-103960622D01*
X160023998Y-103960031D01*
X160023995Y-103960030D01*
X159900869Y-103943820D01*
X159900864Y-103943820D01*
X159898436Y-103943500D01*
X159809244Y-103943500D01*
X159721446Y-103954125D01*
X159687221Y-103958266D01*
X159687219Y-103958266D01*
X159682719Y-103958811D01*
X159678478Y-103960413D01*
X159678476Y-103960414D01*
X159527455Y-104017480D01*
X159527453Y-104017481D01*
X159523211Y-104019084D01*
X159519473Y-104021653D01*
X159518151Y-104022562D01*
X159382684Y-104115666D01*
X159269252Y-104242979D01*
X159189462Y-104393676D01*
X159181672Y-104424690D01*
X159160393Y-104509406D01*
X159147922Y-104559054D01*
X159147898Y-104563588D01*
X159147898Y-104563590D01*
X159147692Y-104602924D01*
X159147029Y-104729568D01*
X150343100Y-104729568D01*
X150343100Y-102539300D01*
X150360693Y-102490962D01*
X150405242Y-102465242D01*
X150418300Y-102464100D01*
X152300857Y-102464100D01*
X152349195Y-102481693D01*
X152375131Y-102527536D01*
X152382586Y-102574604D01*
X152389191Y-102616306D01*
X152447708Y-102731151D01*
X152538849Y-102822292D01*
X152653694Y-102880809D01*
X152781000Y-102900972D01*
X152908306Y-102880809D01*
X153023151Y-102822292D01*
X153114292Y-102731151D01*
X153172809Y-102616306D01*
X153192972Y-102489000D01*
X153172809Y-102361694D01*
X153114292Y-102246849D01*
X153096317Y-102228874D01*
X153074577Y-102182254D01*
X153087891Y-102132567D01*
X153130028Y-102103062D01*
X153149491Y-102100500D01*
X154891667Y-102100500D01*
X154904143Y-102101542D01*
X154917050Y-102103713D01*
X154927646Y-102105496D01*
X154930553Y-102105532D01*
X154930558Y-102105532D01*
X154933684Y-102105570D01*
X154940000Y-102105647D01*
X154943010Y-102105216D01*
X154945355Y-102104880D01*
X154956904Y-102103226D01*
X154961653Y-102102699D01*
X155046704Y-102096006D01*
X155135163Y-102089044D01*
X155135165Y-102089044D01*
X155138109Y-102088812D01*
X155152980Y-102085242D01*
X155328459Y-102043114D01*
X155328463Y-102043113D01*
X155331340Y-102042422D01*
X155334069Y-102041292D01*
X155334074Y-102041290D01*
X155512212Y-101967502D01*
X155512213Y-101967502D01*
X155514935Y-101966374D01*
X155684374Y-101862542D01*
X155835483Y-101733483D01*
X155964542Y-101582374D01*
X155977635Y-101561009D01*
X155999541Y-101525261D01*
X156068374Y-101412935D01*
X156128574Y-101267600D01*
X156143290Y-101232074D01*
X156143292Y-101232069D01*
X156144422Y-101229340D01*
X156147882Y-101214930D01*
X156190122Y-101038983D01*
X156190812Y-101036109D01*
X156203357Y-100876713D01*
X156204167Y-100870143D01*
X156207013Y-100853232D01*
X156207014Y-100853216D01*
X156207496Y-100850354D01*
X156207647Y-100838000D01*
X156206763Y-100831823D01*
X156203259Y-100807360D01*
X156202500Y-100796699D01*
X156202500Y-100778700D01*
X156220093Y-100730362D01*
X156264642Y-100704642D01*
X156277700Y-100703500D01*
X167826300Y-100703500D01*
X167874638Y-100721093D01*
G37*
G04 #@! TD.AperFunction*
G04 #@! TA.AperFunction,Conductor*
G36*
X146542215Y-102118093D02*
G01*
X146567935Y-102162642D01*
X146559002Y-102213300D01*
X146540997Y-102234306D01*
X146490781Y-102274680D01*
X146490774Y-102274687D01*
X146487912Y-102276988D01*
X146361489Y-102427653D01*
X146266739Y-102600004D01*
X146262624Y-102612975D01*
X146230577Y-102714000D01*
X146199191Y-102754756D01*
X146154963Y-102766359D01*
X146149624Y-102766079D01*
X146149622Y-102766079D01*
X146141732Y-102765666D01*
X146118621Y-102774537D01*
X146107329Y-102777882D01*
X146083106Y-102783031D01*
X146076713Y-102787676D01*
X146076711Y-102787677D01*
X146076119Y-102788107D01*
X146058869Y-102797473D01*
X146058187Y-102797735D01*
X146058186Y-102797736D01*
X146050807Y-102800568D01*
X146033311Y-102818064D01*
X146024339Y-102825728D01*
X146004313Y-102840278D01*
X146000363Y-102847120D01*
X146000362Y-102847121D01*
X145999996Y-102847756D01*
X145988045Y-102863329D01*
X145788964Y-103062410D01*
X145742344Y-103084150D01*
X145692657Y-103070836D01*
X145663152Y-103028699D01*
X145660597Y-103008187D01*
X145660724Y-102999100D01*
X145660724Y-102999094D01*
X145660753Y-102997000D01*
X145660548Y-102994907D01*
X145641921Y-102804927D01*
X145641920Y-102804922D01*
X145641561Y-102801260D01*
X145584714Y-102612975D01*
X145492379Y-102439318D01*
X145368072Y-102286903D01*
X145365235Y-102284556D01*
X145365229Y-102284550D01*
X145303692Y-102233642D01*
X145277661Y-102189275D01*
X145286240Y-102138555D01*
X145325414Y-102105216D01*
X145351626Y-102100500D01*
X146493877Y-102100500D01*
X146542215Y-102118093D01*
G37*
G04 #@! TD.AperFunction*
M02*
