G04 #@! TF.GenerationSoftware,KiCad,Pcbnew,(6.0.7)*
G04 #@! TF.CreationDate,2023-02-22T13:34:51-04:00*
G04 #@! TF.ProjectId,Twitch Switch,54776974-6368-4205-9377-697463682e6b,1.1*
G04 #@! TF.SameCoordinates,Original*
G04 #@! TF.FileFunction,Paste,Top*
G04 #@! TF.FilePolarity,Positive*
%FSLAX46Y46*%
G04 Gerber Fmt 4.6, Leading zero omitted, Abs format (unit mm)*
G04 Created by KiCad (PCBNEW (6.0.7)) date 2023-02-22 13:34:51*
%MOMM*%
%LPD*%
G01*
G04 APERTURE LIST*
G04 Aperture macros list*
%AMRoundRect*
0 Rectangle with rounded corners*
0 $1 Rounding radius*
0 $2 $3 $4 $5 $6 $7 $8 $9 X,Y pos of 4 corners*
0 Add a 4 corners polygon primitive as box body*
4,1,4,$2,$3,$4,$5,$6,$7,$8,$9,$2,$3,0*
0 Add four circle primitives for the rounded corners*
1,1,$1+$1,$2,$3*
1,1,$1+$1,$4,$5*
1,1,$1+$1,$6,$7*
1,1,$1+$1,$8,$9*
0 Add four rect primitives between the rounded corners*
20,1,$1+$1,$2,$3,$4,$5,0*
20,1,$1+$1,$4,$5,$6,$7,0*
20,1,$1+$1,$6,$7,$8,$9,0*
20,1,$1+$1,$8,$9,$2,$3,0*%
%AMOutline5P*
0 Free polygon, 5 corners , with rotation*
0 The origin of the aperture is its center*
0 number of corners: always 5*
0 $1 to $10 corner X, Y*
0 $11 Rotation angle, in degrees counterclockwise*
0 create outline with 5 corners*
4,1,5,$1,$2,$3,$4,$5,$6,$7,$8,$9,$10,$1,$2,$11*%
%AMOutline6P*
0 Free polygon, 6 corners , with rotation*
0 The origin of the aperture is its center*
0 number of corners: always 6*
0 $1 to $12 corner X, Y*
0 $13 Rotation angle, in degrees counterclockwise*
0 create outline with 6 corners*
4,1,6,$1,$2,$3,$4,$5,$6,$7,$8,$9,$10,$11,$12,$1,$2,$13*%
%AMOutline7P*
0 Free polygon, 7 corners , with rotation*
0 The origin of the aperture is its center*
0 number of corners: always 7*
0 $1 to $14 corner X, Y*
0 $15 Rotation angle, in degrees counterclockwise*
0 create outline with 7 corners*
4,1,7,$1,$2,$3,$4,$5,$6,$7,$8,$9,$10,$11,$12,$13,$14,$1,$2,$15*%
%AMOutline8P*
0 Free polygon, 8 corners , with rotation*
0 The origin of the aperture is its center*
0 number of corners: always 8*
0 $1 to $16 corner X, Y*
0 $17 Rotation angle, in degrees counterclockwise*
0 create outline with 8 corners*
4,1,8,$1,$2,$3,$4,$5,$6,$7,$8,$9,$10,$11,$12,$13,$14,$15,$16,$1,$2,$17*%
%AMFreePoly0*
4,1,14,0.334644,0.085355,0.385355,0.034644,0.400000,-0.000711,0.400000,-0.050000,0.385355,-0.085355,0.350000,-0.100000,-0.350000,-0.100000,-0.385355,-0.085355,-0.400000,-0.050000,-0.400000,0.050000,-0.385355,0.085355,-0.350000,0.100000,0.299289,0.100000,0.334644,0.085355,0.334644,0.085355,$1*%
%AMFreePoly1*
4,1,14,0.385355,0.085355,0.400000,0.050000,0.400000,0.000711,0.385355,-0.034644,0.334644,-0.085355,0.299289,-0.100000,-0.350000,-0.100000,-0.385355,-0.085355,-0.400000,-0.050000,-0.400000,0.050000,-0.385355,0.085355,-0.350000,0.100000,0.350000,0.100000,0.385355,0.085355,0.385355,0.085355,$1*%
%AMFreePoly2*
4,1,14,0.085355,0.385355,0.100000,0.350000,0.100000,-0.350000,0.085355,-0.385355,0.050000,-0.400000,-0.050000,-0.400000,-0.085355,-0.385355,-0.100000,-0.350000,-0.100000,0.299289,-0.085355,0.334644,-0.034644,0.385355,0.000711,0.400000,0.050000,0.400000,0.085355,0.385355,0.085355,0.385355,$1*%
%AMFreePoly3*
4,1,14,0.034644,0.385355,0.085355,0.334644,0.100000,0.299289,0.100000,-0.350000,0.085355,-0.385355,0.050000,-0.400000,-0.050000,-0.400000,-0.085355,-0.385355,-0.100000,-0.350000,-0.100000,0.350000,-0.085355,0.385355,-0.050000,0.400000,-0.000711,0.400000,0.034644,0.385355,0.034644,0.385355,$1*%
%AMFreePoly4*
4,1,14,0.385355,0.085355,0.400000,0.050000,0.400000,-0.050000,0.385355,-0.085355,0.350000,-0.100000,-0.299289,-0.100000,-0.334644,-0.085355,-0.385355,-0.034644,-0.400000,0.000711,-0.400000,0.050000,-0.385355,0.085355,-0.350000,0.100000,0.350000,0.100000,0.385355,0.085355,0.385355,0.085355,$1*%
%AMFreePoly5*
4,1,14,0.385355,0.085355,0.400000,0.050000,0.400000,-0.050000,0.385355,-0.085355,0.350000,-0.100000,-0.350000,-0.100000,-0.385355,-0.085355,-0.400000,-0.050000,-0.400000,-0.000711,-0.385355,0.034644,-0.334644,0.085355,-0.299289,0.100000,0.350000,0.100000,0.385355,0.085355,0.385355,0.085355,$1*%
%AMFreePoly6*
4,1,14,0.085355,0.385355,0.100000,0.350000,0.100000,-0.299289,0.085355,-0.334644,0.034644,-0.385355,-0.000711,-0.400000,-0.050000,-0.400000,-0.085355,-0.385355,-0.100000,-0.350000,-0.100000,0.350000,-0.085355,0.385355,-0.050000,0.400000,0.050000,0.400000,0.085355,0.385355,0.085355,0.385355,$1*%
%AMFreePoly7*
4,1,14,0.085355,0.385355,0.100000,0.350000,0.100000,-0.350000,0.085355,-0.385355,0.050000,-0.400000,0.000711,-0.400000,-0.034644,-0.385355,-0.085355,-0.334644,-0.100000,-0.299289,-0.100000,0.350000,-0.085355,0.385355,-0.050000,0.400000,0.050000,0.400000,0.085355,0.385355,0.085355,0.385355,$1*%
G04 Aperture macros list end*
%ADD10RoundRect,0.135000X-0.135000X-0.185000X0.135000X-0.185000X0.135000X0.185000X-0.135000X0.185000X0*%
%ADD11RoundRect,0.135000X0.185000X-0.135000X0.185000X0.135000X-0.185000X0.135000X-0.185000X-0.135000X0*%
%ADD12RoundRect,0.250000X0.250000X-1.000000X0.250000X1.000000X-0.250000X1.000000X-0.250000X-1.000000X0*%
%ADD13RoundRect,0.140000X0.140000X0.170000X-0.140000X0.170000X-0.140000X-0.170000X0.140000X-0.170000X0*%
%ADD14RoundRect,0.140000X0.170000X-0.140000X0.170000X0.140000X-0.170000X0.140000X-0.170000X-0.140000X0*%
%ADD15RoundRect,0.150000X-0.587500X-0.150000X0.587500X-0.150000X0.587500X0.150000X-0.587500X0.150000X0*%
%ADD16RoundRect,0.135000X0.135000X0.185000X-0.135000X0.185000X-0.135000X-0.185000X0.135000X-0.185000X0*%
%ADD17RoundRect,0.140000X-0.170000X0.140000X-0.170000X-0.140000X0.170000X-0.140000X0.170000X0.140000X0*%
%ADD18RoundRect,0.243750X0.243750X0.456250X-0.243750X0.456250X-0.243750X-0.456250X0.243750X-0.456250X0*%
%ADD19RoundRect,0.140000X-0.140000X-0.170000X0.140000X-0.170000X0.140000X0.170000X-0.140000X0.170000X0*%
%ADD20RoundRect,0.135000X-0.185000X0.135000X-0.185000X-0.135000X0.185000X-0.135000X0.185000X0.135000X0*%
%ADD21Outline5P,-0.237500X0.075000X-0.187500X0.125000X0.237500X0.125000X0.237500X-0.125000X-0.237500X-0.125000X270.000000*%
%ADD22RoundRect,0.062500X0.062500X-0.175000X0.062500X0.175000X-0.062500X0.175000X-0.062500X-0.175000X0*%
%ADD23RoundRect,0.062500X0.175000X0.062500X-0.175000X0.062500X-0.175000X-0.062500X0.175000X-0.062500X0*%
%ADD24RoundRect,0.125000X0.125000X1.025000X-0.125000X1.025000X-0.125000X-1.025000X0.125000X-1.025000X0*%
%ADD25RoundRect,0.500000X-0.750000X0.500000X-0.750000X-0.500000X0.750000X-0.500000X0.750000X0.500000X0*%
%ADD26RoundRect,0.172500X-0.172500X-0.172500X0.172500X-0.172500X0.172500X0.172500X-0.172500X0.172500X0*%
%ADD27FreePoly0,0.000000*%
%ADD28RoundRect,0.050000X-0.350000X-0.050000X0.350000X-0.050000X0.350000X0.050000X-0.350000X0.050000X0*%
%ADD29FreePoly1,0.000000*%
%ADD30FreePoly2,0.000000*%
%ADD31RoundRect,0.050000X-0.050000X-0.350000X0.050000X-0.350000X0.050000X0.350000X-0.050000X0.350000X0*%
%ADD32FreePoly3,0.000000*%
%ADD33FreePoly4,0.000000*%
%ADD34FreePoly5,0.000000*%
%ADD35FreePoly6,0.000000*%
%ADD36FreePoly7,0.000000*%
%ADD37RoundRect,0.050000X0.200000X0.050000X-0.200000X0.050000X-0.200000X-0.050000X0.200000X-0.050000X0*%
%ADD38RoundRect,0.225000X0.225000X0.725000X-0.225000X0.725000X-0.225000X-0.725000X0.225000X-0.725000X0*%
G04 APERTURE END LIST*
D10*
X147318000Y-110109000D03*
X148338000Y-110109000D03*
D11*
X149479000Y-105793000D03*
X149479000Y-104773000D03*
D12*
X155750000Y-111920000D03*
X159750000Y-111920000D03*
X157750000Y-111920000D03*
D13*
X165580000Y-111379000D03*
X164620000Y-111379000D03*
D14*
X161036000Y-111986000D03*
X161036000Y-111026000D03*
D15*
X152097500Y-109540000D03*
X152097500Y-111440000D03*
X153972500Y-110490000D03*
D16*
X148338000Y-109093000D03*
X147318000Y-109093000D03*
D17*
X155448000Y-108994000D03*
X155448000Y-109954000D03*
D18*
X153591500Y-107569000D03*
X151716500Y-107569000D03*
D19*
X141252000Y-109347000D03*
X142212000Y-109347000D03*
D16*
X160784000Y-109982000D03*
X159764000Y-109982000D03*
D20*
X149479000Y-102741000D03*
X149479000Y-103761000D03*
D10*
X144651000Y-111760000D03*
X145671000Y-111760000D03*
D16*
X167515000Y-110363000D03*
X166495000Y-110363000D03*
D10*
X166495000Y-111379000D03*
X167515000Y-111379000D03*
D21*
X150761000Y-105429500D03*
D22*
X151261000Y-105429500D03*
X151761000Y-105429500D03*
X152261000Y-105429500D03*
D23*
X152423500Y-104767000D03*
X152423500Y-104267000D03*
X152423500Y-103767000D03*
D22*
X152261000Y-103104500D03*
X151761000Y-103104500D03*
X151261000Y-103104500D03*
X150761000Y-103104500D03*
D23*
X150598500Y-103767000D03*
X150598500Y-104267000D03*
X150598500Y-104767000D03*
D17*
X150622000Y-110772000D03*
X150622000Y-111732000D03*
D19*
X141252000Y-108331000D03*
X142212000Y-108331000D03*
D17*
X153543000Y-104775000D03*
X153543000Y-105735000D03*
D24*
X163652000Y-107048000D03*
X162852000Y-107048000D03*
X162052000Y-107048000D03*
X161252000Y-107048000D03*
X160452000Y-107048000D03*
D25*
X166502000Y-107198000D03*
X166502000Y-101698000D03*
X157602000Y-101698000D03*
X157602000Y-107198000D03*
D26*
X144355000Y-108375000D03*
X145205000Y-107525000D03*
X144355000Y-107525000D03*
X145205000Y-108375000D03*
D27*
X143330000Y-107150000D03*
D28*
X143330000Y-107550000D03*
X143330000Y-107950000D03*
X143330000Y-108350000D03*
D29*
X143330000Y-108750000D03*
D30*
X143980000Y-109400000D03*
D31*
X144380000Y-109400000D03*
X144780000Y-109400000D03*
X145180000Y-109400000D03*
D32*
X145580000Y-109400000D03*
D33*
X146230000Y-108750000D03*
D28*
X146230000Y-108350000D03*
X146230000Y-107950000D03*
X146230000Y-107550000D03*
D34*
X146230000Y-107150000D03*
D35*
X145580000Y-106500000D03*
D31*
X145180000Y-106500000D03*
X144780000Y-106500000D03*
X144380000Y-106500000D03*
D36*
X143980000Y-106500000D03*
D14*
X153543000Y-103731000D03*
X153543000Y-102771000D03*
D37*
X163764000Y-111036000D03*
X163764000Y-110636000D03*
X163764000Y-110236000D03*
X163764000Y-109836000D03*
X163764000Y-109436000D03*
X161864000Y-109436000D03*
X161864000Y-109836000D03*
X161864000Y-110236000D03*
X161864000Y-110636000D03*
X161864000Y-111036000D03*
D38*
X162814000Y-110236000D03*
M02*
