G04 #@! TF.GenerationSoftware,KiCad,Pcbnew,(6.0.7)*
G04 #@! TF.CreationDate,2023-02-22T13:34:51-04:00*
G04 #@! TF.ProjectId,Twitch Switch,54776974-6368-4205-9377-697463682e6b,1.1*
G04 #@! TF.SameCoordinates,Original*
G04 #@! TF.FileFunction,Legend,Top*
G04 #@! TF.FilePolarity,Positive*
%FSLAX46Y46*%
G04 Gerber Fmt 4.6, Leading zero omitted, Abs format (unit mm)*
G04 Created by KiCad (PCBNEW (6.0.7)) date 2023-02-22 13:34:51*
%MOMM*%
%LPD*%
G01*
G04 APERTURE LIST*
G04 Aperture macros list*
%AMRoundRect*
0 Rectangle with rounded corners*
0 $1 Rounding radius*
0 $2 $3 $4 $5 $6 $7 $8 $9 X,Y pos of 4 corners*
0 Add a 4 corners polygon primitive as box body*
4,1,4,$2,$3,$4,$5,$6,$7,$8,$9,$2,$3,0*
0 Add four circle primitives for the rounded corners*
1,1,$1+$1,$2,$3*
1,1,$1+$1,$4,$5*
1,1,$1+$1,$6,$7*
1,1,$1+$1,$8,$9*
0 Add four rect primitives between the rounded corners*
20,1,$1+$1,$2,$3,$4,$5,0*
20,1,$1+$1,$4,$5,$6,$7,0*
20,1,$1+$1,$6,$7,$8,$9,0*
20,1,$1+$1,$8,$9,$2,$3,0*%
%AMOutline5P*
0 Free polygon, 5 corners , with rotation*
0 The origin of the aperture is its center*
0 number of corners: always 5*
0 $1 to $10 corner X, Y*
0 $11 Rotation angle, in degrees counterclockwise*
0 create outline with 5 corners*
4,1,5,$1,$2,$3,$4,$5,$6,$7,$8,$9,$10,$1,$2,$11*%
%AMOutline6P*
0 Free polygon, 6 corners , with rotation*
0 The origin of the aperture is its center*
0 number of corners: always 6*
0 $1 to $12 corner X, Y*
0 $13 Rotation angle, in degrees counterclockwise*
0 create outline with 6 corners*
4,1,6,$1,$2,$3,$4,$5,$6,$7,$8,$9,$10,$11,$12,$1,$2,$13*%
%AMOutline7P*
0 Free polygon, 7 corners , with rotation*
0 The origin of the aperture is its center*
0 number of corners: always 7*
0 $1 to $14 corner X, Y*
0 $15 Rotation angle, in degrees counterclockwise*
0 create outline with 7 corners*
4,1,7,$1,$2,$3,$4,$5,$6,$7,$8,$9,$10,$11,$12,$13,$14,$1,$2,$15*%
%AMOutline8P*
0 Free polygon, 8 corners , with rotation*
0 The origin of the aperture is its center*
0 number of corners: always 8*
0 $1 to $16 corner X, Y*
0 $17 Rotation angle, in degrees counterclockwise*
0 create outline with 8 corners*
4,1,8,$1,$2,$3,$4,$5,$6,$7,$8,$9,$10,$11,$12,$13,$14,$15,$16,$1,$2,$17*%
%AMFreePoly0*
4,1,22,0.500000,-0.750000,0.000000,-0.750000,0.000000,-0.745033,-0.079941,-0.743568,-0.215256,-0.701293,-0.333266,-0.622738,-0.424486,-0.514219,-0.481581,-0.384460,-0.499164,-0.250000,-0.500000,-0.250000,-0.500000,0.250000,-0.499164,0.250000,-0.499963,0.256109,-0.478152,0.396186,-0.417904,0.524511,-0.324060,0.630769,-0.204165,0.706417,-0.067858,0.745374,0.000000,0.744959,0.000000,0.750000,
0.500000,0.750000,0.500000,-0.750000,0.500000,-0.750000,$1*%
%AMFreePoly1*
4,1,20,0.000000,0.744959,0.073905,0.744508,0.209726,0.703889,0.328688,0.626782,0.421226,0.519385,0.479903,0.390333,0.500000,0.250000,0.500000,-0.250000,0.499851,-0.262216,0.476331,-0.402017,0.414519,-0.529596,0.319384,-0.634700,0.198574,-0.708877,0.061801,-0.746166,0.000000,-0.745033,0.000000,-0.750000,-0.500000,-0.750000,-0.500000,0.750000,0.000000,0.750000,0.000000,0.744959,
0.000000,0.744959,$1*%
%AMFreePoly2*
4,1,14,0.334644,0.085355,0.385355,0.034644,0.400000,-0.000711,0.400000,-0.050000,0.385355,-0.085355,0.350000,-0.100000,-0.350000,-0.100000,-0.385355,-0.085355,-0.400000,-0.050000,-0.400000,0.050000,-0.385355,0.085355,-0.350000,0.100000,0.299289,0.100000,0.334644,0.085355,0.334644,0.085355,$1*%
%AMFreePoly3*
4,1,14,0.385355,0.085355,0.400000,0.050000,0.400000,0.000711,0.385355,-0.034644,0.334644,-0.085355,0.299289,-0.100000,-0.350000,-0.100000,-0.385355,-0.085355,-0.400000,-0.050000,-0.400000,0.050000,-0.385355,0.085355,-0.350000,0.100000,0.350000,0.100000,0.385355,0.085355,0.385355,0.085355,$1*%
%AMFreePoly4*
4,1,14,0.085355,0.385355,0.100000,0.350000,0.100000,-0.350000,0.085355,-0.385355,0.050000,-0.400000,-0.050000,-0.400000,-0.085355,-0.385355,-0.100000,-0.350000,-0.100000,0.299289,-0.085355,0.334644,-0.034644,0.385355,0.000711,0.400000,0.050000,0.400000,0.085355,0.385355,0.085355,0.385355,$1*%
%AMFreePoly5*
4,1,14,0.034644,0.385355,0.085355,0.334644,0.100000,0.299289,0.100000,-0.350000,0.085355,-0.385355,0.050000,-0.400000,-0.050000,-0.400000,-0.085355,-0.385355,-0.100000,-0.350000,-0.100000,0.350000,-0.085355,0.385355,-0.050000,0.400000,-0.000711,0.400000,0.034644,0.385355,0.034644,0.385355,$1*%
%AMFreePoly6*
4,1,14,0.385355,0.085355,0.400000,0.050000,0.400000,-0.050000,0.385355,-0.085355,0.350000,-0.100000,-0.299289,-0.100000,-0.334644,-0.085355,-0.385355,-0.034644,-0.400000,0.000711,-0.400000,0.050000,-0.385355,0.085355,-0.350000,0.100000,0.350000,0.100000,0.385355,0.085355,0.385355,0.085355,$1*%
%AMFreePoly7*
4,1,14,0.385355,0.085355,0.400000,0.050000,0.400000,-0.050000,0.385355,-0.085355,0.350000,-0.100000,-0.350000,-0.100000,-0.385355,-0.085355,-0.400000,-0.050000,-0.400000,-0.000711,-0.385355,0.034644,-0.334644,0.085355,-0.299289,0.100000,0.350000,0.100000,0.385355,0.085355,0.385355,0.085355,$1*%
%AMFreePoly8*
4,1,14,0.085355,0.385355,0.100000,0.350000,0.100000,-0.299289,0.085355,-0.334644,0.034644,-0.385355,-0.000711,-0.400000,-0.050000,-0.400000,-0.085355,-0.385355,-0.100000,-0.350000,-0.100000,0.350000,-0.085355,0.385355,-0.050000,0.400000,0.050000,0.400000,0.085355,0.385355,0.085355,0.385355,$1*%
%AMFreePoly9*
4,1,14,0.085355,0.385355,0.100000,0.350000,0.100000,-0.350000,0.085355,-0.385355,0.050000,-0.400000,0.000711,-0.400000,-0.034644,-0.385355,-0.085355,-0.334644,-0.100000,-0.299289,-0.100000,0.350000,-0.085355,0.385355,-0.050000,0.400000,0.050000,0.400000,0.085355,0.385355,0.085355,0.385355,$1*%
G04 Aperture macros list end*
%ADD10C,0.150000*%
%ADD11C,0.120000*%
%ADD12C,0.254000*%
%ADD13RoundRect,0.135000X-0.135000X-0.185000X0.135000X-0.185000X0.135000X0.185000X-0.135000X0.185000X0*%
%ADD14RoundRect,0.135000X0.185000X-0.135000X0.185000X0.135000X-0.185000X0.135000X-0.185000X-0.135000X0*%
%ADD15RoundRect,0.250000X0.250000X-1.000000X0.250000X1.000000X-0.250000X1.000000X-0.250000X-1.000000X0*%
%ADD16RoundRect,0.140000X0.140000X0.170000X-0.140000X0.170000X-0.140000X-0.170000X0.140000X-0.170000X0*%
%ADD17RoundRect,0.225000X0.775000X-0.225000X0.775000X0.225000X-0.775000X0.225000X-0.775000X-0.225000X0*%
%ADD18R,1.000000X1.000000*%
%ADD19RoundRect,0.140000X0.170000X-0.140000X0.170000X0.140000X-0.170000X0.140000X-0.170000X-0.140000X0*%
%ADD20FreePoly0,90.000000*%
%ADD21FreePoly1,90.000000*%
%ADD22C,1.000000*%
%ADD23RoundRect,0.150000X-0.587500X-0.150000X0.587500X-0.150000X0.587500X0.150000X-0.587500X0.150000X0*%
%ADD24RoundRect,0.135000X0.135000X0.185000X-0.135000X0.185000X-0.135000X-0.185000X0.135000X-0.185000X0*%
%ADD25RoundRect,0.140000X-0.170000X0.140000X-0.170000X-0.140000X0.170000X-0.140000X0.170000X0.140000X0*%
%ADD26RoundRect,0.243750X0.243750X0.456250X-0.243750X0.456250X-0.243750X-0.456250X0.243750X-0.456250X0*%
%ADD27RoundRect,0.140000X-0.140000X-0.170000X0.140000X-0.170000X0.140000X0.170000X-0.140000X0.170000X0*%
%ADD28RoundRect,0.135000X-0.185000X0.135000X-0.185000X-0.135000X0.185000X-0.135000X0.185000X0.135000X0*%
%ADD29R,1.700000X1.700000*%
%ADD30O,1.700000X1.700000*%
%ADD31Outline5P,-0.237500X0.075000X-0.187500X0.125000X0.237500X0.125000X0.237500X-0.125000X-0.237500X-0.125000X270.000000*%
%ADD32RoundRect,0.062500X0.062500X-0.175000X0.062500X0.175000X-0.062500X0.175000X-0.062500X-0.175000X0*%
%ADD33RoundRect,0.062500X0.175000X0.062500X-0.175000X0.062500X-0.175000X-0.062500X0.175000X-0.062500X0*%
%ADD34C,0.900000*%
%ADD35RoundRect,0.125000X0.125000X1.025000X-0.125000X1.025000X-0.125000X-1.025000X0.125000X-1.025000X0*%
%ADD36RoundRect,0.500000X-0.750000X0.500000X-0.750000X-0.500000X0.750000X-0.500000X0.750000X0.500000X0*%
%ADD37FreePoly2,0.000000*%
%ADD38RoundRect,0.050000X-0.350000X-0.050000X0.350000X-0.050000X0.350000X0.050000X-0.350000X0.050000X0*%
%ADD39FreePoly3,0.000000*%
%ADD40FreePoly4,0.000000*%
%ADD41RoundRect,0.050000X-0.050000X-0.350000X0.050000X-0.350000X0.050000X0.350000X-0.050000X0.350000X0*%
%ADD42FreePoly5,0.000000*%
%ADD43FreePoly6,0.000000*%
%ADD44FreePoly7,0.000000*%
%ADD45FreePoly8,0.000000*%
%ADD46FreePoly9,0.000000*%
%ADD47RoundRect,0.050000X0.200000X0.050000X-0.200000X0.050000X-0.200000X-0.050000X0.200000X-0.050000X0*%
%ADD48RoundRect,0.225000X0.225000X0.725000X-0.225000X0.725000X-0.225000X-0.725000X0.225000X-0.725000X0*%
%ADD49RoundRect,0.250000X-0.350000X-0.625000X0.350000X-0.625000X0.350000X0.625000X-0.350000X0.625000X0*%
%ADD50O,1.200000X1.750000*%
G04 APERTURE END LIST*
D10*
X146804142Y-111704380D02*
X146470809Y-111228190D01*
X146232714Y-111704380D02*
X146232714Y-110704380D01*
X146613666Y-110704380D01*
X146708904Y-110752000D01*
X146756523Y-110799619D01*
X146804142Y-110894857D01*
X146804142Y-111037714D01*
X146756523Y-111132952D01*
X146708904Y-111180571D01*
X146613666Y-111228190D01*
X146232714Y-111228190D01*
X147756523Y-111704380D02*
X147185095Y-111704380D01*
X147470809Y-111704380D02*
X147470809Y-110704380D01*
X147375571Y-110847238D01*
X147280333Y-110942476D01*
X147185095Y-110990095D01*
X148375571Y-110704380D02*
X148470809Y-110704380D01*
X148566047Y-110752000D01*
X148613666Y-110799619D01*
X148661285Y-110894857D01*
X148708904Y-111085333D01*
X148708904Y-111323428D01*
X148661285Y-111513904D01*
X148613666Y-111609142D01*
X148566047Y-111656761D01*
X148470809Y-111704380D01*
X148375571Y-111704380D01*
X148280333Y-111656761D01*
X148232714Y-111609142D01*
X148185095Y-111513904D01*
X148137476Y-111323428D01*
X148137476Y-111085333D01*
X148185095Y-110894857D01*
X148232714Y-110799619D01*
X148280333Y-110752000D01*
X148375571Y-110704380D01*
X147915333Y-107005380D02*
X147582000Y-106529190D01*
X147343904Y-107005380D02*
X147343904Y-106005380D01*
X147724857Y-106005380D01*
X147820095Y-106053000D01*
X147867714Y-106100619D01*
X147915333Y-106195857D01*
X147915333Y-106338714D01*
X147867714Y-106433952D01*
X147820095Y-106481571D01*
X147724857Y-106529190D01*
X147343904Y-106529190D01*
X148248666Y-106005380D02*
X148867714Y-106005380D01*
X148534380Y-106386333D01*
X148677238Y-106386333D01*
X148772476Y-106433952D01*
X148820095Y-106481571D01*
X148867714Y-106576809D01*
X148867714Y-106814904D01*
X148820095Y-106910142D01*
X148772476Y-106957761D01*
X148677238Y-107005380D01*
X148391523Y-107005380D01*
X148296285Y-106957761D01*
X148248666Y-106910142D01*
X156527666Y-110259761D02*
X156670523Y-110307380D01*
X156908619Y-110307380D01*
X157003857Y-110259761D01*
X157051476Y-110212142D01*
X157099095Y-110116904D01*
X157099095Y-110021666D01*
X157051476Y-109926428D01*
X157003857Y-109878809D01*
X156908619Y-109831190D01*
X156718142Y-109783571D01*
X156622904Y-109735952D01*
X156575285Y-109688333D01*
X156527666Y-109593095D01*
X156527666Y-109497857D01*
X156575285Y-109402619D01*
X156622904Y-109355000D01*
X156718142Y-109307380D01*
X156956238Y-109307380D01*
X157099095Y-109355000D01*
X157432428Y-109307380D02*
X157670523Y-110307380D01*
X157861000Y-109593095D01*
X158051476Y-110307380D01*
X158289571Y-109307380D01*
X159194333Y-110307380D02*
X158622904Y-110307380D01*
X158908619Y-110307380D02*
X158908619Y-109307380D01*
X158813380Y-109450238D01*
X158718142Y-109545476D01*
X158622904Y-109593095D01*
X164933333Y-112879142D02*
X164885714Y-112926761D01*
X164742857Y-112974380D01*
X164647619Y-112974380D01*
X164504761Y-112926761D01*
X164409523Y-112831523D01*
X164361904Y-112736285D01*
X164314285Y-112545809D01*
X164314285Y-112402952D01*
X164361904Y-112212476D01*
X164409523Y-112117238D01*
X164504761Y-112022000D01*
X164647619Y-111974380D01*
X164742857Y-111974380D01*
X164885714Y-112022000D01*
X164933333Y-112069619D01*
X165266666Y-111974380D02*
X165933333Y-111974380D01*
X165504761Y-112974380D01*
X127722380Y-109823095D02*
X128722380Y-109156428D01*
X127722380Y-109156428D02*
X128722380Y-109823095D01*
X128436666Y-108823095D02*
X128436666Y-108346904D01*
X128722380Y-108918333D02*
X127722380Y-108585000D01*
X128722380Y-108251666D01*
X128722380Y-107394523D02*
X128722380Y-107965952D01*
X128722380Y-107680238D02*
X127722380Y-107680238D01*
X127865238Y-107775476D01*
X127960476Y-107870714D01*
X128008095Y-107965952D01*
X162266333Y-112244142D02*
X162218714Y-112291761D01*
X162075857Y-112339380D01*
X161980619Y-112339380D01*
X161837761Y-112291761D01*
X161742523Y-112196523D01*
X161694904Y-112101285D01*
X161647285Y-111910809D01*
X161647285Y-111767952D01*
X161694904Y-111577476D01*
X161742523Y-111482238D01*
X161837761Y-111387000D01*
X161980619Y-111339380D01*
X162075857Y-111339380D01*
X162218714Y-111387000D01*
X162266333Y-111434619D01*
X162837761Y-111767952D02*
X162742523Y-111720333D01*
X162694904Y-111672714D01*
X162647285Y-111577476D01*
X162647285Y-111529857D01*
X162694904Y-111434619D01*
X162742523Y-111387000D01*
X162837761Y-111339380D01*
X163028238Y-111339380D01*
X163123476Y-111387000D01*
X163171095Y-111434619D01*
X163218714Y-111529857D01*
X163218714Y-111577476D01*
X163171095Y-111672714D01*
X163123476Y-111720333D01*
X163028238Y-111767952D01*
X162837761Y-111767952D01*
X162742523Y-111815571D01*
X162694904Y-111863190D01*
X162647285Y-111958428D01*
X162647285Y-112148904D01*
X162694904Y-112244142D01*
X162742523Y-112291761D01*
X162837761Y-112339380D01*
X163028238Y-112339380D01*
X163123476Y-112291761D01*
X163171095Y-112244142D01*
X163218714Y-112148904D01*
X163218714Y-111958428D01*
X163171095Y-111863190D01*
X163123476Y-111815571D01*
X163028238Y-111767952D01*
X142533666Y-114633285D02*
X142533666Y-114157095D01*
X142819380Y-114728523D02*
X141819380Y-114395190D01*
X142819380Y-114061857D01*
X141819380Y-113538047D02*
X141819380Y-113442809D01*
X141867000Y-113347571D01*
X141914619Y-113299952D01*
X142009857Y-113252333D01*
X142200333Y-113204714D01*
X142438428Y-113204714D01*
X142628904Y-113252333D01*
X142724142Y-113299952D01*
X142771761Y-113347571D01*
X142819380Y-113442809D01*
X142819380Y-113538047D01*
X142771761Y-113633285D01*
X142724142Y-113680904D01*
X142628904Y-113728523D01*
X142438428Y-113776142D01*
X142200333Y-113776142D01*
X142009857Y-113728523D01*
X141914619Y-113680904D01*
X141867000Y-113633285D01*
X141819380Y-113538047D01*
X149645666Y-114633285D02*
X149645666Y-114157095D01*
X149931380Y-114728523D02*
X148931380Y-114395190D01*
X149931380Y-114061857D01*
X149026619Y-113776142D02*
X148979000Y-113728523D01*
X148931380Y-113633285D01*
X148931380Y-113395190D01*
X148979000Y-113299952D01*
X149026619Y-113252333D01*
X149121857Y-113204714D01*
X149217095Y-113204714D01*
X149359952Y-113252333D01*
X149931380Y-113823761D01*
X149931380Y-113204714D01*
X149352095Y-109053380D02*
X149352095Y-109862904D01*
X149399714Y-109958142D01*
X149447333Y-110005761D01*
X149542571Y-110053380D01*
X149733047Y-110053380D01*
X149828285Y-110005761D01*
X149875904Y-109958142D01*
X149923523Y-109862904D01*
X149923523Y-109053380D01*
X150352095Y-109148619D02*
X150399714Y-109101000D01*
X150494952Y-109053380D01*
X150733047Y-109053380D01*
X150828285Y-109101000D01*
X150875904Y-109148619D01*
X150923523Y-109243857D01*
X150923523Y-109339095D01*
X150875904Y-109481952D01*
X150304476Y-110053380D01*
X150923523Y-110053380D01*
X147661333Y-108529380D02*
X147328000Y-108053190D01*
X147089904Y-108529380D02*
X147089904Y-107529380D01*
X147470857Y-107529380D01*
X147566095Y-107577000D01*
X147613714Y-107624619D01*
X147661333Y-107719857D01*
X147661333Y-107862714D01*
X147613714Y-107957952D01*
X147566095Y-108005571D01*
X147470857Y-108053190D01*
X147089904Y-108053190D01*
X148137523Y-108529380D02*
X148328000Y-108529380D01*
X148423238Y-108481761D01*
X148470857Y-108434142D01*
X148566095Y-108291285D01*
X148613714Y-108100809D01*
X148613714Y-107719857D01*
X148566095Y-107624619D01*
X148518476Y-107577000D01*
X148423238Y-107529380D01*
X148232761Y-107529380D01*
X148137523Y-107577000D01*
X148089904Y-107624619D01*
X148042285Y-107719857D01*
X148042285Y-107957952D01*
X148089904Y-108053190D01*
X148137523Y-108100809D01*
X148232761Y-108148428D01*
X148423238Y-108148428D01*
X148518476Y-108100809D01*
X148566095Y-108053190D01*
X148613714Y-107957952D01*
X155154333Y-108307142D02*
X155106714Y-108354761D01*
X154963857Y-108402380D01*
X154868619Y-108402380D01*
X154725761Y-108354761D01*
X154630523Y-108259523D01*
X154582904Y-108164285D01*
X154535285Y-107973809D01*
X154535285Y-107830952D01*
X154582904Y-107640476D01*
X154630523Y-107545238D01*
X154725761Y-107450000D01*
X154868619Y-107402380D01*
X154963857Y-107402380D01*
X155106714Y-107450000D01*
X155154333Y-107497619D01*
X155487666Y-107402380D02*
X156106714Y-107402380D01*
X155773380Y-107783333D01*
X155916238Y-107783333D01*
X156011476Y-107830952D01*
X156059095Y-107878571D01*
X156106714Y-107973809D01*
X156106714Y-108211904D01*
X156059095Y-108307142D01*
X156011476Y-108354761D01*
X155916238Y-108402380D01*
X155630523Y-108402380D01*
X155535285Y-108354761D01*
X155487666Y-108307142D01*
X149375904Y-108656380D02*
X149375904Y-107656380D01*
X149614000Y-107656380D01*
X149756857Y-107704000D01*
X149852095Y-107799238D01*
X149899714Y-107894476D01*
X149947333Y-108084952D01*
X149947333Y-108227809D01*
X149899714Y-108418285D01*
X149852095Y-108513523D01*
X149756857Y-108608761D01*
X149614000Y-108656380D01*
X149375904Y-108656380D01*
X150899714Y-108656380D02*
X150328285Y-108656380D01*
X150614000Y-108656380D02*
X150614000Y-107656380D01*
X150518761Y-107799238D01*
X150423523Y-107894476D01*
X150328285Y-107942095D01*
X141565333Y-110847142D02*
X141517714Y-110894761D01*
X141374857Y-110942380D01*
X141279619Y-110942380D01*
X141136761Y-110894761D01*
X141041523Y-110799523D01*
X140993904Y-110704285D01*
X140946285Y-110513809D01*
X140946285Y-110370952D01*
X140993904Y-110180476D01*
X141041523Y-110085238D01*
X141136761Y-109990000D01*
X141279619Y-109942380D01*
X141374857Y-109942380D01*
X141517714Y-109990000D01*
X141565333Y-110037619D01*
X141946285Y-110037619D02*
X141993904Y-109990000D01*
X142089142Y-109942380D01*
X142327238Y-109942380D01*
X142422476Y-109990000D01*
X142470095Y-110037619D01*
X142517714Y-110132857D01*
X142517714Y-110228095D01*
X142470095Y-110370952D01*
X141898666Y-110942380D01*
X142517714Y-110942380D01*
X160107333Y-109418380D02*
X159774000Y-108942190D01*
X159535904Y-109418380D02*
X159535904Y-108418380D01*
X159916857Y-108418380D01*
X160012095Y-108466000D01*
X160059714Y-108513619D01*
X160107333Y-108608857D01*
X160107333Y-108751714D01*
X160059714Y-108846952D01*
X160012095Y-108894571D01*
X159916857Y-108942190D01*
X159535904Y-108942190D01*
X160678761Y-108846952D02*
X160583523Y-108799333D01*
X160535904Y-108751714D01*
X160488285Y-108656476D01*
X160488285Y-108608857D01*
X160535904Y-108513619D01*
X160583523Y-108466000D01*
X160678761Y-108418380D01*
X160869238Y-108418380D01*
X160964476Y-108466000D01*
X161012095Y-108513619D01*
X161059714Y-108608857D01*
X161059714Y-108656476D01*
X161012095Y-108751714D01*
X160964476Y-108799333D01*
X160869238Y-108846952D01*
X160678761Y-108846952D01*
X160583523Y-108894571D01*
X160535904Y-108942190D01*
X160488285Y-109037428D01*
X160488285Y-109227904D01*
X160535904Y-109323142D01*
X160583523Y-109370761D01*
X160678761Y-109418380D01*
X160869238Y-109418380D01*
X160964476Y-109370761D01*
X161012095Y-109323142D01*
X161059714Y-109227904D01*
X161059714Y-109037428D01*
X161012095Y-108942190D01*
X160964476Y-108894571D01*
X160869238Y-108846952D01*
X147915333Y-105608380D02*
X147582000Y-105132190D01*
X147343904Y-105608380D02*
X147343904Y-104608380D01*
X147724857Y-104608380D01*
X147820095Y-104656000D01*
X147867714Y-104703619D01*
X147915333Y-104798857D01*
X147915333Y-104941714D01*
X147867714Y-105036952D01*
X147820095Y-105084571D01*
X147724857Y-105132190D01*
X147343904Y-105132190D01*
X148296285Y-104703619D02*
X148343904Y-104656000D01*
X148439142Y-104608380D01*
X148677238Y-104608380D01*
X148772476Y-104656000D01*
X148820095Y-104703619D01*
X148867714Y-104798857D01*
X148867714Y-104894095D01*
X148820095Y-105036952D01*
X148248666Y-105608380D01*
X148867714Y-105608380D01*
X143216333Y-112212380D02*
X142883000Y-111736190D01*
X142644904Y-112212380D02*
X142644904Y-111212380D01*
X143025857Y-111212380D01*
X143121095Y-111260000D01*
X143168714Y-111307619D01*
X143216333Y-111402857D01*
X143216333Y-111545714D01*
X143168714Y-111640952D01*
X143121095Y-111688571D01*
X143025857Y-111736190D01*
X142644904Y-111736190D01*
X144168714Y-112212380D02*
X143597285Y-112212380D01*
X143883000Y-112212380D02*
X143883000Y-111212380D01*
X143787761Y-111355238D01*
X143692523Y-111450476D01*
X143597285Y-111498095D01*
X166838333Y-109672380D02*
X166505000Y-109196190D01*
X166266904Y-109672380D02*
X166266904Y-108672380D01*
X166647857Y-108672380D01*
X166743095Y-108720000D01*
X166790714Y-108767619D01*
X166838333Y-108862857D01*
X166838333Y-109005714D01*
X166790714Y-109100952D01*
X166743095Y-109148571D01*
X166647857Y-109196190D01*
X166266904Y-109196190D01*
X167171666Y-108672380D02*
X167838333Y-108672380D01*
X167409761Y-109672380D01*
X166838333Y-112974380D02*
X166505000Y-112498190D01*
X166266904Y-112974380D02*
X166266904Y-111974380D01*
X166647857Y-111974380D01*
X166743095Y-112022000D01*
X166790714Y-112069619D01*
X166838333Y-112164857D01*
X166838333Y-112307714D01*
X166790714Y-112402952D01*
X166743095Y-112450571D01*
X166647857Y-112498190D01*
X166266904Y-112498190D01*
X167695476Y-111974380D02*
X167505000Y-111974380D01*
X167409761Y-112022000D01*
X167362142Y-112069619D01*
X167266904Y-112212476D01*
X167219285Y-112402952D01*
X167219285Y-112783904D01*
X167266904Y-112879142D01*
X167314523Y-112926761D01*
X167409761Y-112974380D01*
X167600238Y-112974380D01*
X167695476Y-112926761D01*
X167743095Y-112879142D01*
X167790714Y-112783904D01*
X167790714Y-112545809D01*
X167743095Y-112450571D01*
X167695476Y-112402952D01*
X167600238Y-112355333D01*
X167409761Y-112355333D01*
X167314523Y-112402952D01*
X167266904Y-112450571D01*
X167219285Y-112545809D01*
X149225095Y-106386380D02*
X149225095Y-107195904D01*
X149272714Y-107291142D01*
X149320333Y-107338761D01*
X149415571Y-107386380D01*
X149606047Y-107386380D01*
X149701285Y-107338761D01*
X149748904Y-107291142D01*
X149796523Y-107195904D01*
X149796523Y-106386380D01*
X150177476Y-106386380D02*
X150796523Y-106386380D01*
X150463190Y-106767333D01*
X150606047Y-106767333D01*
X150701285Y-106814952D01*
X150748904Y-106862571D01*
X150796523Y-106957809D01*
X150796523Y-107195904D01*
X150748904Y-107291142D01*
X150701285Y-107338761D01*
X150606047Y-107386380D01*
X150320333Y-107386380D01*
X150225095Y-107338761D01*
X150177476Y-107291142D01*
X149963142Y-111418666D02*
X150010761Y-111466285D01*
X150058380Y-111609142D01*
X150058380Y-111704380D01*
X150010761Y-111847238D01*
X149915523Y-111942476D01*
X149820285Y-111990095D01*
X149629809Y-112037714D01*
X149486952Y-112037714D01*
X149296476Y-111990095D01*
X149201238Y-111942476D01*
X149106000Y-111847238D01*
X149058380Y-111704380D01*
X149058380Y-111609142D01*
X149106000Y-111466285D01*
X149153619Y-111418666D01*
X149391714Y-110561523D02*
X150058380Y-110561523D01*
X149010761Y-110799619D02*
X149725047Y-111037714D01*
X149725047Y-110418666D01*
X141565333Y-107672142D02*
X141517714Y-107719761D01*
X141374857Y-107767380D01*
X141279619Y-107767380D01*
X141136761Y-107719761D01*
X141041523Y-107624523D01*
X140993904Y-107529285D01*
X140946285Y-107338809D01*
X140946285Y-107195952D01*
X140993904Y-107005476D01*
X141041523Y-106910238D01*
X141136761Y-106815000D01*
X141279619Y-106767380D01*
X141374857Y-106767380D01*
X141517714Y-106815000D01*
X141565333Y-106862619D01*
X142517714Y-107767380D02*
X141946285Y-107767380D01*
X142232000Y-107767380D02*
X142232000Y-106767380D01*
X142136761Y-106910238D01*
X142041523Y-107005476D01*
X141946285Y-107053095D01*
X155043142Y-105449666D02*
X155090761Y-105497285D01*
X155138380Y-105640142D01*
X155138380Y-105735380D01*
X155090761Y-105878238D01*
X154995523Y-105973476D01*
X154900285Y-106021095D01*
X154709809Y-106068714D01*
X154566952Y-106068714D01*
X154376476Y-106021095D01*
X154281238Y-105973476D01*
X154186000Y-105878238D01*
X154138380Y-105735380D01*
X154138380Y-105640142D01*
X154186000Y-105497285D01*
X154233619Y-105449666D01*
X154138380Y-104592523D02*
X154138380Y-104783000D01*
X154186000Y-104878238D01*
X154233619Y-104925857D01*
X154376476Y-105021095D01*
X154566952Y-105068714D01*
X154947904Y-105068714D01*
X155043142Y-105021095D01*
X155090761Y-104973476D01*
X155138380Y-104878238D01*
X155138380Y-104687761D01*
X155090761Y-104592523D01*
X155043142Y-104544904D01*
X154947904Y-104497285D01*
X154709809Y-104497285D01*
X154614571Y-104544904D01*
X154566952Y-104592523D01*
X154519333Y-104687761D01*
X154519333Y-104878238D01*
X154566952Y-104973476D01*
X154614571Y-105021095D01*
X154709809Y-105068714D01*
X156892666Y-104100380D02*
X156892666Y-104814666D01*
X156845047Y-104957523D01*
X156749809Y-105052761D01*
X156606952Y-105100380D01*
X156511714Y-105100380D01*
X157892666Y-105100380D02*
X157321238Y-105100380D01*
X157606952Y-105100380D02*
X157606952Y-104100380D01*
X157511714Y-104243238D01*
X157416476Y-104338476D01*
X157321238Y-104386095D01*
X144018095Y-104735380D02*
X144018095Y-105544904D01*
X144065714Y-105640142D01*
X144113333Y-105687761D01*
X144208571Y-105735380D01*
X144399047Y-105735380D01*
X144494285Y-105687761D01*
X144541904Y-105640142D01*
X144589523Y-105544904D01*
X144589523Y-104735380D01*
X145589523Y-105735380D02*
X145018095Y-105735380D01*
X145303809Y-105735380D02*
X145303809Y-104735380D01*
X145208571Y-104878238D01*
X145113333Y-104973476D01*
X145018095Y-105021095D01*
X155043142Y-103417666D02*
X155090761Y-103465285D01*
X155138380Y-103608142D01*
X155138380Y-103703380D01*
X155090761Y-103846238D01*
X154995523Y-103941476D01*
X154900285Y-103989095D01*
X154709809Y-104036714D01*
X154566952Y-104036714D01*
X154376476Y-103989095D01*
X154281238Y-103941476D01*
X154186000Y-103846238D01*
X154138380Y-103703380D01*
X154138380Y-103608142D01*
X154186000Y-103465285D01*
X154233619Y-103417666D01*
X154138380Y-102512904D02*
X154138380Y-102989095D01*
X154614571Y-103036714D01*
X154566952Y-102989095D01*
X154519333Y-102893857D01*
X154519333Y-102655761D01*
X154566952Y-102560523D01*
X154614571Y-102512904D01*
X154709809Y-102465285D01*
X154947904Y-102465285D01*
X155043142Y-102512904D01*
X155090761Y-102560523D01*
X155138380Y-102655761D01*
X155138380Y-102893857D01*
X155090761Y-102989095D01*
X155043142Y-103036714D01*
X146089666Y-114633285D02*
X146089666Y-114157095D01*
X146375380Y-114728523D02*
X145375380Y-114395190D01*
X146375380Y-114061857D01*
X146375380Y-113204714D02*
X146375380Y-113776142D01*
X146375380Y-113490428D02*
X145375380Y-113490428D01*
X145518238Y-113585666D01*
X145613476Y-113680904D01*
X145661095Y-113776142D01*
X164338095Y-109688380D02*
X164338095Y-110497904D01*
X164385714Y-110593142D01*
X164433333Y-110640761D01*
X164528571Y-110688380D01*
X164719047Y-110688380D01*
X164814285Y-110640761D01*
X164861904Y-110593142D01*
X164909523Y-110497904D01*
X164909523Y-109688380D01*
X165814285Y-110021714D02*
X165814285Y-110688380D01*
X165576190Y-109640761D02*
X165338095Y-110355047D01*
X165957142Y-110355047D01*
D11*
X147674359Y-110489000D02*
X147981641Y-110489000D01*
X147674359Y-109729000D02*
X147981641Y-109729000D01*
X149859000Y-105436641D02*
X149859000Y-105129359D01*
X149099000Y-105436641D02*
X149099000Y-105129359D01*
X165207836Y-111739000D02*
X164992164Y-111739000D01*
X165207836Y-111019000D02*
X164992164Y-111019000D01*
D12*
X131556000Y-114585000D02*
X139556000Y-114585000D01*
X139556000Y-113885000D02*
X139556000Y-114585000D01*
X139556000Y-102585000D02*
X139556000Y-103285000D01*
X131556000Y-102585000D02*
X139556000Y-102585000D01*
D11*
X161396000Y-111613836D02*
X161396000Y-111398164D01*
X160676000Y-111613836D02*
X160676000Y-111398164D01*
X143145000Y-114619000D02*
X143145000Y-113219000D01*
X144445000Y-115319000D02*
X143845000Y-115319000D01*
X145145000Y-113219000D02*
X145145000Y-114619000D01*
X143845000Y-112519000D02*
X144445000Y-112519000D01*
X143145000Y-114619000D02*
G75*
G03*
X143845000Y-115319000I699999J-1D01*
G01*
X144445000Y-115319000D02*
G75*
G03*
X145145000Y-114619000I1J699999D01*
G01*
X145145000Y-113219000D02*
G75*
G03*
X144445000Y-112519000I-700000J0D01*
G01*
X143845000Y-112519000D02*
G75*
G03*
X143145000Y-113219000I0J-700000D01*
G01*
X150257000Y-114619000D02*
X150257000Y-113219000D01*
X151557000Y-115319000D02*
X150957000Y-115319000D01*
X152257000Y-113219000D02*
X152257000Y-114619000D01*
X150957000Y-112519000D02*
X151557000Y-112519000D01*
X152257000Y-113219000D02*
G75*
G03*
X151557000Y-112519000I-700000J0D01*
G01*
X150257000Y-114619000D02*
G75*
G03*
X150957000Y-115319000I699999J-1D01*
G01*
X151557000Y-115319000D02*
G75*
G03*
X152257000Y-114619000I1J699999D01*
G01*
X150957000Y-112519000D02*
G75*
G03*
X150257000Y-113219000I0J-700000D01*
G01*
X153035000Y-108930000D02*
X153685000Y-108930000D01*
X153035000Y-112050000D02*
X153685000Y-112050000D01*
X153035000Y-108930000D02*
X151360000Y-108930000D01*
X153035000Y-112050000D02*
X152385000Y-112050000D01*
X147981641Y-109473000D02*
X147674359Y-109473000D01*
X147981641Y-108713000D02*
X147674359Y-108713000D01*
X155088000Y-109366164D02*
X155088000Y-109581836D01*
X155808000Y-109366164D02*
X155808000Y-109581836D01*
X154339000Y-106609000D02*
X151654000Y-106609000D01*
X151654000Y-108529000D02*
X154339000Y-108529000D01*
X154339000Y-108529000D02*
X154339000Y-106609000D01*
X141624164Y-108987000D02*
X141839836Y-108987000D01*
X141624164Y-109707000D02*
X141839836Y-109707000D01*
X160427641Y-109602000D02*
X160120359Y-109602000D01*
X160427641Y-110362000D02*
X160120359Y-110362000D01*
X149859000Y-103097359D02*
X149859000Y-103404641D01*
X149099000Y-103097359D02*
X149099000Y-103404641D01*
X145007359Y-111380000D02*
X145314641Y-111380000D01*
X145007359Y-112140000D02*
X145314641Y-112140000D01*
X143383000Y-101667000D02*
X148523000Y-101667000D01*
X148523000Y-104327000D02*
X148523000Y-101667000D01*
X143383000Y-104327000D02*
X148523000Y-104327000D01*
X140783000Y-104327000D02*
X140783000Y-102997000D01*
X143383000Y-104327000D02*
X143383000Y-101667000D01*
X142113000Y-104327000D02*
X140783000Y-104327000D01*
X167158641Y-110743000D02*
X166851359Y-110743000D01*
X167158641Y-109983000D02*
X166851359Y-109983000D01*
X166851359Y-110999000D02*
X167158641Y-110999000D01*
X166851359Y-111759000D02*
X167158641Y-111759000D01*
X150982000Y-111144164D02*
X150982000Y-111359836D01*
X150262000Y-111144164D02*
X150262000Y-111359836D01*
X141624164Y-108691000D02*
X141839836Y-108691000D01*
X141624164Y-107971000D02*
X141839836Y-107971000D01*
X153183000Y-105147164D02*
X153183000Y-105362836D01*
X153903000Y-105147164D02*
X153903000Y-105362836D01*
X146390000Y-109560000D02*
X146390000Y-109110000D01*
X145940000Y-106340000D02*
X146390000Y-106340000D01*
X143170000Y-109560000D02*
X143170000Y-109110000D01*
X145940000Y-109560000D02*
X146390000Y-109560000D01*
X143620000Y-106340000D02*
X143170000Y-106340000D01*
X143620000Y-109560000D02*
X143170000Y-109560000D01*
X146390000Y-106340000D02*
X146390000Y-106790000D01*
X153903000Y-103358836D02*
X153903000Y-103143164D01*
X153183000Y-103358836D02*
X153183000Y-103143164D01*
X148701000Y-113219000D02*
X148701000Y-114619000D01*
X146701000Y-114619000D02*
X146701000Y-113219000D01*
X148001000Y-115319000D02*
X147401000Y-115319000D01*
X147401000Y-112519000D02*
X148001000Y-112519000D01*
X147401000Y-112519000D02*
G75*
G03*
X146701000Y-113219000I0J-700000D01*
G01*
X148701000Y-113219000D02*
G75*
G03*
X148001000Y-112519000I-700000J0D01*
G01*
X146701000Y-114619000D02*
G75*
G03*
X147401000Y-115319000I699999J-1D01*
G01*
X148001000Y-115319000D02*
G75*
G03*
X148701000Y-114619000I1J699999D01*
G01*
%LPC*%
D13*
X147318000Y-110109000D03*
X148338000Y-110109000D03*
D14*
X149479000Y-105793000D03*
X149479000Y-104773000D03*
D15*
X155750000Y-111920000D03*
X159750000Y-111920000D03*
X157750000Y-111920000D03*
D16*
X165580000Y-111379000D03*
X164620000Y-111379000D03*
D17*
X139192000Y-113030000D03*
X139192000Y-111760000D03*
X139192000Y-110490000D03*
X139192000Y-109220000D03*
X139192000Y-107950000D03*
X139192000Y-106680000D03*
X139192000Y-105410000D03*
X139192000Y-104140000D03*
D18*
X128056000Y-103085000D03*
D19*
X161036000Y-111986000D03*
X161036000Y-111026000D03*
D20*
X144145000Y-114569000D03*
D21*
X144145000Y-113269000D03*
D20*
X151257000Y-114569000D03*
D21*
X151257000Y-113269000D03*
D22*
X129286000Y-102743000D03*
D23*
X152097500Y-109540000D03*
X152097500Y-111440000D03*
X153972500Y-110490000D03*
D22*
X167132000Y-103632000D03*
D24*
X148338000Y-109093000D03*
X147318000Y-109093000D03*
D25*
X155448000Y-108994000D03*
X155448000Y-109954000D03*
D26*
X153591500Y-107569000D03*
X151716500Y-107569000D03*
D27*
X141252000Y-109347000D03*
X142212000Y-109347000D03*
D24*
X160784000Y-109982000D03*
X159764000Y-109982000D03*
D28*
X149479000Y-102741000D03*
X149479000Y-103761000D03*
D13*
X144651000Y-111760000D03*
X145671000Y-111760000D03*
D29*
X142113000Y-102997000D03*
D30*
X144653000Y-102997000D03*
X147193000Y-102997000D03*
D24*
X167515000Y-110363000D03*
X166495000Y-110363000D03*
D13*
X166495000Y-111379000D03*
X167515000Y-111379000D03*
D31*
X150761000Y-105429500D03*
D32*
X151261000Y-105429500D03*
X151761000Y-105429500D03*
X152261000Y-105429500D03*
D33*
X152423500Y-104767000D03*
X152423500Y-104267000D03*
X152423500Y-103767000D03*
D32*
X152261000Y-103104500D03*
X151761000Y-103104500D03*
X151261000Y-103104500D03*
X150761000Y-103104500D03*
D33*
X150598500Y-103767000D03*
X150598500Y-104267000D03*
X150598500Y-104767000D03*
D25*
X150622000Y-110772000D03*
X150622000Y-111732000D03*
D27*
X141252000Y-108331000D03*
X142212000Y-108331000D03*
D25*
X153543000Y-104775000D03*
X153543000Y-105735000D03*
D34*
X159852000Y-104648000D03*
X164252000Y-104648000D03*
D35*
X163652000Y-107048000D03*
X162852000Y-107048000D03*
X162052000Y-107048000D03*
X161252000Y-107048000D03*
X160452000Y-107048000D03*
D36*
X166502000Y-107198000D03*
X166502000Y-101698000D03*
X157602000Y-101698000D03*
X157602000Y-107198000D03*
D37*
X143330000Y-107150000D03*
D38*
X143330000Y-107550000D03*
X143330000Y-107950000D03*
X143330000Y-108350000D03*
D39*
X143330000Y-108750000D03*
D40*
X143980000Y-109400000D03*
D41*
X144380000Y-109400000D03*
X144780000Y-109400000D03*
X145180000Y-109400000D03*
D42*
X145580000Y-109400000D03*
D43*
X146230000Y-108750000D03*
D38*
X146230000Y-108350000D03*
X146230000Y-107950000D03*
X146230000Y-107550000D03*
D44*
X146230000Y-107150000D03*
D45*
X145580000Y-106500000D03*
D41*
X145180000Y-106500000D03*
X144780000Y-106500000D03*
X144380000Y-106500000D03*
D46*
X143980000Y-106500000D03*
D29*
X144780000Y-107950000D03*
D19*
X153543000Y-103731000D03*
X153543000Y-102771000D03*
D20*
X147701000Y-114569000D03*
D21*
X147701000Y-113269000D03*
D22*
X128143000Y-114427000D03*
D47*
X163764000Y-111036000D03*
X163764000Y-110636000D03*
X163764000Y-110236000D03*
X163764000Y-109836000D03*
X163764000Y-109436000D03*
X161864000Y-109436000D03*
X161864000Y-109836000D03*
X161864000Y-110236000D03*
X161864000Y-110636000D03*
X161864000Y-111036000D03*
D48*
X162814000Y-110236000D03*
D49*
X164452300Y-114221260D03*
D50*
X166452300Y-114221260D03*
M02*
