M48
; DRILL file {KiCad (6.0.7)} date Sun Feb 19 14:25:55 2023
; FORMAT={-:-/ absolute / metric / decimal}
; #@! TF.CreationDate,2023-02-19T14:25:55-04:00
; #@! TF.GenerationSoftware,Kicad,Pcbnew,(6.0.7)
; #@! TF.FileFunction,Plated,1,2,PTH
FMAT,2
METRIC
; #@! TA.AperFunction,Plated,PTH,ViaDrill
T1C0.200
; #@! TA.AperFunction,Plated,PTH,ComponentDrill
T2C0.762
; #@! TA.AperFunction,Plated,PTH,ComponentDrill
T3C0.800
; #@! TA.AperFunction,Plated,PTH,ComponentDrill
T4C0.900
; #@! TA.AperFunction,Plated,PTH,ComponentDrill
T5C1.000
; #@! TA.AperFunction,Plated,PTH,ComponentDrill
T6C1.300
; #@! TA.AperFunction,Plated,PTH,ComponentDrill
T7C2.000
; #@! TA.AperFunction,Plated,PTH,ComponentDrill
T8C2.500
%
G90
G05
T1
X116.586Y-113.284
X116.586Y-118.364
X116.84Y-122.174
X117.348Y-93.98
X117.835Y-84.352
X118.11Y-90.678
X118.11Y-96.52
X118.11Y-102.616
X118.364Y-81.788
X118.364Y-86.36
X118.364Y-89.154
X118.364Y-109.22
X118.618Y-104.394
X118.872Y-101.092
X119.126Y-92.202
X120.143Y-84.882
X120.396Y-99.314
X120.396Y-105.918
X120.65Y-125.984
X120.801Y-103.154
X121.415Y-102.541
X122.035Y-101.921
X122.174Y-118.618
X122.249Y-103.375
X122.682Y-112.268
X122.869Y-102.755
X123.19Y-91.44
X123.19Y-104.902
X123.444Y-81.788
X123.84Y-103.052
X123.952Y-88.138
X123.952Y-99.568
X124.968Y-94.996
X125.222Y-84.836
X125.984Y-100.838
X126.211Y-90.975
X126.238Y-104.14
X126.238Y-125.984
X126.87Y-90.316
X127.0Y-97.028
X127.0Y-122.174
X127.254Y-92.456
X127.574Y-89.612
X127.762Y-108.966
X127.878Y-90.976
X128.27Y-81.788
X128.542Y-90.312
X128.778Y-87.63
X129.24Y-89.614
X129.54Y-107.696
X130.048Y-118.11
X130.302Y-84.836
X130.42Y-86.766
X130.986Y-86.2
X131.572Y-88.392
X131.572Y-113.03
X131.591Y-85.594
X131.748Y-90.788
X132.08Y-92.456
X132.08Y-96.774
X132.08Y-101.346
X132.08Y-105.664
X132.08Y-126.238
X132.092Y-86.763
X132.481Y-89.615
X132.481Y-90.319
X132.649Y-86.206
X132.842Y-110.998
X133.26Y-85.594
X133.858Y-109.474
X134.112Y-82.55
X134.112Y-122.682
X134.453Y-87.632
X134.842Y-89.612
X134.874Y-85.344
X134.874Y-116.586
X134.882Y-95.671
X134.882Y-97.242
X134.895Y-93.932
X134.914Y-98.702
X134.916Y-100.37
X134.918Y-92.02
X135.062Y-102.967
X135.298Y-105.291
X135.636Y-113.792
X135.89Y-119.634
X135.93Y-93.054
X135.984Y-90.571
X135.999Y-107.474
X136.049Y-85.538
X136.099Y-108.426
X136.272Y-94.346
X136.349Y-111.82
X136.398Y-109.329
X136.529Y-106.929
X136.616Y-96.592
X136.628Y-99.106
X136.779Y-91.356
X137.056Y-104.036
X137.575Y-109.186
X137.852Y-84.157
X137.866Y-83.423
X138.176Y-111.696
X138.176Y-114.3
X138.189Y-101.226
X138.213Y-104.549
X138.224Y-102.048
X138.305Y-89.976
X138.43Y-120.396
X138.644Y-107.338
X138.684Y-86.106
X138.78Y-103.982
X138.828Y-83.422
X138.828Y-84.164
X138.828Y-84.954
X138.938Y-88.646
X139.192Y-98.552
X139.232Y-90.328
X139.381Y-105.166
X139.446Y-115.57
X139.56Y-100.629
X139.748Y-108.433
X139.954Y-120.396
X140.261Y-106.202
X140.657Y-84.37
X141.208Y-83.819
X141.218Y-108.551
X141.224Y-86.106
X141.224Y-109.982
X141.224Y-116.332
X141.732Y-95.25
X141.743Y-83.26
X141.816Y-106.846
X141.945Y-84.926
X142.24Y-120.396
X142.666Y-99.568
X142.666Y-100.33
X142.666Y-101.192
X142.748Y-110.744
X143.002Y-90.932
X143.256Y-116.332
X143.39Y-98.156
X143.788Y-83.083
X143.846Y-99.558
X143.846Y-100.33
X143.846Y-101.192
X143.982Y-90.896
X144.018Y-110.744
X144.26Y-83.992
X144.272Y-120.396
X144.306Y-116.874
X144.522Y-98.802
X144.526Y-79.502
X144.785Y-90.093
X145.046Y-116.135
X145.067Y-107.38
X145.288Y-76.962
X145.288Y-92.71
X145.288Y-110.744
X145.377Y-89.5
X145.508Y-118.076
X145.796Y-98.044
X145.796Y-102.362
X146.05Y-88.392
X146.075Y-91.293
X146.243Y-117.34
X146.304Y-120.396
X146.468Y-90.088
X146.558Y-107.95
X146.558Y-110.744
X146.812Y-85.598
X147.065Y-89.499
X147.066Y-117.856
X147.828Y-81.28
X148.336Y-120.396
X148.844Y-117.856
X149.606Y-106.426
X149.86Y-86.868
X150.368Y-120.396
X150.622Y-92.964
X150.622Y-117.856
X150.876Y-90.17
X151.384Y-98.806
X152.175Y-92.549
X152.4Y-117.856
X152.4Y-120.396
X152.648Y-92.076
X153.172Y-91.552
X153.416Y-77.724
X153.416Y-81.788
X153.67Y-84.328
X154.168Y-91.378
X154.241Y-94.617
X154.432Y-120.396
X154.717Y-94.147
X154.94Y-102.616
X154.94Y-114.554
X155.236Y-93.622
X155.702Y-89.154
X155.702Y-107.696
X155.824Y-93.039
X156.21Y-94.234
X156.21Y-123.698
X156.464Y-120.396
X157.709Y-91.293
X157.988Y-83.566
X158.303Y-91.887
X159.512Y-94.488
X160.274Y-114.808
X160.528Y-87.884
X160.782Y-118.11
X160.782Y-125.476
X160.843Y-94.427
X161.29Y-97.79
X161.29Y-104.902
X161.544Y-80.772
X161.544Y-110.49
X161.798Y-77.724
X162.266Y-99.099
X162.266Y-101.615
X162.814Y-92.456
X163.104Y-94.198
X164.028Y-99.099
X164.028Y-103.367
X164.338Y-101.346
X165.1Y-84.582
X165.608Y-98.044
X167.132Y-120.65
X167.894Y-110.998
X168.148Y-115.57
X169.164Y-88.392
X169.672Y-105.41
X170.434Y-125.476
X170.688Y-77.724
X170.688Y-95.25
X170.942Y-101.346
X171.45Y-83.058
X171.45Y-92.964
X174.244Y-126.238
X175.006Y-118.11
X175.514Y-110.998
X176.276Y-81.28
X176.53Y-102.616
X176.784Y-86.614
X177.546Y-96.012
X177.8Y-91.948
X177.8Y-108.204
X178.816Y-84.582
X178.816Y-100.33
X179.07Y-105.156
X179.578Y-121.158
X179.65Y-124.884
X180.086Y-114.808
X180.086Y-126.238
X181.356Y-90.932
X181.356Y-124.881
X181.61Y-96.266
X181.864Y-102.362
X182.118Y-107.95
X182.626Y-86.614
X183.134Y-119.634
X183.388Y-77.216
X183.642Y-104.902
X184.912Y-88.646
X185.674Y-125.222
X185.928Y-100.076
X186.182Y-82.55
X186.436Y-109.982
X186.436Y-118.872
T2
X116.84Y-82.55
X116.84Y-85.09
X116.84Y-87.63
X116.84Y-90.17
X116.84Y-92.71
X116.84Y-95.25
X116.84Y-97.79
X116.84Y-100.33
X116.84Y-102.87
X116.84Y-105.41
X116.84Y-107.95
X116.84Y-110.49
X137.1Y-82.55
X137.1Y-87.63
X137.1Y-92.71
X137.1Y-95.25
X137.16Y-85.09
X137.16Y-90.17
X137.16Y-97.79
X137.16Y-100.33
X137.16Y-102.87
X137.16Y-105.41
X137.16Y-107.95
X137.16Y-110.49
X137.16Y-113.03
X137.16Y-115.57
X137.16Y-118.11
X137.16Y-120.65
T3
X148.082Y-84.582
X148.082Y-87.63
X148.082Y-90.678
X155.702Y-84.582
X155.702Y-87.63
X155.702Y-90.678
X155.702Y-117.856
X155.702Y-125.476
X166.116Y-92.964
X166.116Y-110.236
X173.736Y-92.964
X173.736Y-110.236
X176.032Y-90.927
X176.032Y-93.467
X176.032Y-106.929
X176.032Y-109.469
X176.032Y-122.931
X176.032Y-125.471
X183.652Y-90.927
X183.652Y-93.467
X183.652Y-106.929
X183.652Y-109.469
X183.652Y-122.931
X183.652Y-125.471
T4
X143.256Y-84.836
X143.256Y-87.376
X143.256Y-94.107
X143.256Y-96.647
X143.256Y-103.378
X143.256Y-105.918
T5
X141.26Y-81.28
X145.76Y-81.28
X151.166Y-81.28
X155.666Y-81.28
X158.728Y-81.8
X158.728Y-86.8
X158.728Y-99.1
X158.728Y-104.1
X158.728Y-116.4
X158.728Y-121.4
X173.228Y-81.8
X173.228Y-84.3
X173.228Y-86.8
X173.228Y-99.1
X173.228Y-101.6
X173.228Y-104.1
X173.228Y-116.4
X173.228Y-118.9
X173.228Y-121.4
T6
X140.01Y-78.78
X147.01Y-78.78
X149.916Y-78.78
X156.916Y-78.78
T8
X118.11Y-124.46
X135.89Y-124.46
T5
X175.702Y-82.848G85X176.202Y-82.848
G05
X175.702Y-88.348G85X176.202Y-88.348
G05
X175.702Y-98.85G85X176.202Y-98.85
G05
X175.702Y-104.35G85X176.202Y-104.35
G05
X175.702Y-114.852G85X176.202Y-114.852
G05
X175.702Y-120.352G85X176.202Y-120.352
G05
X181.002Y-84.098G85X181.502Y-84.098
G05
X181.002Y-100.1G85X181.502Y-100.1
G05
X181.002Y-116.102G85X181.502Y-116.102
G05
T7
X166.228Y-78.7G85X165.228Y-78.7
G05
X166.228Y-89.9G85X165.228Y-89.9
G05
X166.228Y-96.0G85X165.228Y-96.0
G05
X166.228Y-107.2G85X165.228Y-107.2
G05
X166.228Y-113.3G85X165.228Y-113.3
G05
X166.228Y-124.5G85X165.228Y-124.5
G05
T0
M30
