G04 #@! TF.GenerationSoftware,KiCad,Pcbnew,(6.0.7)*
G04 #@! TF.CreationDate,2023-02-19T14:25:41-04:00*
G04 #@! TF.ProjectId,Twitch Switch Base,54776974-6368-4205-9377-697463682042,rev?*
G04 #@! TF.SameCoordinates,Original*
G04 #@! TF.FileFunction,Legend,Bot*
G04 #@! TF.FilePolarity,Positive*
%FSLAX46Y46*%
G04 Gerber Fmt 4.6, Leading zero omitted, Abs format (unit mm)*
G04 Created by KiCad (PCBNEW (6.0.7)) date 2023-02-19 14:25:41*
%MOMM*%
%LPD*%
G01*
G04 APERTURE LIST*
%ADD10C,0.300000*%
%ADD11R,2.000000X2.000000*%
%ADD12C,2.000000*%
%ADD13R,3.800000X2.800000*%
%ADD14C,1.600000*%
%ADD15O,1.600000X1.600000*%
%ADD16C,2.300000*%
%ADD17R,1.600000X1.600000*%
%ADD18R,1.800000X1.800000*%
%ADD19C,1.800000*%
%ADD20O,2.000000X1.500000*%
%ADD21C,2.530000*%
%ADD22C,1.524000*%
%ADD23C,3.810000*%
G04 APERTURE END LIST*
D10*
X127996000Y-124606857D02*
X127781714Y-124678285D01*
X127710285Y-124749714D01*
X127638857Y-124892571D01*
X127638857Y-125106857D01*
X127710285Y-125249714D01*
X127781714Y-125321142D01*
X127924571Y-125392571D01*
X128496000Y-125392571D01*
X128496000Y-123892571D01*
X127996000Y-123892571D01*
X127853142Y-123964000D01*
X127781714Y-124035428D01*
X127710285Y-124178285D01*
X127710285Y-124321142D01*
X127781714Y-124464000D01*
X127853142Y-124535428D01*
X127996000Y-124606857D01*
X128496000Y-124606857D01*
X126710285Y-123892571D02*
X126424571Y-123892571D01*
X126281714Y-123964000D01*
X126138857Y-124106857D01*
X126067428Y-124392571D01*
X126067428Y-124892571D01*
X126138857Y-125178285D01*
X126281714Y-125321142D01*
X126424571Y-125392571D01*
X126710285Y-125392571D01*
X126853142Y-125321142D01*
X126996000Y-125178285D01*
X127067428Y-124892571D01*
X127067428Y-124392571D01*
X126996000Y-124106857D01*
X126853142Y-123964000D01*
X126710285Y-123892571D01*
X125638857Y-123892571D02*
X124781714Y-123892571D01*
X125210285Y-125392571D02*
X125210285Y-123892571D01*
%LPC*%
D11*
X173228000Y-86800000D03*
D12*
X173228000Y-81800000D03*
X173228000Y-84300000D03*
D13*
X165728000Y-78700000D03*
X165728000Y-89900000D03*
D12*
X158728000Y-81800000D03*
X158728000Y-86800000D03*
D14*
X166116000Y-110236000D03*
D15*
X173736000Y-110236000D03*
D12*
X151166000Y-81280000D03*
X155666000Y-81280000D03*
D16*
X156916000Y-78780000D03*
X149916000Y-78780000D03*
D17*
X176032000Y-122931000D03*
D15*
X176032000Y-125471000D03*
X183652000Y-125471000D03*
X183652000Y-122931000D03*
D18*
X143256000Y-87376000D03*
D19*
X143256000Y-84836000D03*
D20*
X175952000Y-120352000D03*
X181252000Y-116102000D03*
X175952000Y-114852000D03*
D18*
X143256000Y-105918000D03*
D19*
X143256000Y-103378000D03*
D20*
X175952000Y-88348000D03*
X181252000Y-84098000D03*
X175952000Y-82848000D03*
D11*
X173228000Y-121400000D03*
D12*
X173228000Y-116400000D03*
X173228000Y-118900000D03*
D13*
X165728000Y-124500000D03*
X165728000Y-113300000D03*
D12*
X158728000Y-116400000D03*
X158728000Y-121400000D03*
D18*
X143256000Y-96647000D03*
D19*
X143256000Y-94107000D03*
D14*
X155702000Y-84582000D03*
D15*
X148082000Y-84582000D03*
D14*
X155702000Y-90678000D03*
D15*
X148082000Y-90678000D03*
D20*
X175952000Y-104350000D03*
X181252000Y-100100000D03*
X175952000Y-98850000D03*
D12*
X141260000Y-81280000D03*
X145760000Y-81280000D03*
D16*
X147010000Y-78780000D03*
X140010000Y-78780000D03*
D17*
X176032000Y-106929000D03*
D15*
X176032000Y-109469000D03*
X183652000Y-109469000D03*
X183652000Y-106929000D03*
D14*
X155702000Y-117856000D03*
D15*
X155702000Y-125476000D03*
D14*
X155702000Y-87630000D03*
D15*
X148082000Y-87630000D03*
D21*
X118110000Y-78740000D03*
X135890000Y-78740000D03*
D22*
X137160000Y-120650000D03*
X137160000Y-118110000D03*
X137160000Y-115570000D03*
X137160000Y-113030000D03*
X137160000Y-110490000D03*
X137160000Y-107950000D03*
X137160000Y-105410000D03*
X137160000Y-102870000D03*
X137160000Y-100330000D03*
X137160000Y-97790000D03*
X137100000Y-95250000D03*
X137100000Y-92710000D03*
X137160000Y-90170000D03*
X137100000Y-87630000D03*
X137160000Y-85090000D03*
X137100000Y-82550000D03*
X116840000Y-82550000D03*
X116840000Y-85090000D03*
X116840000Y-87630000D03*
X116840000Y-90170000D03*
X116840000Y-92710000D03*
X116840000Y-95250000D03*
X116840000Y-97790000D03*
X116840000Y-100330000D03*
X116840000Y-102870000D03*
X116840000Y-105410000D03*
X116840000Y-107950000D03*
X116840000Y-110490000D03*
D23*
X118110000Y-124460000D03*
X135890000Y-124460000D03*
D14*
X166116000Y-92964000D03*
D15*
X173736000Y-92964000D03*
D11*
X173228000Y-104100000D03*
D12*
X173228000Y-99100000D03*
X173228000Y-101600000D03*
D13*
X165728000Y-96000000D03*
X165728000Y-107200000D03*
D12*
X158728000Y-99100000D03*
X158728000Y-104100000D03*
D17*
X176032000Y-90927000D03*
D15*
X176032000Y-93467000D03*
X183652000Y-93467000D03*
X183652000Y-90927000D03*
M02*
